{
.appVersion = "3086";
classes = (
{
automatic = 1;
code = "A Aacute Abreve Abreveacute Abrevedotbelow Abrevegrave Abrevehookabove Abrevetilde Acircumflex Acircumflexacute Acircumflexdotbelow Acircumflexgrave Acircumflexhookabove Acircumflextilde Adblgrave Adieresis Adotbelow Agrave Ahookabove Ainvertedbreve Amacron Aogonek Aring Aringacute Atilde AE AEacute B C Cacute Ccaron Ccedilla Ccircumflex Cdotaccent D DZcaron Eth Dcaron Dcroat Dzcaron E Eacute Ebreve Ecaron Ecircumflex Ecircumflexacute Ecircumflexdotbelow Ecircumflexgrave Ecircumflexhookabove Ecircumflextilde Edblgrave Edieresis Edotaccent Edotbelow Egrave Ehookabove Einvertedbreve Emacron Eogonek Etilde F G Gbreve Gcaron Gcircumflex Gcommaaccent Gdotaccent H Hbar Hcircumflex I IJ Iacute Ibreve Icircumflex Idblgrave Idieresis Idotaccent Idotbelow Igrave Ihookabove Iinvertedbreve Imacron Iogonek Itilde J Jcircumflex K Kcommaaccent L LJ Lacute Lcaron Lcommaaccent Ldot Lj Lslash M N NJ Nacute Ncaron Ncommaaccent Nhookleft Nj Ntilde Eng O Oacute Obreve Ocircumflex Ocircumflexacute Ocircumflexdotbelow Ocircumflexgrave Ocircumflexhookabove Ocircumflextilde Odblgrave Odieresis Odieresismacron Odotaccentmacron Odotbelow Ograve Ohookabove Ohorn Ohornacute Ohorndotbelow Ohorngrave Ohornhookabove Ohorntilde Ohungarumlaut Oinvertedbreve Omacron Oogonek Oslash Oslashacute Otilde Otildemacron OE P Thorn Q R Racute Rcaron Rcommaaccent Rdblgrave Rinvertedbreve S Sacute Scaron Scedilla Scircumflex Scommaaccent Germandbls Schwa T Tbar Tcaron Tcedilla Tcommaaccent U Uacute Ubreve Ucircumflex Udblgrave Udieresis Udotbelow Ugrave Uhookabove Uhorn Uhornacute Uhorndotbelow Uhorngrave Uhornhookabove Uhorntilde Uhungarumlaut Uinvertedbreve Umacron Uogonek Uring Utilde V W Wacute Wcircumflex Wdieresis Wgrave X Y Yacute Ycircumflex Ydieresis Ydotbelow Ygrave Yhookabove Ymacron Ytilde Z Zacute Zcaron Zdotaccent Delta Omega";
name = Uppercase;
}
);

glyphs = (
{
color = 5;
glyphname = A;
layers = (
{
anchors = (
{
name = bottom;
position = "{278, 0}";
},
{
name = ogonek;
position = "{590, 0}";
},
{
name = top;
position = "{415, 690}";
}
);
guideLines = (
{
angle = 78;
position = "{271, 0}";
}
);
layerId = master01;
paths = (
{
closed = 1;
nodes = (
"112 0 LINE",
"402 533 LINE",
"425 690 LINE",
"351 690 LINE",
"-60 0 LINE"
);
},
{
closed = 1;
nodes = (
"467 136 LINE",
"494 263 LINE",
"168 263 LINE",
"141 136 LINE"
);
},
{
closed = 1;
nodes = (
"430 0 LINE",
"590 0 LINE",
"475 690 LINE",
"403 690 LINE",
"366 533 LINE"
);
}
);
userData = {
com.schriftgestaltung.Glyphs.lastChange = "2021-03-08 18:10:54 +0000";
com.typemytype.robofont.guideline.magnetic.yKRc1KYmcW = 5;
};
width = 650;
},
{
anchors = (
{
name = bottom;
position = "{235, 0}";
},
{
name = ogonek;
position = "{497, 0}";
},
{
name = top;
position = "{365, 690}";
}
);
layerId = master02;
paths = (
{
closed = 1;
nodes = (
"95 0 LINE",
"350 537 LINE",
"376 690 LINE",
"310 690 LINE",
"-62 0 LINE"
);
},
{
closed = 1;
nodes = (
"393 142 LINE",
"422 264 LINE",
"144 264 LINE",
"115 142 LINE"
);
},
{
closed = 1;
nodes = (
"351 0 LINE",
"497 0 LINE",
"423 690 LINE",
"359 690 LINE",
"320 537 LINE"
);
}
);
userData = {
com.schriftgestaltung.Glyphs.lastChange = "2021-03-08 17:07:35 +0000";
};
width = 555;
},
{
anchors = (
{
name = bottom;
position = "{212, 0}";
},
{
name = ogonek;
position = "{429, 0}";
},
{
name = top;
position = "{344, 690}";
}
);
guideLines = (
{
angle = 78;
position = "{228, 0}";
}
);
layerId = master03;
paths = (
{
closed = 1;
nodes = (
"24 0 LINE",
"355 645 LINE",
"360 690 LINE",
"320 690 LINE",
"-42 0 LINE"
);
},
{
closed = 1;
nodes = (
"368 226 LINE",
"368 280 LINE",
"136 280 LINE",
"124 226 LINE"
);
},
{
closed = 1;
nodes = (
"367 0 LINE",
"429 0 LINE",
"369 690 LINE",
"328 690 LINE",
"320 648 LINE"
);
}
);
userData = {
com.schriftgestaltung.Glyphs.lastChange = "2021-03-08 06:29:23 +0000";
com.typemytype.robofont.guideline.magnetic.L6PCExRGN1 = 5;
};
width = 507;
},
{
anchors = (
{
name = bottom;
position = "{208, 0}";
},
{
name = ogonek;
position = "{432, 0}";
},
{
name = top;
position = "{336, 690}";
}
);
layerId = master04;
paths = (
{
closed = 1;
nodes = (
"48 0 LINE",
"336 609 LINE",
"351 690 LINE",
"302 690 LINE",
"-45 0 LINE"
);
},
{
closed = 1;
nodes = (
"361 183 LINE",
"380 261 LINE",
"131 261 LINE",
"112 183 LINE"
);
},
{
closed = 1;
nodes = (
"342 0 LINE",
"432 0 LINE",
"375 690 LINE",
"329 690 LINE",
"308 609 LINE"
);
}
);
userData = {
com.schriftgestaltung.Glyphs.lastChange = "2021-03-08 06:30:32 +0000";
};
width = 507;
},
{
anchors = (
{
name = bottom;
position = "{249, 0}";
},
{
name = ogonek;
position = "{497, 0}";
},
{
name = top;
position = "{374, 690}";
}
);
guideLines = (
{
angle = 78;
position = "{228, 0}";
}
);
layerId = master05;
paths = (
{
closed = 1;
nodes = (
"24 0 LINE",
"385 645 LINE",
"390 690 LINE",
"350 690 LINE",
"-42 0 LINE"
);
},
{
closed = 1;
nodes = (
"421 226 LINE",
"433 280 LINE",
"140 280 LINE",
"128 226 LINE"
);
},
{
closed = 1;
nodes = (
"435 0 LINE",
"497 0 LINE",
"399 690 LINE",
"358 690 LINE",
"350 645 LINE"
);
}
);
userData = {
com.schriftgestaltung.Glyphs.lastChange = "2021-03-08 18:08:57 +0000";
com.typemytype.robofont.guideline.magnetic.L6PCExRGN1 = 5;
};
width = 575;
},
{
anchors = (
{
name = bottom;
position = "{248, 0}";
},
{
name = ogonek;
position = "{528, 0}";
},
{
name = top;
position = "{386, 690}";
}
);
layerId = master06;
paths = (
{
closed = 1;
nodes = (
"54 0 LINE",
"389 605 LINE",
"401 690 LINE",
"349 690 LINE",
"-50 0 LINE"
);
},
{
closed = 1;
nodes = (
"436 194 LINE",
"453 274 LINE",
"148 274 LINE",
"131 194 LINE"
);
},
{
closed = 1;
nodes = (
"432 0 LINE",
"528 0 LINE",
"424 690 LINE",
"372 690 LINE",
"354 605 LINE"
);
}
);
userData = {
com.schriftgestaltung.Glyphs.lastChange = "2021-03-08 18:08:36 +0000";
};
width = 598;
}
);
leftKerningGroup = A;
rightKerningGroup = A;
unicode = 0041;
},
{
color = 5;
glyphname = AE;
layers = (
{
anchors = (
{
name = top;
position = "{672, 690}";
}
);
layerId = master01;
paths = (
{
closed = 1;
nodes = (
"110 0 LINE",
"455 590 LINE",
"447 690 LINE",
"355 690 LINE",
"-60 0 LINE"
);
},
{
closed = 1;
nodes = (
"464 136 LINE",
"491 263 LINE",
"165 263 LINE",
"138 136 LINE"
);
},
{
closed = 1;
nodes = (
"525 0 LINE",
"672 690 LINE",
"512 690 LINE",
"365 0 LINE"
);
},
{
closed = 1;
nodes = (
"967 550 LINE",
"997 690 LINE",
"417 690 LINE",
"387 550 LINE"
);
},
{
closed = 1;
nodes = (
"855 0 LINE",
"885 140 LINE",
"469 140 LINE",
"439 0 LINE"
);
},
{
closed = 1;
nodes = (
"863 282 LINE",
"891 414 LINE",
"527 414 LINE",
"499 282 LINE"
);
}
);
userData = {
com.schriftgestaltung.Glyphs.lastChange = "2021-03-02 23:46:34 +0000";
};
width = 960;
},
{
anchors = (
{
name = top;
position = "{587, 690}";
}
);
layerId = master02;
paths = (
{
closed = 1;
nodes = (
"94 0 LINE",
"397 594 LINE",
"392 690 LINE",
"308 690 LINE",
"-61 0 LINE"
);
},
{
closed = 1;
nodes = (
"389 142 LINE",
"415 264 LINE",
"140 264 LINE",
"114 142 LINE"
);
},
{
closed = 1;
nodes = (
"444 0 LINE",
"591 690 LINE",
"445 690 LINE",
"298 0 LINE"
);
},
{
closed = 1;
nodes = (
"813 556 LINE",
"842 690 LINE",
"364 690 LINE",
"335 556 LINE"
);
},
{
closed = 1;
nodes = (
"700 0 LINE",
"728 134 LINE",
"397 134 LINE",
"365 0 LINE"
);
},
{
closed = 1;
nodes = (
"716 285 LINE",
"742 411 LINE",
"455 411 LINE",
"425 285 LINE"
);
}
);
userData = {
com.schriftgestaltung.Glyphs.lastChange = "2021-03-03 00:29:32 +0000";
};
width = 805;
},
{
anchors = (
{
name = top;
position = "{620, 690}";
}
);
layerId = master03;
paths = (
{
closed = 1;
nodes = (
"25 0 LINE",
"441 645 LINE",
"449 690 LINE",
"406 690 LINE",
"-40 0 LINE"
);
},
{
closed = 1;
nodes = (
"441 226 LINE",
"453 280 LINE",
"160 280 LINE",
"148 226 LINE"
);
},
{
closed = 1;
nodes = (
"430 0 LINE",
"577 690 LINE",
"515 690 LINE",
"368 0 LINE"
);
},
{
closed = 1;
nodes = (
"849 636 LINE",
"861 690 LINE",
"440 690 LINE",
"428 636 LINE"
);
},
{
closed = 1;
nodes = (
"719 0 LINE",
"730 54 LINE",
"409 54 LINE",
"398 0 LINE"
);
},
{
closed = 1;
nodes = (
"736 322 LINE",
"747 374 LINE",
"477 374 LINE",
"466 322 LINE"
);
}
);
userData = {
com.schriftgestaltung.Glyphs.lastChange = "2021-03-04 10:55:32 +0000";
};
width = 843;
},
{
anchors = (
{
name = top;
position = "{533, 690}";
}
);
layerId = master04;
paths = (
{
closed = 1;
nodes = (
"40 0 LINE",
"371 627 LINE",
"373 690 LINE",
"319 690 LINE",
"-54 0 LINE"
);
},
{
closed = 1;
nodes = (
"357 197 LINE",
"376 275 LINE",
"128 275 LINE",
"108 197 LINE"
);
},
{
closed = 1;
nodes = (
"369 0 LINE",
"516 690 LINE",
"427 690 LINE",
"280 0 LINE"
);
},
{
closed = 1;
nodes = (
"766 608 LINE",
"784 690 LINE",
"358 690 LINE",
"337 608 LINE"
);
},
{
closed = 1;
nodes = (
"645 0 LINE",
"662 82 LINE",
"342 82 LINE",
"322 0 LINE"
);
},
{
closed = 1;
nodes = (
"667 309 LINE",
"683 387 LINE",
"405 387 LINE",
"386 309 LINE"
);
}
);
userData = {
com.schriftgestaltung.Glyphs.lastChange = "2021-03-02 23:38:03 +0000";
};
width = 760;
},
{
anchors = (
{
name = top;
position = "{620, 690}";
}
);
layerId = master05;
paths = (
{
closed = 1;
nodes = (
"25 0 LINE",
"441 645 LINE",
"449 690 LINE",
"406 690 LINE",
"-40 0 LINE"
);
},
{
closed = 1;
nodes = (
"441 226 LINE",
"453 280 LINE",
"160 280 LINE",
"148 226 LINE"
);
},
{
closed = 1;
nodes = (
"430 0 LINE",
"577 690 LINE",
"515 690 LINE",
"368 0 LINE"
);
},
{
closed = 1;
nodes = (
"914 636 LINE",
"926 690 LINE",
"440 690 LINE",
"428 636 LINE"
);
},
{
closed = 1;
nodes = (
"784 0 LINE",
"795 54 LINE",
"409 54 LINE",
"398 0 LINE"
);
},
{
closed = 1;
nodes = (
"801 322 LINE",
"812 374 LINE",
"477 374 LINE",
"466 322 LINE"
);
}
);
userData = {
com.schriftgestaltung.Glyphs.lastChange = "2021-03-03 00:29:23 +0000";
};
width = 910;
},
{
anchors = (
{
name = top;
position = "{640, 690}";
}
);
layerId = master06;
paths = (
{
closed = 1;
nodes = (
"57 0 LINE",
"448 625 LINE",
"450 690 LINE",
"390 690 LINE",
"-45 0 LINE"
);
},
{
closed = 1;
nodes = (
"451 194 LINE",
"468 274 LINE",
"164 274 LINE",
"146 194 LINE"
);
},
{
closed = 1;
nodes = (
"466 0 LINE",
"613 690 LINE",
"516 690 LINE",
"369 0 LINE"
);
},
{
closed = 1;
nodes = (
"935 605 LINE",
"953 690 LINE",
"434 690 LINE",
"415 605 LINE"
);
},
{
closed = 1;
nodes = (
"811 0 LINE",
"829 85 LINE",
"432 85 LINE",
"415 0 LINE"
);
},
{
closed = 1;
nodes = (
"825 308 LINE",
"842 388 LINE",
"497 388 LINE",
"480 308 LINE"
);
}
);
userData = {
com.schriftgestaltung.Glyphs.lastChange = "2021-03-02 23:45:59 +0000";
};
width = 937;
}
);
leftKerningGroup = AE;
rightKerningGroup = E;
unicode = 00C6;
},
{
color = 5;
glyphname = B;
layers = (
{
layerId = master01;
paths = (
{
closed = 1;
nodes = (
"172 0 LINE",
"319 690 LINE",
"159 690 LINE",
"12 0 LINE"
);
},
{
closed = 1;
nodes = (
"288 0 LINE SMOOTH",
"452 0 OFFCURVE",
"570 94 OFFCURVE",
"570 221 CURVE SMOOTH",
"570 322 OFFCURVE",
"483.9 388 OFFCURVE",
"360 388 CURVE SMOOTH",
"168 388 LINE",
"147 292 LINE",
"336 292 LINE SMOOTH",
"382 292 OFFCURVE",
"413 269 OFFCURVE",
"413 226 CURVE",
"413 176 OFFCURVE",
"365 129 OFFCURVE",
"303 129 CURVE SMOOTH",
"114 129 LINE",
"86 0 LINE"
);
},
{
closed = 1;
nodes = (
"323 328 LINE SMOOTH",
"476.421 328 OFFCURVE",
"606 413 OFFCURVE",
"606 530 CURVE SMOOTH",
"606 627 OFFCURVE",
"528 690 OFFCURVE",
"410 690 CURVE SMOOTH",
"233 690 LINE",
"204 561 LINE",
"373 561 LINE SMOOTH",
"417 561 OFFCURVE",
"446 537 OFFCURVE",
"446 499 CURVE",
"446 452 OFFCURVE",
"407 407 OFFCURVE",
"343 407 CURVE SMOOTH",
"174 407 LINE",
"156 328 LINE"
);
}
);
userData = {
com.schriftgestaltung.Glyphs.lastChange = "2021-03-02 23:46:34 +0000";
};
width = 627;
},
{
layerId = master02;
paths = (
{
closed = 1;
nodes = (
"156 0 LINE",
"303 690 LINE",
"157 690 LINE",
"10 0 LINE"
);
},
{
closed = 1;
nodes = (
"250 0 LINE SMOOTH",
"388 0 OFFCURVE",
"496 94 OFFCURVE",
"496 221 CURVE SMOOTH",
"496 316 OFFCURVE",
"428 387 OFFCURVE",
"323 387 CURVE SMOOTH",
"160 387 LINE",
"138 295 LINE",
"299 295 LINE SMOOTH",
"332 295 OFFCURVE",
"353 270 OFFCURVE",
"353 225 CURVE SMOOTH",
"353 172 OFFCURVE",
"312 124 OFFCURVE",
"268 124 CURVE SMOOTH",
"107 124 LINE",
"77 0 LINE"
);
},
{
closed = 1;
nodes = (
"288 329 LINE SMOOTH",
"417 329 OFFCURVE",
"534 414 OFFCURVE",
"534 537 CURVE",
"534 627 OFFCURVE",
"469 690 OFFCURVE",
"368 690 CURVE SMOOTH",
"225 690 LINE",
"194 566 LINE",
"338 566 LINE SMOOTH",
"370 566 OFFCURVE",
"390 542 OFFCURVE",
"390 501 CURVE SMOOTH",
"390 452 OFFCURVE",
"358 405 OFFCURVE",
"310 405 CURVE SMOOTH",
"166 405 LINE",
"147 329 LINE"
);
}
);
userData = {
com.schriftgestaltung.Glyphs.lastChange = "2021-03-03 00:29:32 +0000";
};
width = 545;
},
{
layerId = master03;
paths = (
{
closed = 1;
nodes = (
"99 0 LINE",
"246 690 LINE",
"184 690 LINE",
"37 0 LINE"
);
},
{
closed = 1;
nodes = (
"171 0 LINE SMOOTH",
"342 0 OFFCURVE",
"432 93 OFFCURVE",
"432 216 CURVE SMOOTH",
"432 311 OFFCURVE",
"355 370 OFFCURVE",
"240 370 CURVE SMOOTH",
"146 370 LINE",
"137 330 LINE",
"226 330 LINE SMOOTH",
"315 330 OFFCURVE",
"368 285 OFFCURVE",
"368 211 CURVE SMOOTH",
"368 124 OFFCURVE",
"306 54 OFFCURVE",
"177 54 CURVE SMOOTH",
"78 54 LINE",
"67 0 LINE"
);
},
{
closed = 1;
nodes = (
"213 340 LINE SMOOTH",
"368 340 OFFCURVE",
"466 430 OFFCURVE",
"466 539 CURVE SMOOTH",
"466 632 OFFCURVE",
"391 690 OFFCURVE",
"288 690 CURVE SMOOTH",
"214 690 LINE",
"202 636 LINE",
"271 636 LINE SMOOTH",
"358 636 OFFCURVE",
"400 601 OFFCURVE",
"400 531 CURVE SMOOTH",
"400 457 OFFCURVE",
"333 380 OFFCURVE",
"217 380 CURVE SMOOTH",
"148 380 LINE",
"139 340 LINE"
);
}
);
userData = {
com.schriftgestaltung.Glyphs.lastChange = "2021-03-04 10:55:32 +0000";
};
width = 509;
},
{
layerId = master04;
paths = (
{
closed = 1;
nodes = (
"106 0 LINE",
"253 690 LINE",
"164 690 LINE",
"17 0 LINE"
);
},
{
closed = 1;
nodes = (
"202 0 LINE",
"343 0 OFFCURVE",
"446 95 OFFCURVE",
"446 231 CURVE",
"446 317 OFFCURVE",
"386 369 OFFCURVE",
"290 369 CURVE SMOOTH",
"140 369 LINE",
"125 316 LINE",
"250 316 LINE SMOOTH",
"323 316 OFFCURVE",
"352 278 OFFCURVE",
"352 223 CURVE SMOOTH",
"352 148 OFFCURVE",
"309 78 OFFCURVE",
"199 78 CURVE SMOOTH",
"79 78 LINE",
"60 0 LINE"
);
},
{
closed = 1;
nodes = (
"263 334 LINE SMOOTH",
"385 334 OFFCURVE",
"488 432 OFFCURVE",
"488 547 CURVE SMOOTH",
"488 634 OFFCURVE",
"438 690 OFFCURVE",
"326 690 CURVE SMOOTH",
"206 690 LINE",
"186 612 LINE",
"295 612 LINE SMOOTH",
"366 612 OFFCURVE",
"395 586 OFFCURVE",
"395 527 CURVE SMOOTH",
"395 462 OFFCURVE",
"349 390 OFFCURVE",
"257 390 CURVE SMOOTH",
"144 390 LINE",
"131 334 LINE"
);
}
);
userData = {
com.schriftgestaltung.Glyphs.lastChange = "2021-03-02 23:38:03 +0000";
};
width = 509;
},
{
layerId = master05;
paths = (
{
closed = 1;
nodes = (
"106 0 LINE",
"253 690 LINE",
"191 690 LINE",
"44 0 LINE"
);
},
{
closed = 1;
nodes = (
"252 0 LINE SMOOTH",
"413 0 OFFCURVE",
"523 93 OFFCURVE",
"523 216 CURVE",
"523 311 OFFCURVE",
"446 370 OFFCURVE",
"331 370 CURVE SMOOTH",
"153 370 LINE",
"144 330 LINE",
"317 330 LINE SMOOTH",
"406 330 OFFCURVE",
"459 285 OFFCURVE",
"459 211 CURVE",
"459 124 OFFCURVE",
"387 54 OFFCURVE",
"258 54 CURVE SMOOTH",
"85 54 LINE",
"74 0 LINE"
);
},
{
closed = 1;
nodes = (
"304 340 LINE SMOOTH",
"459 340 OFFCURVE",
"567 430 OFFCURVE",
"567 539 CURVE",
"567 632 OFFCURVE",
"482 690 OFFCURVE",
"379 690 CURVE SMOOTH",
"221 690 LINE",
"209 636 LINE",
"362 636 LINE SMOOTH",
"449 636 OFFCURVE",
"501 601 OFFCURVE",
"501 531 CURVE",
"501 457 OFFCURVE",
"424 380 OFFCURVE",
"308 380 CURVE SMOOTH",
"155 380 LINE",
"146 340 LINE"
);
}
);
userData = {
com.schriftgestaltung.Glyphs.lastChange = "2021-03-03 00:29:23 +0000";
};
width = 604;
},
{
layerId = master06;
paths = (
{
closed = 1;
nodes = (
"132 0 LINE",
"279 690 LINE",
"182 690 LINE",
"35 0 LINE"
);
},
{
closed = 1;
nodes = (
"267 0 LINE SMOOTH",
"429 0 OFFCURVE",
"542 93 OFFCURVE",
"542 218 CURVE",
"542 315 OFFCURVE",
"463 376 OFFCURVE",
"347 376 CURVE SMOOTH",
"161 376 LINE",
"148 315 LINE",
"326 315 LINE SMOOTH",
"399 315 OFFCURVE",
"444 279 OFFCURVE",
"444 216 CURVE",
"444 142 OFFCURVE",
"381 82 OFFCURVE",
"276 82 CURVE SMOOTH",
"98 82 LINE",
"81 0 LINE"
);
},
{
closed = 1;
nodes = (
"317 336 LINE SMOOTH",
"469 336 OFFCURVE",
"583 424 OFFCURVE",
"583 536 CURVE",
"583 630 OFFCURVE",
"501 690 OFFCURVE",
"392 690 CURVE SMOOTH",
"228 690 LINE",
"210 608 LINE",
"368 608 LINE SMOOTH",
"439 608 OFFCURVE",
"483 578 OFFCURVE",
"483 520 CURVE",
"483 455 OFFCURVE",
"420 391 OFFCURVE",
"322 391 CURVE SMOOTH",
"164 391 LINE",
"152 336 LINE"
);
}
);
userData = {
com.schriftgestaltung.Glyphs.lastChange = "2021-03-02 23:45:59 +0000";
};
width = 615;
}
);
leftKerningGroup = H;
unicode = 0042;
},
{
color = 5;
glyphname = C;
layers = (
{
anchors = (
{
name = bottom;
position = "{304, 0}";
},
{
name = top;
position = "{446, 690}";
}
);
layerId = master01;
paths = (
{
closed = 1;
nodes = (
"46 85 OFFCURVE",
"150 -12 OFFCURVE",
"310 -12 CURVE SMOOTH",
"399 -12 OFFCURVE",
"490 20 OFFCURVE",
"562 75 CURVE",
"482 201 LINE",
"440 166 OFFCURVE",
"381 138 OFFCURVE",
"331 138 CURVE SMOOTH",
"258 138 OFFCURVE",
"211 180 OFFCURVE",
"211 272 CURVE SMOOTH",
"211 433 OFFCURVE",
"311 554 OFFCURVE",
"430 554 CURVE SMOOTH",
"480 554 OFFCURVE",
"518 537 OFFCURVE",
"555 502 CURVE",
"669 622 LINE",
"601 677 OFFCURVE",
"537 702 OFFCURVE",
"461 702 CURVE SMOOTH",
"231 702 OFFCURVE",
"46 497 OFFCURVE",
"46 251 CURVE SMOOTH"
);
}
);
userData = {
com.schriftgestaltung.Glyphs.lastChange = "2021-03-02 23:46:34 +0000";
};
width = 631;
},
{
anchors = (
{
name = bottom;
position = "{250, 0}";
},
{
name = top;
position = "{394, 690}";
}
);
layerId = master02;
paths = (
{
closed = 1;
nodes = (
"38 91 OFFCURVE",
"123 -12 OFFCURVE",
"255 -12 CURVE",
"331 -12 OFFCURVE",
"410 27 OFFCURVE",
"467 76 CURVE",
"405 194 LINE",
"363 150 OFFCURVE",
"323 128 OFFCURVE",
"278 128 CURVE",
"226 128 OFFCURVE",
"189 170 OFFCURVE",
"189 258 CURVE",
"189 444 OFFCURVE",
"278 563 OFFCURVE",
"374 563 CURVE",
"414 563 OFFCURVE",
"450 546 OFFCURVE",
"478 514 CURVE",
"582 623 LINE",
"529 678 OFFCURVE",
"465 702 OFFCURVE",
"402 702 CURVE",
"206 702 OFFCURVE",
"38 503 OFFCURVE",
"38 243 CURVE"
);
}
);
userData = {
com.schriftgestaltung.Glyphs.lastChange = "2021-03-03 00:29:32 +0000";
};
width = 544;
},
{
anchors = (
{
name = bottom;
position = "{287, 0}";
},
{
name = top;
position = "{418, 690}";
}
);
layerId = master03;
paths = (
{
closed = 1;
nodes = (
"67 76 OFFCURVE",
"129 -8 OFFCURVE",
"235 -8 CURVE SMOOTH",
"324 -8 OFFCURVE",
"384 29 OFFCURVE",
"441 98 CURVE",
"404 138 LINE",
"358 88 OFFCURVE",
"313 49 OFFCURVE",
"242 49 CURVE SMOOTH",
"165 49 OFFCURVE",
"132 115 OFFCURVE",
"132 236 CURVE SMOOTH",
"132 452 OFFCURVE",
"226 641 OFFCURVE",
"362 641 CURVE SMOOTH",
"405 641 OFFCURVE",
"439 616 OFFCURVE",
"467 569 CURVE",
"517 604 LINE",
"470 672 OFFCURVE",
"428 698 OFFCURVE",
"369 698 CURVE SMOOTH",
"194 698 OFFCURVE",
"67 482 OFFCURVE",
"67 229 CURVE SMOOTH"
);
}
);
userData = {
com.schriftgestaltung.Glyphs.lastChange = "2021-03-04 10:55:32 +0000";
};
width = 516;
},
{
anchors = (
{
name = bottom;
position = "{233, 0}";
},
{
name = top;
position = "{373, 690}";
}
);
layerId = master04;
paths = (
{
closed = 1;
nodes = (
"49 81 OFFCURVE",
"121 -10 OFFCURVE",
"233 -10 CURVE SMOOTH",
"310 -10 OFFCURVE",
"379 28 OFFCURVE",
"439 89 CURVE",
"383 148 LINE",
"343 103 OFFCURVE",
"296 77 OFFCURVE",
"251 77 CURVE SMOOTH",
"180 77 OFFCURVE",
"144 136 OFFCURVE",
"144 251 CURVE SMOOTH",
"144 437 OFFCURVE",
"262 613 OFFCURVE",
"375 613 CURVE SMOOTH",
"412 613 OFFCURVE",
"440 591 OFFCURVE",
"466 548 CURVE",
"540 612 LINE",
"498 672 OFFCURVE",
"449 700 OFFCURVE",
"387 700 CURVE SMOOTH",
"200 700 OFFCURVE",
"49 486 OFFCURVE",
"49 236 CURVE SMOOTH"
);
}
);
userData = {
com.schriftgestaltung.Glyphs.lastChange = "2021-03-02 23:38:03 +0000";
};
width = 516;
},
{
anchors = (
{
name = bottom;
position = "{287, 0}";
},
{
name = top;
position = "{434, 690}";
}
);
layerId = master05;
paths = (
{
closed = 1;
nodes = (
"67 76 OFFCURVE",
"159 -8 OFFCURVE",
"295 -8 CURVE",
"371 -8 OFFCURVE",
"452 23 OFFCURVE",
"521 88 CURVE",
"483 134 LINE",
"429 81 OFFCURVE",
"365 49 OFFCURVE",
"302 49 CURVE",
"195 49 OFFCURVE",
"132 115 OFFCURVE",
"132 236 CURVE",
"132 452 OFFCURVE",
"276 641 OFFCURVE",
"432 641 CURVE SMOOTH",
"496 641 OFFCURVE",
"542 616 OFFCURVE",
"571 568 CURVE",
"625 602 LINE",
"579 667 OFFCURVE",
"521 698 OFFCURVE",
"439 698 CURVE SMOOTH",
"244 698 OFFCURVE",
"67 482 OFFCURVE",
"67 229 CURVE"
);
}
);
userData = {
com.schriftgestaltung.Glyphs.lastChange = "2021-03-03 00:29:23 +0000";
};
width = 622;
},
{
anchors = (
{
name = bottom;
position = "{297, 0}";
},
{
name = top;
position = "{434, 690}";
}
);
layerId = master06;
paths = (
{
closed = 1;
nodes = (
"60 79 OFFCURVE",
"156 -10 OFFCURVE",
"301 -10 CURVE",
"382 -10 OFFCURVE",
"466 22 OFFCURVE",
"536 83 CURVE",
"483 158 LINE",
"434 111 OFFCURVE",
"371 80 OFFCURVE",
"313 80 CURVE",
"218 80 OFFCURVE",
"161 138 OFFCURVE",
"161 249 CURVE",
"161 445 OFFCURVE",
"289 610 OFFCURVE",
"432 610 CURVE SMOOTH",
"491 610 OFFCURVE",
"534 588 OFFCURVE",
"566 545 CURVE",
"641 609 LINE",
"587 671 OFFCURVE",
"527 700 OFFCURVE",
"447 700 CURVE SMOOTH",
"240 700 OFFCURVE",
"60 487 OFFCURVE",
"60 237 CURVE"
);
}
);
userData = {
com.schriftgestaltung.Glyphs.lastChange = "2021-03-02 23:45:59 +0000";
};
width = 626;
}
);
leftKerningGroup = O;
rightKerningGroup = C;
unicode = 0043;
},
{
color = 5;
glyphname = D;
layers = (
{
anchors = (
{
name = top;
position = "{396, 690}";
}
);
layerId = master01;
paths = (
{
closed = 1;
nodes = (
"172 0 LINE",
"319 690 LINE",
"159 690 LINE",
"12 0 LINE"
);
},
{
closed = 1;
nodes = (
"249 0 LINE SMOOTH",
"493 0 OFFCURVE",
"682 188 OFFCURVE",
"683 429 CURVE SMOOTH",
"684 591 OFFCURVE",
"570 690 OFFCURVE",
"406 690 CURVE SMOOTH",
"233 690 LINE",
"203 550 LINE",
"370 550 LINE SMOOTH",
"460 550 OFFCURVE",
"517 498 OFFCURVE",
"518 408 CURVE",
"517 260 OFFCURVE",
"397 140 OFFCURVE",
"265 140 CURVE SMOOTH",
"116 140 LINE",
"86 0 LINE"
);
}
);
userData = {
com.schriftgestaltung.Glyphs.lastChange = "2021-03-03 00:21:50 +0000";
};
width = 704;
},
{
anchors = (
{
name = top;
position = "{362, 690}";
}
);
layerId = master02;
paths = (
{
closed = 1;
nodes = (
"156 0 LINE",
"303 690 LINE",
"157 690 LINE",
"10 0 LINE"
);
},
{
closed = 1;
nodes = (
"216 0 LINE SMOOTH",
"421 0 OFFCURVE",
"599 188 OFFCURVE",
"599 434 CURVE",
"599 591 OFFCURVE",
"507 690 OFFCURVE",
"370 690 CURVE SMOOTH",
"225 690 LINE",
"193 556 LINE",
"336 556 LINE SMOOTH",
"406 556 OFFCURVE",
"448 503 OFFCURVE",
"448 414 CURVE",
"441 258 OFFCURVE",
"339 134 OFFCURVE",
"236 134 CURVE SMOOTH",
"109 134 LINE",
"77 0 LINE"
);
}
);
userData = {
com.schriftgestaltung.Glyphs.lastChange = "2021-03-03 00:29:32 +0000";
};
width = 611;
},
{
anchors = (
{
name = top;
position = "{325, 690}";
}
);
layerId = master03;
paths = (
{
closed = 1;
nodes = (
"86 0 LINE",
"233 690 LINE",
"171 690 LINE",
"24 0 LINE"
);
},
{
closed = 1;
nodes = (
"138 0 LINE SMOOTH",
"373 0 OFFCURVE",
"520 193 OFFCURVE",
"520 444 CURVE SMOOTH",
"520 591 OFFCURVE",
"435 690 OFFCURVE",
"279 690 CURVE SMOOTH",
"201 690 LINE",
"189 636 LINE",
"272 636 LINE SMOOTH",
"398 636 OFFCURVE",
"456 562 OFFCURVE",
"456 434 CURVE SMOOTH",
"456 227 OFFCURVE",
"331 54 OFFCURVE",
"145 54 CURVE SMOOTH",
"65 54 LINE",
"54 0 LINE"
);
}
);
userData = {
com.schriftgestaltung.Glyphs.lastChange = "2021-03-08 19:51:11 +0000";
};
width = 560;
},
{
anchors = (
{
name = top;
position = "{337, 690}";
}
);
layerId = master04;
paths = (
{
closed = 1;
nodes = (
"106 0 LINE",
"253 690 LINE",
"164 690 LINE",
"17 0 LINE"
);
},
{
closed = 1;
nodes = (
"173 0 LINE SMOOTH",
"397 0 OFFCURVE",
"538 210 OFFCURVE",
"538 452 CURVE SMOOTH",
"538 580 OFFCURVE",
"461 690 OFFCURVE",
"306 690 CURVE SMOOTH",
"206 690 LINE",
"185 608 LINE",
"295 608 LINE SMOOTH",
"389 608 OFFCURVE",
"447 551 OFFCURVE",
"447 435 CURVE SMOOTH",
"447 245 OFFCURVE",
"341 82 OFFCURVE",
"176 82 CURVE SMOOTH",
"80 82 LINE",
"60 0 LINE"
);
}
);
userData = {
com.schriftgestaltung.Glyphs.lastChange = "2021-03-02 23:38:03 +0000";
};
width = 560;
},
{
anchors = (
{
name = top;
position = "{365, 690}";
}
);
layerId = master05;
paths = (
{
closed = 1;
nodes = (
"106 0 LINE",
"253 690 LINE",
"191 690 LINE",
"44 0 LINE"
);
},
{
closed = 1;
nodes = (
"218 0 LINE SMOOTH",
"463 0 OFFCURVE",
"630 193 OFFCURVE",
"630 444 CURVE SMOOTH",
"630 591 OFFCURVE",
"525 690 OFFCURVE",
"359 690 CURVE SMOOTH",
"221 690 LINE",
"209 636 LINE",
"352 636 LINE SMOOTH",
"488 636 OFFCURVE",
"565 562 OFFCURVE",
"565 434 CURVE SMOOTH",
"565 227 OFFCURVE",
"421 54 OFFCURVE",
"225 54 CURVE SMOOTH",
"85 54 LINE",
"74 0 LINE"
);
}
);
userData = {
com.schriftgestaltung.Glyphs.lastChange = "2021-03-03 00:29:23 +0000";
};
width = 674;
},
{
anchors = (
{
name = top;
position = "{391, 690}";
}
);
layerId = master06;
paths = (
{
closed = 1;
nodes = (
"132 0 LINE",
"279 690 LINE",
"182 690 LINE",
"35 0 LINE"
);
},
{
closed = 1;
nodes = (
"231 0 LINE SMOOTH",
"476 0 OFFCURVE",
"651 191 OFFCURVE",
"651 439 CURVE SMOOTH",
"652 591 OFFCURVE",
"544 690 OFFCURVE",
"378 690 CURVE SMOOTH",
"228 690 LINE",
"209 605 LINE",
"361 605 LINE SMOOTH",
"481 605 OFFCURVE",
"550 539 OFFCURVE",
"551 425 CURVE SMOOTH",
"550 239 OFFCURVE",
"415 85 OFFCURVE",
"242 85 CURVE SMOOTH",
"98 85 LINE",
"81 0 LINE"
);
}
);
userData = {
com.schriftgestaltung.Glyphs.lastChange = "2021-03-02 23:45:59 +0000";
};
width = 687;
}
);
leftKerningGroup = H;
rightKerningGroup = O;
unicode = 0044;
},
{
color = 5;
glyphname = Eth;
layers = (
{
layerId = master01;
paths = (
{
closed = 1;
nodes = (
"369 273 LINE",
"398 407 LINE",
"52 407 LINE",
"23 273 LINE"
);
},
{
closed = 1;
nodes = (
"177 0 LINE",
"324 690 LINE",
"164 690 LINE",
"17 0 LINE"
);
},
{
closed = 1;
nodes = (
"254 0 LINE SMOOTH",
"498 0 OFFCURVE",
"687 188 OFFCURVE",
"688 429 CURVE SMOOTH",
"689 591 OFFCURVE",
"575 690 OFFCURVE",
"411 690 CURVE SMOOTH",
"238 690 LINE",
"208 550 LINE",
"375 550 LINE SMOOTH",
"465 550 OFFCURVE",
"523 498 OFFCURVE",
"523 408 CURVE SMOOTH",
"523 260 OFFCURVE",
"402 140 OFFCURVE",
"270 140 CURVE SMOOTH",
"121 140 LINE",
"91 0 LINE"
);
}
);
userData = {
com.schriftgestaltung.Glyphs.lastChange = "2021-03-02 23:46:34 +0000";
};
width = 709;
},
{
layerId = master02;
paths = (
{
closed = 1;
nodes = (
"324 277 LINE",
"351 404 LINE",
"56 404 LINE",
"29 277 LINE"
);
},
{
closed = 1;
nodes = (
"156 0 LINE",
"303 690 LINE",
"157 690 LINE",
"10 0 LINE"
);
},
{
closed = 1;
nodes = (
"216 0 LINE SMOOTH",
"421 0 OFFCURVE",
"599 188 OFFCURVE",
"599 434 CURVE SMOOTH",
"599 591 OFFCURVE",
"507 690 OFFCURVE",
"370 690 CURVE SMOOTH",
"225 690 LINE",
"193 556 LINE",
"336 556 LINE SMOOTH",
"406 556 OFFCURVE",
"448 503 OFFCURVE",
"448 414 CURVE SMOOTH",
"448 258 OFFCURVE",
"339 134 OFFCURVE",
"236 134 CURVE SMOOTH",
"109 134 LINE",
"77 0 LINE"
);
}
);
userData = {
com.schriftgestaltung.Glyphs.lastChange = "2021-03-03 00:29:32 +0000";
};
width = 611;
},
{
layerId = master03;
paths = (
{
closed = 1;
nodes = (
"263 317 LINE",
"274 367 LINE",
"49 367 LINE",
"38 317 LINE"
);
},
{
closed = 1;
nodes = (
"111 0 LINE",
"258 690 LINE",
"196 690 LINE",
"49 0 LINE"
);
},
{
closed = 1;
nodes = (
"163 0 LINE SMOOTH",
"408 0 OFFCURVE",
"545 193 OFFCURVE",
"545 444 CURVE SMOOTH",
"545 581 OFFCURVE",
"470 690 OFFCURVE",
"304 690 CURVE SMOOTH",
"226 690 LINE",
"214 636 LINE",
"297 636 LINE SMOOTH",
"433 636 OFFCURVE",
"480 552 OFFCURVE",
"480 434 CURVE SMOOTH",
"480 227 OFFCURVE",
"366 54 OFFCURVE",
"170 54 CURVE SMOOTH",
"90 54 LINE",
"79 0 LINE"
);
}
);
userData = {
com.schriftgestaltung.Glyphs.lastChange = "2021-03-04 10:55:32 +0000";
};
width = 570;
},
{
layerId = master04;
paths = (
{
closed = 1;
nodes = (
"282 310 LINE",
"297 382 LINE",
"49 382 LINE",
"34 310 LINE"
);
},
{
closed = 1;
nodes = (
"116 0 LINE",
"263 690 LINE",
"174 690 LINE",
"27 0 LINE"
);
},
{
closed = 1;
nodes = (
"183 0 LINE SMOOTH",
"407 0 OFFCURVE",
"548 210 OFFCURVE",
"548 452 CURVE SMOOTH",
"548 580 OFFCURVE",
"471 690 OFFCURVE",
"316 690 CURVE SMOOTH",
"216 690 LINE",
"195 608 LINE",
"305 608 LINE SMOOTH",
"399 608 OFFCURVE",
"457 551 OFFCURVE",
"457 435 CURVE SMOOTH",
"457 245 OFFCURVE",
"351 82 OFFCURVE",
"186 82 CURVE SMOOTH",
"90 82 LINE",
"70 0 LINE"
);
}
);
userData = {
com.schriftgestaltung.Glyphs.lastChange = "2021-03-02 23:38:03 +0000";
};
width = 570;
},
{
layerId = master05;
paths = (
{
closed = 1;
nodes = (
"298 317 LINE",
"309 367 LINE",
"24 367 LINE",
"13 317 LINE"
);
},
{
closed = 1;
nodes = (
"116 0 LINE",
"263 690 LINE",
"201 690 LINE",
"54 0 LINE"
);
},
{
closed = 1;
nodes = (
"228 0 LINE SMOOTH",
"473 0 OFFCURVE",
"640 193 OFFCURVE",
"640 444 CURVE SMOOTH",
"640 591 OFFCURVE",
"535 690 OFFCURVE",
"369 690 CURVE SMOOTH",
"231 690 LINE",
"219 636 LINE",
"362 636 LINE SMOOTH",
"498 636 OFFCURVE",
"575 562 OFFCURVE",
"575 434 CURVE SMOOTH",
"575 227 OFFCURVE",
"431 54 OFFCURVE",
"235 54 CURVE SMOOTH",
"95 54 LINE",
"84 0 LINE"
);
}
);
userData = {
com.schriftgestaltung.Glyphs.lastChange = "2021-03-03 00:29:23 +0000";
};
width = 684;
},
{
layerId = master06;
paths = (
{
closed = 1;
nodes = (
"358 308 LINE",
"374 383 LINE",
"53 383 LINE",
"37 308 LINE"
);
},
{
closed = 1;
nodes = (
"142 0 LINE",
"289 690 LINE",
"192 690 LINE",
"45 0 LINE"
);
},
{
closed = 1;
nodes = (
"241 0 LINE SMOOTH",
"486 0 OFFCURVE",
"661 191 OFFCURVE",
"661 439 CURVE SMOOTH",
"662 591 OFFCURVE",
"554 690 OFFCURVE",
"388 690 CURVE SMOOTH",
"238 690 LINE",
"219 605 LINE",
"371 605 LINE SMOOTH",
"491 605 OFFCURVE",
"560 539 OFFCURVE",
"561 425 CURVE SMOOTH",
"560 239 OFFCURVE",
"425 85 OFFCURVE",
"252 85 CURVE SMOOTH",
"108 85 LINE",
"91 0 LINE"
);
}
);
userData = {
com.schriftgestaltung.Glyphs.lastChange = "2021-03-02 23:45:59 +0000";
};
width = 698;
}
);
leftKerningGroup = H;
rightKerningGroup = O;
unicode = 00D0;
},
{
color = 5;
glyphname = E;
layers = (
{
anchors = (
{
name = bottom;
position = "{263, 0}";
},
{
name = ogonek;
position = "{382, 0}";
},
{
name = top;
position = "{392, 690}";
}
);
layerId = master01;
paths = (
{
closed = 1;
nodes = (
"172 0 LINE",
"319 690 LINE",
"159 690 LINE",
"12 0 LINE"
);
},
{
closed = 1;
nodes = (
"502 0 LINE",
"532 140 LINE",
"116 140 LINE",
"86 0 LINE"
);
},
{
closed = 1;
nodes = (
"510 282 LINE",
"538 414 LINE",
"174 414 LINE",
"146 282 LINE"
);
},
{
closed = 1;
nodes = (
"614 550 LINE",
"644 690 LINE",
"233 690 LINE",
"203 550 LINE"
);
}
);
userData = {
com.schriftgestaltung.Glyphs.lastChange = "2021-03-02 23:46:34 +0000";
};
width = 607;
},
{
anchors = (
{
name = bottom;
position = "{226, 0}";
},
{
name = ogonek;
position = "{432, 0}";
},
{
name = top;
position = "{356, 690}";
}
);
layerId = master02;
paths = (
{
closed = 1;
nodes = (
"156 0 LINE",
"303 690 LINE",
"157 690 LINE",
"10 0 LINE"
);
},
{
closed = 1;
nodes = (
"432 0 LINE",
"460 134 LINE",
"107 134 LINE",
"79 0 LINE"
);
},
{
closed = 1;
nodes = (
"448 285 LINE",
"474 411 LINE",
"165 411 LINE",
"139 285 LINE"
);
},
{
closed = 1;
nodes = (
"545 556 LINE",
"574 690 LINE",
"225 690 LINE",
"196 556 LINE"
);
}
);
userData = {
com.schriftgestaltung.Glyphs.lastChange = "2021-03-08 00:48:45 +0000";
};
width = 537;
},
{
anchors = (
{
name = bottom;
position = "{215, 0}";
},
{
name = ogonek;
position = "{366, 0}";
},
{
name = top;
position = "{349, 690}";
}
);
layerId = master03;
paths = (
{
closed = 1;
nodes = (
"92 0 LINE",
"239 690 LINE",
"177 690 LINE",
"30 0 LINE"
);
},
{
closed = 1;
nodes = (
"366 0 LINE",
"377 54 LINE",
"71 54 LINE",
"60 0 LINE"
);
},
{
closed = 1;
nodes = (
"383 322 LINE",
"394 374 LINE",
"139 374 LINE",
"128 322 LINE"
);
},
{
closed = 1;
nodes = (
"496 636 LINE",
"508 690 LINE",
"207 690 LINE",
"195 636 LINE"
);
}
);
userData = {
com.schriftgestaltung.Glyphs.lastChange = "2021-03-07 23:26:36 +0000";
};
width = 498;
},
{
anchors = (
{
name = bottom;
position = "{202, 0}";
},
{
name = ogonek;
position = "{382, 0}";
},
{
name = top;
position = "{343, 690}";
}
);
layerId = master04;
paths = (
{
closed = 1;
nodes = (
"106 0 LINE",
"253 690 LINE",
"164 690 LINE",
"17 0 LINE"
);
},
{
closed = 1;
nodes = (
"382 0 LINE",
"399 82 LINE",
"80 82 LINE",
"60 0 LINE"
);
},
{
closed = 1;
nodes = (
"406 309 LINE",
"422 387 LINE",
"143 387 LINE",
"124 309 LINE"
);
},
{
closed = 1;
nodes = (
"505 608 LINE",
"521 690 LINE",
"206 690 LINE",
"185 608 LINE"
);
}
);
userData = {
com.schriftgestaltung.Glyphs.lastChange = "2021-03-07 23:27:15 +0000";
};
width = 498;
},
{
anchors = (
{
name = bottom;
position = "{245, 0}";
},
{
name = ogonek;
position = "{404, 0}";
},
{
name = top;
position = "{397, 690}";
}
);
layerId = master05;
paths = (
{
closed = 1;
nodes = (
"106 0 LINE",
"253 690 LINE",
"191 690 LINE",
"44 0 LINE"
);
},
{
closed = 1;
nodes = (
"460 0 LINE",
"471 54 LINE",
"85 54 LINE",
"74 0 LINE"
);
},
{
closed = 1;
nodes = (
"477 322 LINE",
"488 374 LINE",
"153 374 LINE",
"142 322 LINE"
);
},
{
closed = 1;
nodes = (
"590 636 LINE",
"602 690 LINE",
"221 690 LINE",
"209 636 LINE"
);
}
);
userData = {
com.schriftgestaltung.Glyphs.lastChange = "2021-03-03 00:29:23 +0000";
};
width = 586;
},
{
anchors = (
{
name = bottom;
position = "{259, 0}";
},
{
name = ogonek;
position = "{396, 0}";
},
{
name = top;
position = "{403, 690}";
}
);
layerId = master06;
paths = (
{
closed = 1;
nodes = (
"132 0 LINE",
"279 690 LINE",
"182 690 LINE",
"35 0 LINE"
);
},
{
closed = 1;
nodes = (
"477 0 LINE",
"495 85 LINE",
"99 85 LINE",
"81 0 LINE"
);
},
{
closed = 1;
nodes = (
"491 308 LINE",
"509 388 LINE",
"163 388 LINE",
"146 308 LINE"
);
},
{
closed = 1;
nodes = (
"601 605 LINE",
"619 690 LINE",
"227 690 LINE",
"209 605 LINE"
);
}
);
userData = {
com.schriftgestaltung.Glyphs.lastChange = "2021-03-02 23:45:59 +0000";
};
width = 603;
}
);
leftKerningGroup = H;
rightKerningGroup = E;
unicode = 0045;
},
{
color = 5;
glyphname = F;
layers = (
{
layerId = master01;
paths = (
{
closed = 1;
nodes = (
"172 0 LINE",
"319 690 LINE",
"159 690 LINE",
"12 0 LINE"
);
},
{
closed = 1;
nodes = (
"495 247 LINE",
"524 387 LINE",
"168 387 LINE",
"139 247 LINE"
);
},
{
closed = 1;
nodes = (
"599 550 LINE",
"629 690 LINE",
"233 690 LINE",
"203 550 LINE"
);
}
);
userData = {
com.schriftgestaltung.Glyphs.lastChange = "2021-03-02 23:46:34 +0000";
};
width = 570;
},
{
layerId = master02;
paths = (
{
closed = 1;
nodes = (
"156 0 LINE",
"303 690 LINE",
"157 690 LINE",
"10 0 LINE"
);
},
{
closed = 1;
nodes = (
"433 251 LINE",
"462 385 LINE",
"160 385 LINE",
"131 251 LINE"
);
},
{
closed = 1;
nodes = (
"532 556 LINE",
"561 690 LINE",
"225 690 LINE",
"196 556 LINE"
);
}
);
userData = {
com.schriftgestaltung.Glyphs.lastChange = "2021-03-03 00:29:32 +0000";
};
width = 509;
},
{
layerId = master03;
paths = (
{
closed = 1;
nodes = (
"96 0 LINE",
"243 690 LINE",
"181 690 LINE",
"34 0 LINE"
);
},
{
closed = 1;
nodes = (
"388 301 LINE",
"399 355 LINE",
"139 355 LINE",
"128 301 LINE"
);
},
{
closed = 1;
nodes = (
"497 636 LINE",
"509 690 LINE",
"211 690 LINE",
"199 636 LINE"
);
}
);
userData = {
com.schriftgestaltung.Glyphs.lastChange = "2021-03-04 10:55:32 +0000";
};
width = 457;
},
{
layerId = master04;
paths = (
{
closed = 1;
nodes = (
"106 0 LINE",
"253 690 LINE",
"164 690 LINE",
"17 0 LINE"
);
},
{
closed = 1;
nodes = (
"395 284 LINE",
"413 365 LINE",
"138 365 LINE",
"118 284 LINE"
);
},
{
closed = 1;
nodes = (
"493 608 LINE",
"511 690 LINE",
"206 690 LINE",
"185 608 LINE"
);
}
);
userData = {
com.schriftgestaltung.Glyphs.lastChange = "2021-03-08 20:44:03 +0000";
};
width = 457;
},
{
layerId = master05;
paths = (
{
closed = 1;
nodes = (
"106 0 LINE",
"253 690 LINE",
"191 690 LINE",
"44 0 LINE"
);
},
{
closed = 1;
nodes = (
"468 301 LINE",
"479 355 LINE",
"149 355 LINE",
"138 301 LINE"
);
},
{
closed = 1;
nodes = (
"577 636 LINE",
"589 690 LINE",
"221 690 LINE",
"209 636 LINE"
);
}
);
userData = {
com.schriftgestaltung.Glyphs.lastChange = "2021-03-03 00:29:23 +0000";
};
width = 549;
},
{
layerId = master06;
paths = (
{
closed = 1;
nodes = (
"132 0 LINE",
"279 690 LINE",
"182 690 LINE",
"35 0 LINE"
);
},
{
closed = 1;
nodes = (
"480 282 LINE",
"498 366 LINE",
"159 366 LINE",
"141 282 LINE"
);
},
{
closed = 1;
nodes = (
"587 605 LINE",
"605 690 LINE",
"227 690 LINE",
"209 605 LINE"
);
}
);
userData = {
com.schriftgestaltung.Glyphs.lastChange = "2021-03-02 23:45:59 +0000";
};
width = 563;
}
);
leftKerningGroup = H;
unicode = 0046;
},
{
color = 5;
glyphname = G;
layers = (
{
anchors = (
{
name = bottom;
position = "{314, 0}";
},
{
name = top;
position = "{451, 690}";
}
);
layerId = master01;
paths = (
{
closed = 1;
nodes = (
"46 85 OFFCURVE",
"154 -12 OFFCURVE",
"320 -12 CURVE SMOOTH",
"418 -12 OFFCURVE",
"527 26 OFFCURVE",
"597 81 CURVE",
"502 165 LINE",
"464 141 OFFCURVE",
"401 122 OFFCURVE",
"351 122 CURVE",
"262 122 OFFCURVE",
"211 173 OFFCURVE",
"211 272 CURVE SMOOTH",
"211 433 OFFCURVE",
"313 554 OFFCURVE",
"435 554 CURVE SMOOTH",
"487 554 OFFCURVE",
"527 537 OFFCURVE",
"565 502 CURVE",
"679 622 LINE",
"609 677 OFFCURVE",
"540 702 OFFCURVE",
"466 702 CURVE SMOOTH",
"233 702 OFFCURVE",
"46 497 OFFCURVE",
"46 251 CURVE SMOOTH"
);
},
{
closed = 1;
nodes = (
"565 249 LINE",
"593 382 LINE",
"377 382 LINE",
"349 249 LINE"
);
},
{
closed = 1;
nodes = (
"597 81 LINE",
"661 382 LINE",
"507 382 LINE",
"441 70 LINE"
);
}
);
userData = {
com.schriftgestaltung.Glyphs.lastChange = "2021-03-02 23:46:34 +0000";
};
width = 694;
},
{
anchors = (
{
name = bottom;
position = "{257, 0}";
},
{
name = top;
position = "{399, 690}";
}
);
layerId = master02;
paths = (
{
closed = 1;
nodes = (
"32 85 OFFCURVE",
"128 -12 OFFCURVE",
"275 -12 CURVE",
"355 -12 OFFCURVE",
"443 26 OFFCURVE",
"504 81 CURVE",
"420 163 LINE",
"390 137 OFFCURVE",
"342 115 OFFCURVE",
"302 115 CURVE",
"229 115 OFFCURVE",
"185 164 OFFCURVE",
"189 258 CURVE",
"189 444 OFFCURVE",
"284 563 OFFCURVE",
"380 563 CURVE",
"420 563 OFFCURVE",
"458 546 OFFCURVE",
"486 514 CURVE",
"590 623 LINE",
"537 678 OFFCURVE",
"471 702 OFFCURVE",
"408 702 CURVE",
"212 702 OFFCURVE",
"38 503 OFFCURVE",
"38 243 CURVE"
);
},
{
closed = 1;
nodes = (
"478 251 LINE",
"508 378 LINE",
"323 378 LINE",
"296 251 LINE"
);
},
{
closed = 1;
nodes = (
"504 81 LINE",
"567 378 LINE",
"429 378 LINE",
"364 71 LINE"
);
}
);
userData = {
com.schriftgestaltung.Glyphs.lastChange = "2021-03-03 00:29:32 +0000";
};
width = 596;
},
{
anchors = (
{
name = bottom;
position = "{265, 0}";
},
{
name = top;
position = "{355, 690}";
}
);
layerId = master03;
paths = (
{
closed = 1;
nodes = (
"67 79 OFFCURVE",
"152 -8 OFFCURVE",
"247 -8 CURVE SMOOTH",
"326 -8 OFFCURVE",
"396 20 OFFCURVE",
"451 87 CURVE",
"413 128 LINE",
"363 69 OFFCURVE",
"320 52 OFFCURVE",
"256 52 CURVE SMOOTH",
"193 52 OFFCURVE",
"132 116 OFFCURVE",
"132 236 CURVE SMOOTH",
"132 452 OFFCURVE",
"246 641 OFFCURVE",
"364 641 CURVE SMOOTH",
"412 641 OFFCURVE",
"460 609 OFFCURVE",
"495 563 CURVE",
"541 603 LINE",
"496 662 OFFCURVE",
"442 698 OFFCURVE",
"371 698 CURVE SMOOTH",
"207 698 OFFCURVE",
"67 482 OFFCURVE",
"67 229 CURVE SMOOTH"
);
},
{
closed = 1;
nodes = (
"462 276 LINE",
"473 330 LINE",
"350 330 LINE",
"339 276 LINE"
);
},
{
closed = 1;
nodes = (
"451 87 LINE",
"503 330 LINE",
"441 330 LINE",
"389 87 LINE"
);
}
);
userData = {
com.schriftgestaltung.Glyphs.lastChange = "2021-03-04 10:55:32 +0000";
};
width = 556;
},
{
anchors = (
{
name = bottom;
position = "{246, 0}";
},
{
name = top;
position = "{374, 690}";
}
);
layerId = master04;
paths = (
{
closed = 1;
nodes = (
"49 81 OFFCURVE",
"121 -10 OFFCURVE",
"233 -10 CURVE SMOOTH",
"316 -10 OFFCURVE",
"391 27 OFFCURVE",
"455 85 CURVE",
"393 141 LINE",
"349 99 OFFCURVE",
"299 75 OFFCURVE",
"251 75 CURVE SMOOTH",
"180 75 OFFCURVE",
"144 135 OFFCURVE",
"144 251 CURVE SMOOTH",
"144 437 OFFCURVE",
"263 613 OFFCURVE",
"375 613 CURVE SMOOTH",
"413 613 OFFCURVE",
"440 591 OFFCURVE",
"466 548 CURVE",
"540 612 LINE",
"498 672 OFFCURVE",
"449 700 OFFCURVE",
"387 700 CURVE SMOOTH",
"200 700 OFFCURVE",
"49 486 OFFCURVE",
"49 236 CURVE SMOOTH"
);
},
{
closed = 1;
nodes = (
"453 267 LINE",
"472 346 LINE",
"312 346 LINE",
"295 267 LINE"
);
},
{
closed = 1;
nodes = (
"455 85 LINE",
"511 346 LINE",
"422 346 LINE",
"365 82 LINE"
);
}
);
userData = {
com.schriftgestaltung.Glyphs.lastChange = "2021-03-08 20:44:03 +0000";
};
width = 556;
},
{
anchors = (
{
name = bottom;
position = "{305, 0}";
},
{
name = top;
position = "{435, 690}";
}
);
layerId = master05;
paths = (
{
closed = 1;
nodes = (
"67 79 OFFCURVE",
"164 -8 OFFCURVE",
"297 -8 CURVE",
"376 -8 OFFCURVE",
"467 22 OFFCURVE",
"541 87 CURVE",
"503 128 LINE",
"445 75 OFFCURVE",
"370 48 OFFCURVE",
"304 48 CURVE",
"200 48 OFFCURVE",
"132 118 OFFCURVE",
"132 236 CURVE SMOOTH",
"132 452 OFFCURVE",
"273 641 OFFCURVE",
"432 641 CURVE SMOOTH",
"498 641 OFFCURVE",
"546 616 OFFCURVE",
"576 568 CURVE",
"630 602 LINE",
"583 667 OFFCURVE",
"523 698 OFFCURVE",
"439 698 CURVE SMOOTH",
"241 698 OFFCURVE",
"67 482 OFFCURVE",
"67 229 CURVE SMOOTH"
);
},
{
closed = 1;
nodes = (
"552 276 LINE",
"563 330 LINE",
"380 330 LINE",
"369 276 LINE"
);
},
{
closed = 1;
nodes = (
"541 87 LINE",
"593 330 LINE",
"531 330 LINE",
"479 87 LINE"
);
}
);
userData = {
com.schriftgestaltung.Glyphs.lastChange = "2021-03-03 00:29:23 +0000";
};
width = 663;
},
{
anchors = (
{
name = bottom;
position = "{342, 0}";
},
{
name = top;
position = "{435, 690}";
}
);
layerId = master06;
paths = (
{
closed = 1;
nodes = (
"60 81 OFFCURVE",
"161 -10 OFFCURVE",
"306 -10 CURVE",
"392 -10 OFFCURVE",
"489 23 OFFCURVE",
"562 85 CURVE",
"503 143 LINE",
"452 101 OFFCURVE",
"382 76 OFFCURVE",
"321 76 CURVE",
"223 76 OFFCURVE",
"161 138 OFFCURVE",
"161 249 CURVE SMOOTH",
"161 445 OFFCURVE",
"288 610 OFFCURVE",
"434 610 CURVE SMOOTH",
"495 610 OFFCURVE",
"540 588 OFFCURVE",
"573 545 CURVE",
"648 609 LINE",
"593 671 OFFCURVE",
"530 700 OFFCURVE",
"449 700 CURVE SMOOTH",
"239 700 OFFCURVE",
"60 487 OFFCURVE",
"60 237 CURVE SMOOTH"
);
},
{
closed = 1;
nodes = (
"557 266 LINE",
"574 348 LINE",
"380 348 LINE",
"363 266 LINE"
);
},
{
closed = 1;
nodes = (
"562 85 LINE",
"618 348 LINE",
"523 348 LINE",
"466 81 LINE"
);
}
);
userData = {
com.schriftgestaltung.Glyphs.lastChange = "2021-03-08 20:42:53 +0000";
};
width = 680;
}
);
leftKerningGroup = O;
rightKerningGroup = G;
unicode = 0047;
},
{
color = 5;
glyphname = H;
layers = (
{
anchors = (
{
name = top;
position = "{451, 690}";
}
);
layerId = master01;
paths = (
{
closed = 1;
nodes = (
"172 0 LINE",
"319 690 LINE",
"159 690 LINE",
"12 0 LINE"
);
},
{
closed = 1;
nodes = (
"581 278 LINE",
"611 418 LINE",
"175 418 LINE",
"145 278 LINE"
);
},
{
closed = 1;
nodes = (
"596 0 LINE",
"743 690 LINE",
"583 690 LINE",
"436 0 LINE"
);
}
);
userData = {
com.schriftgestaltung.Glyphs.lastChange = "2021-03-02 23:46:34 +0000";
};
width = 728;
},
{
anchors = (
{
name = top;
position = "{409, 690}";
}
);
layerId = master02;
paths = (
{
closed = 1;
nodes = (
"156 0 LINE",
"303 690 LINE",
"157 690 LINE",
"10 0 LINE"
);
},
{
closed = 1;
nodes = (
"502 281 LINE",
"530 415 LINE",
"164 415 LINE",
"136 281 LINE"
);
},
{
closed = 1;
nodes = (
"511 0 LINE",
"658 690 LINE",
"512 690 LINE",
"365 0 LINE"
);
}
);
userData = {
com.schriftgestaltung.Glyphs.lastChange = "2021-03-03 00:29:32 +0000";
};
width = 641;
},
{
anchors = (
{
name = top;
position = "{373, 690}";
}
);
layerId = master03;
paths = (
{
closed = 1;
nodes = (
"88 0 LINE",
"235 690 LINE",
"173 690 LINE",
"26 0 LINE"
);
},
{
closed = 1;
nodes = (
"471 321 LINE",
"483 375 LINE",
"136 375 LINE",
"124 321 LINE"
);
},
{
closed = 1;
nodes = (
"433 0 LINE",
"580 690 LINE",
"518 690 LINE",
"371 0 LINE"
);
}
);
userData = {
com.schriftgestaltung.Glyphs.lastChange = "2021-03-04 10:59:49 +0000";
};
width = 578;
},
{
anchors = (
{
name = top;
position = "{377, 690}";
}
);
layerId = master04;
paths = (
{
closed = 1;
nodes = (
"106 0 LINE",
"253 690 LINE",
"164 690 LINE",
"17 0 LINE"
);
},
{
closed = 1;
nodes = (
"472 308 LINE",
"493 388 LINE",
"144 388 LINE",
"124 308 LINE"
);
},
{
closed = 1;
nodes = (
"451 0 LINE",
"598 690 LINE",
"509 690 LINE",
"362 0 LINE"
);
}
);
userData = {
com.schriftgestaltung.Glyphs.lastChange = "2021-03-02 23:38:03 +0000";
};
width = 588;
},
{
anchors = (
{
name = top;
position = "{439, 690}";
}
);
layerId = master05;
paths = (
{
closed = 1;
nodes = (
"106 0 LINE",
"253 690 LINE",
"191 690 LINE",
"44 0 LINE"
);
},
{
closed = 1;
nodes = (
"578 321 LINE",
"590 375 LINE",
"154 375 LINE",
"142 321 LINE"
);
},
{
closed = 1;
nodes = (
"540 0 LINE",
"687 690 LINE",
"625 690 LINE",
"478 0 LINE"
);
}
);
userData = {
com.schriftgestaltung.Glyphs.lastChange = "2021-03-03 00:29:23 +0000";
};
width = 704;
},
{
anchors = (
{
name = top;
position = "{440, 690}";
}
);
layerId = master06;
paths = (
{
closed = 1;
nodes = (
"132 0 LINE",
"279 690 LINE",
"182 690 LINE",
"35 0 LINE"
);
},
{
closed = 1;
nodes = (
"582 306 LINE",
"600 390 LINE",
"164 390 LINE",
"146 306 LINE"
);
},
{
closed = 1;
nodes = (
"562 0 LINE",
"709 690 LINE",
"612 690 LINE",
"466 0 LINE"
);
}
);
userData = {
com.schriftgestaltung.Glyphs.lastChange = "2021-03-02 23:45:59 +0000";
};
width = 717;
}
);
leftKerningGroup = H;
rightKerningGroup = H;
unicode = 0048;
},
{
color = 5;
glyphname = Hbar;
layers = (
{
layerId = master01;
paths = (
{
closed = 1;
nodes = (
"761 506 LINE",
"787 630 LINE",
"99 630 LINE",
"73 506 LINE"
);
},
{
closed = 1;
nodes = (
"177 0 LINE",
"324 690 LINE",
"164 690 LINE",
"17 0 LINE"
);
},
{
closed = 1;
nodes = (
"586 268 LINE",
"616 408 LINE",
"180 408 LINE",
"150 268 LINE"
);
},
{
closed = 1;
nodes = (
"601 0 LINE",
"748 690 LINE",
"588 690 LINE",
"441 0 LINE"
);
}
);
userData = {
com.schriftgestaltung.Glyphs.lastChange = "2021-03-02 23:46:34 +0000";
};
width = 738;
},
{
layerId = master02;
paths = (
{
closed = 1;
nodes = (
"664 508 LINE",
"689 626 LINE",
"98 626 LINE",
"73 508 LINE"
);
},
{
closed = 1;
nodes = (
"156 0 LINE",
"303 690 LINE",
"157 690 LINE",
"10 0 LINE"
);
},
{
closed = 1;
nodes = (
"502 281 LINE",
"530 415 LINE",
"164 415 LINE",
"136 281 LINE"
);
},
{
closed = 1;
nodes = (
"511 0 LINE",
"658 690 LINE",
"512 690 LINE",
"365 0 LINE"
);
}
);
userData = {
com.schriftgestaltung.Glyphs.lastChange = "2021-03-03 00:29:32 +0000";
};
width = 641;
},
{
layerId = master03;
paths = (
{
closed = 1;
nodes = (
"599 528 LINE",
"610 578 LINE",
"99 578 LINE",
"88 528 LINE"
);
},
{
closed = 1;
nodes = (
"110 0 LINE",
"257 690 LINE",
"195 690 LINE",
"48 0 LINE"
);
},
{
closed = 1;
nodes = (
"452 321 LINE",
"464 375 LINE",
"158 375 LINE",
"146 321 LINE"
);
},
{
closed = 1;
nodes = (
"414 0 LINE",
"561 690 LINE",
"499 690 LINE",
"352 0 LINE"
);
}
);
userData = {
com.schriftgestaltung.Glyphs.lastChange = "2021-03-04 10:59:49 +0000";
};
width = 581;
},
{
layerId = master04;
paths = (
{
closed = 1;
nodes = (
"620 527 LINE",
"634 592 LINE",
"86 592 LINE",
"72 527 LINE"
);
},
{
closed = 1;
nodes = (
"106 0 LINE",
"253 690 LINE",
"164 690 LINE",
"17 0 LINE"
);
},
{
closed = 1;
nodes = (
"472 308 LINE",
"493 388 LINE",
"144 388 LINE",
"124 308 LINE"
);
},
{
closed = 1;
nodes = (
"451 0 LINE",
"598 690 LINE",
"509 690 LINE",
"362 0 LINE"
);
}
);
userData = {
com.schriftgestaltung.Glyphs.lastChange = "2021-03-02 23:38:03 +0000";
};
width = 588;
},
{
layerId = master05;
paths = (
{
closed = 1;
nodes = (
"730 528 LINE",
"741 578 LINE",
"100 578 LINE",
"89 528 LINE"
);
},
{
closed = 1;
nodes = (
"111 0 LINE",
"258 690 LINE",
"196 690 LINE",
"49 0 LINE"
);
},
{
closed = 1;
nodes = (
"583 321 LINE",
"595 375 LINE",
"159 375 LINE",
"147 321 LINE"
);
},
{
closed = 1;
nodes = (
"545 0 LINE",
"692 690 LINE",
"630 690 LINE",
"483 0 LINE"
);
}
);
userData = {
com.schriftgestaltung.Glyphs.lastChange = "2021-03-03 00:29:23 +0000";
};
width = 715;
},
{
layerId = master06;
paths = (
{
closed = 1;
nodes = (
"757 526 LINE",
"773 594 LINE",
"88 594 LINE",
"72 526 LINE"
);
},
{
closed = 1;
nodes = (
"137 0 LINE",
"284 690 LINE",
"187 690 LINE",
"40 0 LINE"
);
},
{
closed = 1;
nodes = (
"587 306 LINE",
"605 390 LINE",
"169 390 LINE",
"151 306 LINE"
);
},
{
closed = 1;
nodes = (
"567 0 LINE",
"714 690 LINE",
"617 690 LINE",
"471 0 LINE"
);
}
);
userData = {
com.schriftgestaltung.Glyphs.lastChange = "2021-03-02 23:45:59 +0000";
};
width = 727;
}
);
leftKerningGroup = H;
rightKerningGroup = H;
unicode = 0126;
},
{
color = 5;
glyphname = I;
layers = (
{
anchors = (
{
name = bottom;
position = "{160, 0}";
},
{
name = ogonek;
position = "{330, 0}";
},
{
name = top;
position = "{307, 690}";
}
);
layerId = master01;
paths = (
{
closed = 1;
nodes = (
"330 0 LINE",
"356 120 LINE",
"16 120 LINE",
"-10 0 LINE"
);
},
{
closed = 1;
nodes = (
"240 0 LINE",
"387 690 LINE",
"227 690 LINE",
"80 0 LINE"
);
},
{
closed = 1;
nodes = (
"451 570 LINE",
"477 690 LINE",
"137 690 LINE",
"111 570 LINE"
);
}
);
userData = {
com.schriftgestaltung.Glyphs.lastChange = "2021-03-08 00:52:56 +0000";
};
width = 441;
},
{
anchors = (
{
name = bottom;
position = "{147, 0}";
},
{
name = ogonek;
position = "{293, 0}";
},
{
name = top;
position = "{295, 690}";
}
);
layerId = master02;
paths = (
{
closed = 1;
nodes = (
"293 0 LINE",
"317 115 LINE",
"24 115 LINE",
"0 0 LINE"
);
},
{
closed = 1;
nodes = (
"219 0 LINE",
"366 690 LINE",
"221 690 LINE",
"74 0 LINE"
);
},
{
closed = 1;
nodes = (
"415 575 LINE",
"440 690 LINE",
"147 690 LINE",
"122 575 LINE"
);
}
);
userData = {
com.schriftgestaltung.Glyphs.lastChange = "2021-03-08 00:48:17 +0000";
};
width = 414;
},
{
anchors = (
{
name = bottom;
position = "{151, 0}";
},
{
name = ogonek;
position = "{237, 0}";
},
{
name = top;
position = "{280, 690}";
}
);
layerId = master03;
paths = (
{
closed = 1;
nodes = (
"237 0 LINE",
"248 50 LINE",
"36 50 LINE",
"25 0 LINE"
);
},
{
closed = 1;
nodes = (
"162 0 LINE",
"309 690 LINE",
"247 690 LINE",
"100 0 LINE"
);
},
{
closed = 1;
nodes = (
"373 640 LINE",
"384 690 LINE",
"172 690 LINE",
"161 640 LINE"
);
}
);
userData = {
com.schriftgestaltung.Glyphs.lastChange = "2021-03-08 00:49:31 +0000";
};
width = 370;
},
{
anchors = (
{
name = bottom;
position = "{125, 0}";
},
{
name = ogonek;
position = "{248, 0}";
},
{
name = top;
position = "{272, 690}";
}
);
layerId = master04;
paths = (
{
closed = 1;
nodes = (
"248 0 LINE",
"264 73 LINE",
"18 73 LINE",
"2 0 LINE"
);
},
{
closed = 1;
nodes = (
"170 0 LINE",
"317 690 LINE",
"228 690 LINE",
"81 0 LINE"
);
},
{
closed = 1;
nodes = (
"379 617 LINE",
"395 690 LINE",
"149 690 LINE",
"133 617 LINE"
);
}
);
userData = {
com.schriftgestaltung.Glyphs.lastChange = "2021-03-08 00:49:18 +0000";
};
width = 370;
},
{
anchors = (
{
name = bottom;
position = "{151, 0}";
},
{
name = ogonek;
position = "{287, 0}";
},
{
name = top;
position = "{298, 690}";
}
);
layerId = master05;
paths = (
{
closed = 1;
nodes = (
"287 0 LINE",
"298 50 LINE",
"26 50 LINE",
"15 0 LINE"
);
},
{
closed = 1;
nodes = (
"182 0 LINE",
"329 690 LINE",
"267 690 LINE",
"120 0 LINE"
);
},
{
closed = 1;
nodes = (
"423 640 LINE",
"434 690 LINE",
"162 690 LINE",
"151 640 LINE"
);
}
);
userData = {
com.schriftgestaltung.Glyphs.lastChange = "2021-03-08 00:50:02 +0000";
};
width = 422;
},
{
anchors = (
{
name = bottom;
position = "{159, 0}";
},
{
name = ogonek;
position = "{307, 0}";
},
{
name = top;
position = "{306, 690}";
}
);
layerId = master06;
paths = (
{
closed = 1;
nodes = (
"307 0 LINE",
"323 75 LINE",
"27 75 LINE",
"11 0 LINE"
);
},
{
closed = 1;
nodes = (
"208 0 LINE",
"354 690 LINE",
"257 690 LINE",
"111 0 LINE"
);
},
{
closed = 1;
nodes = (
"438 615 LINE",
"454 690 LINE",
"158 690 LINE",
"142 615 LINE"
);
}
);
userData = {
com.schriftgestaltung.Glyphs.lastChange = "2021-03-08 00:51:59 +0000";
};
width = 438;
}
);
leftKerningGroup = I;
rightKerningGroup = I;
unicode = 0049;
},
{
color = 5;
glyphname = IJ;
layers = (
{
layerId = master01;
paths = (
{
closed = 1;
nodes = (
"172 0 LINE",
"319 690 LINE",
"159 690 LINE",
"12 0 LINE"
);
},
{
closed = 1;
nodes = (
"300 0 OFFCURVE",
"360 -12 OFFCURVE",
"428 -12 CURVE SMOOTH",
"560 -12 OFFCURVE",
"686 70 OFFCURVE",
"723 245 CURVE SMOOTH",
"818 690 LINE",
"658 690 LINE",
"567 265 LINE SMOOTH",
"547 171 OFFCURVE",
"496 132 OFFCURVE",
"430 132 CURVE SMOOTH",
"396 132 OFFCURVE",
"367 143 OFFCURVE",
"350 157 CURVE",
"261 26 LINE"
);
}
);
userData = {
com.schriftgestaltung.Glyphs.lastChange = "2021-03-02 23:46:34 +0000";
};
width = 793;
},
{
layerId = master02;
paths = (
{
closed = 1;
nodes = (
"156 0 LINE",
"303 690 LINE",
"157 690 LINE",
"10 0 LINE"
);
},
{
closed = 1;
nodes = (
"270 4 OFFCURVE",
"318 -14 OFFCURVE",
"373 -14 CURVE SMOOTH",
"500 -14 OFFCURVE",
"598 63 OFFCURVE",
"635 237 CURVE SMOOTH",
"732 690 LINE",
"587 690 LINE",
"496 262 LINE SMOOTH",
"475 165 OFFCURVE",
"436 123 OFFCURVE",
"379 123 CURVE SMOOTH",
"354 123 OFFCURVE",
"328 136 OFFCURVE",
"314 149 CURVE",
"236 31 LINE"
);
}
);
userData = {
com.schriftgestaltung.Glyphs.lastChange = "2021-03-03 00:29:32 +0000";
};
width = 706;
},
{
layerId = master03;
paths = (
{
closed = 1;
nodes = (
"88 0 LINE",
"235 690 LINE",
"173 690 LINE",
"26 0 LINE"
);
},
{
closed = 1;
nodes = (
"204 4 OFFCURVE",
"240 -8 OFFCURVE",
"289 -8 CURVE SMOOTH",
"400 -8 OFFCURVE",
"462 52 OFFCURVE",
"497 215 CURVE SMOOTH",
"598 690 LINE",
"536 690 LINE",
"436 220 LINE SMOOTH",
"410 97 OFFCURVE",
"375 49 OFFCURVE",
"294 49 CURVE SMOOTH",
"255 49 OFFCURVE",
"236 59 OFFCURVE",
"214 77 CURVE",
"176 27 LINE"
);
}
);
userData = {
com.schriftgestaltung.Glyphs.lastChange = "2021-03-04 11:24:20 +0000";
};
width = 586;
},
{
layerId = master04;
paths = (
{
closed = 1;
nodes = (
"108 0 LINE",
"254 690 LINE",
"164 690 LINE",
"18 0 LINE"
);
},
{
closed = 1;
nodes = (
"220 6 OFFCURVE",
"260 -10 OFFCURVE",
"306 -10 CURVE SMOOTH",
"404 -10 OFFCURVE",
"492 50 OFFCURVE",
"526 214 CURVE SMOOTH",
"625 690 LINE",
"536 690 LINE",
"450 269 LINE SMOOTH",
"417 106 OFFCURVE",
"368 75 OFFCURVE",
"315 75 CURVE SMOOTH",
"286 75 OFFCURVE",
"262 84 OFFCURVE",
"244 100 CURVE",
"192 28 LINE"
);
}
);
userData = {
com.schriftgestaltung.Glyphs.lastChange = "2021-03-02 23:38:03 +0000";
};
width = 609;
},
{
layerId = master05;
paths = (
{
closed = 1;
nodes = (
"93 0 LINE",
"240 690 LINE",
"178 690 LINE",
"31 0 LINE"
);
},
{
closed = 1;
nodes = (
"259 4 OFFCURVE",
"305 -8 OFFCURVE",
"354 -8 CURVE SMOOTH",
"465 -8 OFFCURVE",
"557 52 OFFCURVE",
"592 215 CURVE SMOOTH",
"693 690 LINE",
"631 690 LINE",
"531 220 LINE SMOOTH",
"505 97 OFFCURVE",
"440 49 OFFCURVE",
"359 49 CURVE SMOOTH",
"320 49 OFFCURVE",
"291 59 OFFCURVE",
"269 77 CURVE",
"231 27 LINE"
);
}
);
userData = {
com.schriftgestaltung.Glyphs.lastChange = "2021-03-03 00:29:23 +0000";
};
width = 700;
},
{
layerId = master06;
paths = (
{
closed = 1;
nodes = (
"133 0 LINE",
"279 690 LINE",
"182 690 LINE",
"36 0 LINE"
);
},
{
closed = 1;
nodes = (
"270 4 OFFCURVE",
"319 -10 OFFCURVE",
"376 -10 CURVE SMOOTH",
"495 -10 OFFCURVE",
"596 58 OFFCURVE",
"634 236 CURVE SMOOTH",
"731 690 LINE",
"637 690 LINE",
"542 246 LINE SMOOTH",
"516 123 OFFCURVE",
"453 78 OFFCURVE",
"378 78 CURVE SMOOTH",
"344 78 OFFCURVE",
"312 88 OFFCURVE",
"291 104 CURVE",
"236 26 LINE"
);
}
);
userData = {
com.schriftgestaltung.Glyphs.lastChange = "2021-03-02 23:45:59 +0000";
};
width = 735;
}
);
leftKerningGroup = H;
rightKerningGroup = U;
unicode = 0132;
},
{
color = 5;
glyphname = J;
layers = (
{
anchors = (
{
name = top;
position = "{398, 690}";
}
);
layerId = master01;
paths = (
{
closed = 1;
nodes = (
"17 16 OFFCURVE",
"82 -12 OFFCURVE",
"174 -12 CURVE",
"306 -12 OFFCURVE",
"428 70 OFFCURVE",
"465 245 CURVE SMOOTH",
"560 690 LINE",
"404 690 LINE",
"313 265 LINE SMOOTH",
"293 171 OFFCURVE",
"237 131 OFFCURVE",
"170 131 CURVE",
"128 131 OFFCURVE",
"89 148 OFFCURVE",
"57 180 CURVE",
"-34 66 LINE"
);
},
{
closed = 1;
nodes = (
"480 570 LINE",
"506 690 LINE",
"236 690 LINE",
"210 570 LINE"
);
}
);
userData = {
com.schriftgestaltung.Glyphs.lastChange = "2021-03-02 23:46:34 +0000";
};
width = 535;
},
{
anchors = (
{
name = top;
position = "{353, 690}";
}
);
layerId = master02;
paths = (
{
closed = 1;
nodes = (
"12 15 OFFCURVE",
"71 -12 OFFCURVE",
"147 -12 CURVE",
"265 -12 OFFCURVE",
"363 63 OFFCURVE",
"400 237 CURVE SMOOTH",
"497 690 LINE",
"352 690 LINE",
"261 262 LINE SMOOTH",
"241 166 OFFCURVE",
"201 123 OFFCURVE",
"144 123 CURVE",
"114 123 OFFCURVE",
"78 141 OFFCURVE",
"52 171 CURVE",
"-35 65 LINE"
);
},
{
closed = 1;
nodes = (
"423 575 LINE",
"448 690 LINE",
"215 690 LINE",
"190 575 LINE"
);
}
);
userData = {
com.schriftgestaltung.Glyphs.lastChange = "2021-03-03 00:29:32 +0000";
};
width = 471;
},
{
anchors = (
{
name = top;
position = "{350, 690}";
}
);
layerId = master03;
paths = (
{
closed = 1;
nodes = (
"48 20 OFFCURVE",
"98 -8 OFFCURVE",
"156 -8 CURVE SMOOTH",
"247 -8 OFFCURVE",
"324 52 OFFCURVE",
"359 215 CURVE SMOOTH",
"460 690 LINE",
"398 690 LINE",
"298 220 LINE SMOOTH",
"274 105 OFFCURVE",
"215 50 OFFCURVE",
"161 50 CURVE SMOOTH",
"116 50 OFFCURVE",
"82 80 OFFCURVE",
"54 115 CURVE",
"11 75 LINE"
);
},
{
closed = 1;
nodes = (
"423 640 LINE",
"434 690 LINE",
"243 690 LINE",
"232 640 LINE"
);
}
);
userData = {
com.schriftgestaltung.Glyphs.lastChange = "2021-03-04 11:24:20 +0000";
};
width = 438;
},
{
anchors = (
{
name = top;
position = "{349, 690}";
}
);
layerId = master04;
paths = (
{
closed = 1;
nodes = (
"23 19 OFFCURVE",
"76 -10 OFFCURVE",
"134 -10 CURVE SMOOTH",
"232 -10 OFFCURVE",
"319 50 OFFCURVE",
"354 214 CURVE SMOOTH",
"456 690 LINE",
"368 690 LINE",
"278 269 LINE SMOOTH",
"243 106 OFFCURVE",
"196 75 OFFCURVE",
"143 75 CURVE",
"101 75 OFFCURVE",
"70 97 OFFCURVE",
"43 132 CURVE",
"-14 67 LINE"
);
},
{
closed = 1;
nodes = (
"406 617 LINE",
"422 690 LINE",
"226 690 LINE",
"210 617 LINE"
);
}
);
userData = {
com.schriftgestaltung.Glyphs.lastChange = "2021-03-04 11:06:59 +0000";
};
width = 438;
},
{
anchors = (
{
name = top;
position = "{399, 690}";
}
);
layerId = master05;
paths = (
{
closed = 1;
nodes = (
"47 24 OFFCURVE",
"105 -8 OFFCURVE",
"176 -8 CURVE",
"287 -8 OFFCURVE",
"379 52 OFFCURVE",
"414 215 CURVE SMOOTH",
"515 690 LINE",
"453 690 LINE",
"353 220 LINE SMOOTH",
"327 97 OFFCURVE",
"261 49 OFFCURVE",
"181 49 CURVE",
"120 49 OFFCURVE",
"79 77 OFFCURVE",
"50 117 CURVE",
"8 76 LINE"
);
},
{
closed = 1;
nodes = (
"478 640 LINE",
"489 690 LINE",
"273 690 LINE",
"262 640 LINE"
);
}
);
userData = {
com.schriftgestaltung.Glyphs.lastChange = "2021-03-03 00:29:23 +0000";
};
width = 522;
},
{
anchors = (
{
name = top;
position = "{407, 690}";
}
);
layerId = master06;
paths = (
{
closed = 1;
nodes = (
"33 21 OFFCURVE",
"94 -10 OFFCURVE",
"172 -10 CURVE",
"291 -10 OFFCURVE",
"393 58 OFFCURVE",
"429 226 CURVE SMOOTH",
"528 690 LINE",
"433 690 LINE",
"336 236 LINE SMOOTH",
"312 123 OFFCURVE",
"249 78 OFFCURVE",
"174 78 CURVE",
"120 78 OFFCURVE",
"80 102 OFFCURVE",
"49 139 CURVE",
"-10 72 LINE"
);
},
{
closed = 1;
nodes = (
"476 615 LINE",
"492 690 LINE",
"257 690 LINE",
"241 615 LINE"
);
}
);
userData = {
com.schriftgestaltung.Glyphs.lastChange = "2021-03-02 23:45:59 +0000";
};
width = 532;
}
);
leftKerningGroup = J;
rightKerningGroup = U;
unicode = 004A;
},
{
color = 5;
glyphname = K;
layers = (
{
anchors = (
{
name = bottom;
position = "{305, 0}";
}
);
layerId = master01;
paths = (
{
closed = 1;
nodes = (
"172 0 LINE",
"319 690 LINE",
"159 690 LINE",
"12 0 LINE"
);
},
{
closed = 1;
nodes = (
"723 690 LINE",
"520 690 LINE",
"184 326 LINE",
"143 116 LINE"
);
},
{
closed = 1;
nodes = (
"414 0 LINE",
"592 0 LINE",
"402 407 LINE",
"290 292 LINE"
);
}
);
userData = {
com.schriftgestaltung.Glyphs.lastChange = "2021-03-02 23:46:34 +0000";
};
width = 652;
},
{
anchors = (
{
name = bottom;
position = "{264, 0}";
}
);
layerId = master02;
paths = (
{
closed = 1;
nodes = (
"156 0 LINE",
"303 690 LINE",
"157 690 LINE",
"10 0 LINE"
);
},
{
closed = 1;
nodes = (
"644 690 LINE",
"465 690 LINE",
"172 324 LINE",
"128 121 LINE"
);
},
{
closed = 1;
nodes = (
"351 0 LINE",
"510 0 LINE",
"362 406 LINE",
"259 296 LINE"
);
}
);
userData = {
com.schriftgestaltung.Glyphs.lastChange = "2021-03-03 00:29:32 +0000";
};
width = 568;
},
{
anchors = (
{
name = bottom;
position = "{210, 0}";
}
);
layerId = master03;
paths = (
{
closed = 1;
nodes = (
"88 0 LINE",
"235 690 LINE",
"173 690 LINE",
"26 0 LINE"
);
},
{
closed = 1;
nodes = (
"555 690 LINE",
"483 690 LINE",
"126 309 LINE",
"108 216 LINE"
);
},
{
closed = 1;
nodes = (
"361 -3 LINE",
"424 -3 LINE",
"269 402 LINE",
"221 361 LINE"
);
}
);
userData = {
com.schriftgestaltung.Glyphs.lastChange = "2021-03-04 11:24:20 +0000";
};
width = 509;
},
{
anchors = (
{
name = bottom;
position = "{224, 0}";
}
);
layerId = master04;
paths = (
{
closed = 1;
nodes = (
"103 0 LINE",
"253 690 LINE",
"164 690 LINE",
"17 0 LINE"
);
},
{
closed = 1;
nodes = (
"574 690 LINE",
"468 690 LINE",
"140 311 LINE",
"119 184 LINE"
);
},
{
closed = 1;
nodes = (
"345 0 LINE",
"440 0 LINE",
"302 396 LINE",
"236 331 LINE"
);
}
);
userData = {
com.schriftgestaltung.Glyphs.lastChange = "2021-03-04 11:12:10 +0000";
};
width = 509;
},
{
anchors = (
{
name = bottom;
position = "{281, 0}";
}
);
layerId = master05;
paths = (
{
closed = 1;
nodes = (
"106 0 LINE",
"253 690 LINE",
"191 690 LINE",
"44 0 LINE"
);
},
{
closed = 1;
nodes = (
"645 690 LINE",
"562 690 LINE",
"163 302 LINE",
"146 216 LINE"
);
},
{
closed = 1;
nodes = (
"447 0 LINE",
"515 0 LINE",
"319 392 LINE",
"277 350 LINE"
);
}
);
userData = {
com.schriftgestaltung.Glyphs.lastChange = "2021-03-03 00:29:23 +0000";
};
width = 598;
},
{
anchors = (
{
name = bottom;
position = "{286, 0}";
}
);
layerId = master06;
paths = (
{
closed = 1;
nodes = (
"132 0 LINE",
"279 690 LINE",
"182 690 LINE",
"35 0 LINE"
);
},
{
closed = 1;
nodes = (
"676 690 LINE",
"552 690 LINE",
"174 312 LINE",
"147 180 LINE"
);
},
{
closed = 1;
nodes = (
"438 0 LINE",
"545 0 LINE",
"351 397 LINE",
"284 329 LINE"
);
}
);
userData = {
com.schriftgestaltung.Glyphs.lastChange = "2021-03-02 23:45:59 +0000";
};
width = 620;
}
);
leftKerningGroup = H;
rightKerningGroup = K;
unicode = 004B;
},
{
color = 5;
glyphname = L;
layers = (
{
anchors = (
{
name = bottom;
position = "{267, 0}";
},
{
name = caron.alt;
position = "{457, 680}";
},
{
name = top;
position = "{239, 690}";
}
);
layerId = master01;
paths = (
{
closed = 1;
nodes = (
"172 0 LINE",
"319 690 LINE",
"159 690 LINE",
"12 0 LINE"
);
},
{
closed = 1;
nodes = (
"482 0 LINE",
"512 140 LINE",
"116 140 LINE",
"86 0 LINE"
);
}
);
userData = {
com.schriftgestaltung.Glyphs.lastChange = "2021-03-02 23:46:34 +0000";
};
width = 562;
},
{
anchors = (
{
name = bottom;
position = "{232, 0}";
},
{
name = caron.alt;
position = "{414, 680}";
},
{
name = top;
position = "{231, 690}";
}
);
layerId = master02;
paths = (
{
closed = 1;
nodes = (
"156 0 LINE",
"303 690 LINE",
"157 690 LINE",
"10 0 LINE"
);
},
{
closed = 1;
nodes = (
"417 0 LINE",
"445 134 LINE",
"107 134 LINE",
"79 0 LINE"
);
}
);
userData = {
com.schriftgestaltung.Glyphs.lastChange = "2021-03-03 00:29:32 +0000";
};
width = 507;
},
{
anchors = (
{
name = bottom;
position = "{197, 0}";
},
{
name = caron.alt;
position = "{380, 680}";
},
{
name = top;
position = "{209, 690}";
}
);
layerId = master03;
paths = (
{
closed = 1;
nodes = (
"88 0 LINE",
"235 690 LINE",
"173 690 LINE",
"26 0 LINE"
);
},
{
closed = 1;
nodes = (
"340 0 LINE",
"351 54 LINE",
"67 54 LINE",
"56 0 LINE"
);
}
);
userData = {
com.schriftgestaltung.Glyphs.lastChange = "2021-03-19 05:20:21 +0000";
};
width = 444;
},
{
anchors = (
{
name = bottom;
position = "{197, 0}";
},
{
name = caron.alt;
position = "{380, 680}";
},
{
name = top;
position = "{209, 690}";
}
);
layerId = master04;
paths = (
{
closed = 1;
nodes = (
"106 0 LINE",
"253 690 LINE",
"164 690 LINE",
"17 0 LINE"
);
},
{
closed = 1;
nodes = (
"361 0 LINE",
"378 82 LINE",
"80 82 LINE",
"60 0 LINE"
);
}
);
userData = {
com.schriftgestaltung.Glyphs.lastChange = "2021-03-02 23:38:03 +0000";
};
width = 454;
},
{
anchors = (
{
name = bottom;
position = "{248, 0}";
},
{
name = caron.alt;
position = "{435, 680}";
},
{
name = top;
position = "{222, 690}";
}
);
layerId = master05;
paths = (
{
closed = 1;
nodes = (
"106 0 LINE",
"253 690 LINE",
"191 690 LINE",
"44 0 LINE"
);
},
{
closed = 1;
nodes = (
"426 0 LINE",
"437 54 LINE",
"85 54 LINE",
"74 0 LINE"
);
}
);
userData = {
com.schriftgestaltung.Glyphs.lastChange = "2021-03-03 00:29:23 +0000";
};
width = 528;
},
{
anchors = (
{
name = bottom;
position = "{249, 0}";
},
{
name = caron.alt;
position = "{444, 680}";
},
{
name = top;
position = "{230, 690}";
}
);
layerId = master06;
paths = (
{
closed = 1;
nodes = (
"132 0 LINE",
"279 690 LINE",
"182 690 LINE",
"35 0 LINE"
);
},
{
closed = 1;
nodes = (
"448 0 LINE",
"466 85 LINE",
"99 85 LINE",
"81 0 LINE"
);
}
);
userData = {
com.schriftgestaltung.Glyphs.lastChange = "2021-03-02 23:45:59 +0000";
};
width = 538;
}
);
leftKerningGroup = H;
rightKerningGroup = L;
unicode = 004C;
},
{
color = 5;
glyphname = Lslash;
layers = (
{
layerId = master01;
paths = (
{
closed = 1;
nodes = (
"387 360 LINE",
"418 510 LINE",
"38 320 LINE",
"6 170 LINE"
);
},
{
closed = 1;
nodes = (
"177 0 LINE",
"324 690 LINE",
"164 690 LINE",
"17 0 LINE"
);
},
{
closed = 1;
nodes = (
"487 0 LINE",
"517 140 LINE",
"121 140 LINE",
"91 0 LINE"
);
}
);
userData = {
com.schriftgestaltung.Glyphs.lastChange = "2021-03-02 23:46:34 +0000";
};
width = 567;
},
{
layerId = master02;
paths = (
{
closed = 1;
nodes = (
"338 363 LINE",
"369 507 LINE",
"33 318 LINE",
"2 174 LINE"
);
},
{
closed = 1;
nodes = (
"156 0 LINE",
"303 690 LINE",
"157 690 LINE",
"10 0 LINE"
);
},
{
closed = 1;
nodes = (
"417 0 LINE",
"445 134 LINE",
"107 134 LINE",
"79 0 LINE"
);
}
);
userData = {
com.schriftgestaltung.Glyphs.lastChange = "2021-03-03 00:29:32 +0000";
};
width = 507;
},
{
layerId = master03;
paths = (
{
closed = 1;
nodes = (
"309 357 LINE",
"322 418 LINE",
"56 286 LINE",
"43 225 LINE"
);
},
{
closed = 1;
nodes = (
"116 0 LINE",
"263 690 LINE",
"201 690 LINE",
"54 0 LINE"
);
},
{
closed = 1;
nodes = (
"346 0 LINE",
"357 54 LINE",
"95 54 LINE",
"84 0 LINE"
);
}
);
userData = {
com.schriftgestaltung.Glyphs.lastChange = "2021-03-04 11:24:20 +0000";
};
width = 450;
},
{
layerId = master04;
paths = (
{
closed = 1;
nodes = (
"298 392 LINE",
"317 479 LINE",
"31 300 LINE",
"12 212 LINE"
);
},
{
closed = 1;
nodes = (
"106 0 LINE",
"253 690 LINE",
"164 690 LINE",
"17 0 LINE"
);
},
{
closed = 1;
nodes = (
"361 0 LINE",
"378 82 LINE",
"80 82 LINE",
"60 0 LINE"
);
}
);
userData = {
com.schriftgestaltung.Glyphs.lastChange = "2021-03-02 23:38:03 +0000";
};
width = 454;
},
{
layerId = master05;
paths = (
{
closed = 1;
nodes = (
"347 376 LINE",
"360 437 LINE",
"56 286 LINE",
"43 225 LINE"
);
},
{
closed = 1;
nodes = (
"116 0 LINE",
"263 690 LINE",
"201 690 LINE",
"54 0 LINE"
);
},
{
closed = 1;
nodes = (
"436 0 LINE",
"447 54 LINE",
"95 54 LINE",
"84 0 LINE"
);
}
);
userData = {
com.schriftgestaltung.Glyphs.lastChange = "2021-03-03 00:29:23 +0000";
};
width = 538;
},
{
layerId = master06;
paths = (
{
closed = 1;
nodes = (
"352 390 LINE",
"375 481 LINE",
"38 301 LINE",
"15 210 LINE"
);
},
{
closed = 1;
nodes = (
"137 0 LINE",
"284 690 LINE",
"187 690 LINE",
"40 0 LINE"
);
},
{
closed = 1;
nodes = (
"453 0 LINE",
"471 85 LINE",
"104 85 LINE",
"86 0 LINE"
);
}
);
userData = {
com.schriftgestaltung.Glyphs.lastChange = "2021-03-02 23:45:59 +0000";
};
width = 548;
}
);
leftKerningGroup = H;
rightKerningGroup = L;
unicode = 0141;
},
{
color = 5;
glyphname = M;
layers = (
{
layerId = master01;
paths = (
{
closed = 1;
nodes = (
"165 0 LINE",
"312 690 LINE",
"159 690 LINE",
"12 0 LINE"
);
},
{
closed = 1;
nodes = (
"330 141 LINE",
"391 141 LINE",
"431 327 LINE",
"377 690 LINE",
"242 690 LINE"
);
},
{
closed = 1;
nodes = (
"440 141 LINE",
"763 690 LINE",
"612 690 LINE",
"415 327 LINE",
"375 141 LINE"
);
},
{
closed = 1;
nodes = (
"696 0 LINE",
"843 690 LINE",
"690 690 LINE",
"543 0 LINE"
);
}
);
userData = {
com.schriftgestaltung.Glyphs.lastChange = "2021-03-02 23:46:34 +0000";
};
width = 828;
},
{
layerId = master02;
paths = (
{
closed = 1;
nodes = (
"149 0 LINE",
"296 690 LINE",
"157 690 LINE",
"10 0 LINE"
);
},
{
closed = 1;
nodes = (
"282 143 LINE",
"338 143 LINE",
"381 322 LINE",
"356 690 LINE",
"234 690 LINE"
);
},
{
closed = 1;
nodes = (
"382 143 LINE",
"669 690 LINE",
"533 690 LINE",
"366 322 LINE",
"324 143 LINE"
);
},
{
closed = 1;
nodes = (
"594 0 LINE",
"741 690 LINE",
"602 690 LINE",
"455 0 LINE"
);
}
);
userData = {
com.schriftgestaltung.Glyphs.lastChange = "2021-03-03 00:29:32 +0000";
};
width = 724;
},
{
layerId = master03;
paths = (
{
closed = 1;
nodes = (
"80 0 LINE",
"227 690 LINE",
"165 690 LINE",
"18 0 LINE"
);
},
{
closed = 1;
nodes = (
"295 175 LINE",
"316 175 LINE",
"333 254 LINE",
"259 690 LINE",
"196 690 LINE"
);
},
{
closed = 1;
nodes = (
"339 175 LINE",
"655 690 LINE",
"584 690 LINE",
"327 254 LINE",
"310 175 LINE"
);
},
{
closed = 1;
nodes = (
"542 0 LINE",
"689 690 LINE",
"627 690 LINE",
"480 0 LINE"
);
}
);
userData = {
com.schriftgestaltung.Glyphs.lastChange = "2021-03-04 11:29:07 +0000";
};
width = 670;
},
{
layerId = master04;
paths = (
{
closed = 1;
nodes = (
"104 0 LINE",
"251 690 LINE",
"164 690 LINE",
"17 0 LINE"
);
},
{
closed = 1;
nodes = (
"279 164 LINE",
"312 164 LINE",
"340 286 LINE",
"282 690 LINE",
"205 690 LINE"
);
},
{
closed = 1;
nodes = (
"341 164 LINE",
"639 690 LINE",
"553 690 LINE",
"331 286 LINE",
"303 164 LINE"
);
},
{
closed = 1;
nodes = (
"533 0 LINE",
"680 690 LINE",
"593 690 LINE",
"446 0 LINE"
);
}
);
userData = {
com.schriftgestaltung.Glyphs.lastChange = "2021-03-02 23:38:03 +0000";
};
width = 670;
},
{
layerId = master05;
paths = (
{
closed = 1;
nodes = (
"106 0 LINE",
"253 690 LINE",
"191 690 LINE",
"44 0 LINE"
);
},
{
closed = 1;
nodes = (
"361 175 LINE",
"382 175 LINE",
"399 254 LINE",
"285 690 LINE",
"222 690 LINE"
);
},
{
closed = 1;
nodes = (
"405 175 LINE",
"761 690 LINE",
"690 690 LINE",
"393 254 LINE",
"376 175 LINE"
);
},
{
closed = 1;
nodes = (
"648 0 LINE",
"795 690 LINE",
"733 690 LINE",
"586 0 LINE"
);
}
);
userData = {
com.schriftgestaltung.Glyphs.lastChange = "2021-03-03 00:29:23 +0000";
};
width = 812;
},
{
layerId = master06;
paths = (
{
closed = 1;
nodes = (
"129 0 LINE",
"276 690 LINE",
"182 690 LINE",
"35 0 LINE"
);
},
{
closed = 1;
nodes = (
"353 163 LINE",
"388 163 LINE",
"413 282 LINE",
"319 690 LINE",
"230 690 LINE"
);
},
{
closed = 1;
nodes = (
"420 163 LINE",
"766 690 LINE",
"666 690 LINE",
"403 282 LINE",
"378 163 LINE"
);
},
{
closed = 1;
nodes = (
"668 0 LINE",
"814 690 LINE",
"720 690 LINE",
"573 0 LINE"
);
}
);
userData = {
com.schriftgestaltung.Glyphs.lastChange = "2021-03-02 23:45:59 +0000";
};
width = 823;
}
);
leftKerningGroup = H;
rightKerningGroup = H;
unicode = 004D;
},
{
color = 5;
glyphname = N;
layers = (
{
anchors = (
{
name = bottom;
position = "{319, 0}";
},
{
name = top;
position = "{441, 690}";
}
);
layerId = master01;
paths = (
{
closed = 1;
nodes = (
"156 0 LINE",
"303 690 LINE",
"159 690 LINE",
"12 0 LINE"
);
},
{
closed = 1;
nodes = (
"407 0 LINE",
"549 0 LINE",
"357 690 LINE",
"215 690 LINE"
);
},
{
closed = 1;
nodes = (
"594 0 LINE",
"741 690 LINE",
"597 690 LINE",
"450 0 LINE"
);
}
);
userData = {
com.schriftgestaltung.Glyphs.lastChange = "2021-03-02 23:46:34 +0000";
};
width = 726;
},
{
anchors = (
{
name = bottom;
position = "{277, 0}";
},
{
name = top;
position = "{396, 690}";
}
);
layerId = master02;
paths = (
{
closed = 1;
nodes = (
"140 0 LINE",
"289 690 LINE",
"157 690 LINE",
"10 0 LINE"
);
},
{
closed = 1;
nodes = (
"339 0 LINE",
"467 0 LINE",
"338 690 LINE",
"210 690 LINE"
);
},
{
closed = 1;
nodes = (
"508 0 LINE",
"655 690 LINE",
"525 690 LINE",
"378 0 LINE"
);
}
);
userData = {
com.schriftgestaltung.Glyphs.lastChange = "2021-03-03 00:29:32 +0000";
};
width = 638;
},
{
anchors = (
{
name = bottom;
position = "{225, 0}";
},
{
name = top;
position = "{379, 690}";
}
);
layerId = master03;
paths = (
{
closed = 1;
nodes = (
"78 0 LINE",
"225 690 LINE",
"163 690 LINE",
"16 0 LINE"
);
},
{
closed = 1;
nodes = (
"374 0 LINE",
"436 0 LINE",
"243 690 LINE",
"181 690 LINE"
);
},
{
closed = 1;
nodes = (
"454 0 LINE",
"601 690 LINE",
"539 690 LINE",
"392 0 LINE"
);
}
);
userData = {
com.schriftgestaltung.Glyphs.lastChange = "2021-03-04 11:30:25 +0000";
};
width = 589;
},
{
anchors = (
{
name = bottom;
position = "{234, 0}";
},
{
name = top;
position = "{385, 690}";
}
);
layerId = master04;
paths = (
{
closed = 1;
nodes = (
"101 0 LINE",
"248 690 LINE",
"164 690 LINE",
"17 0 LINE"
);
},
{
closed = 1;
nodes = (
"346 0 LINE",
"426 0 LINE",
"275 690 LINE",
"194 690 LINE"
);
},
{
closed = 1;
nodes = (
"452 0 LINE",
"599 690 LINE",
"515 690 LINE",
"368 0 LINE"
);
}
);
userData = {
com.schriftgestaltung.Glyphs.lastChange = "2021-03-02 23:38:03 +0000";
};
width = 589;
},
{
anchors = (
{
name = bottom;
position = "{289, 0}";
},
{
name = top;
position = "{443, 690}";
}
);
layerId = master05;
paths = (
{
closed = 1;
nodes = (
"106 0 LINE",
"253 690 LINE",
"191 690 LINE",
"44 0 LINE"
);
},
{
closed = 1;
nodes = (
"465 0 LINE",
"527 0 LINE",
"271 690 LINE",
"209 690 LINE"
);
},
{
closed = 1;
nodes = (
"545 0 LINE",
"692 690 LINE",
"630 690 LINE",
"483 0 LINE"
);
}
);
userData = {
com.schriftgestaltung.Glyphs.lastChange = "2021-03-03 00:29:23 +0000";
};
width = 709;
},
{
anchors = (
{
name = bottom;
position = "{293, 0}";
},
{
name = top;
position = "{457, 690}";
}
);
layerId = master06;
paths = (
{
closed = 1;
nodes = (
"126 0 LINE",
"273 690 LINE",
"182 690 LINE",
"35 0 LINE"
);
},
{
closed = 1;
nodes = (
"447 0 LINE",
"537 0 LINE",
"304 690 LINE",
"213 690 LINE"
);
},
{
closed = 1;
nodes = (
"565 0 LINE",
"712 690 LINE",
"621 690 LINE",
"474 0 LINE"
);
}
);
userData = {
com.schriftgestaltung.Glyphs.lastChange = "2021-03-02 23:45:59 +0000";
};
width = 720;
}
);
leftKerningGroup = H;
rightKerningGroup = H;
unicode = 004E;
},
{
color = 5;
glyphname = Nhookleft;
layers = (
{
layerId = master01;
paths = (
{
closed = 1;
nodes = (
"-134 -189 OFFCURVE",
"-102 -197 OFFCURVE",
"-62 -197 CURVE SMOOTH",
"51 -197 OFFCURVE",
"129 -132 OFFCURVE",
"156 0 CURVE SMOOTH",
"303 690 LINE",
"159 690 LINE",
"12 0 LINE SMOOTH",
"1 -57 OFFCURVE",
"-35 -75 OFFCURVE",
"-73 -75 CURVE SMOOTH",
"-91 -75 OFFCURVE",
"-108 -71 OFFCURVE",
"-124 -63 CURVE",
"-159 -179 LINE"
);
},
{
closed = 1;
nodes = (
"407 0 LINE",
"549 0 LINE",
"357 690 LINE",
"215 690 LINE"
);
},
{
closed = 1;
nodes = (
"594 0 LINE",
"741 690 LINE",
"597 690 LINE",
"450 0 LINE"
);
}
);
userData = {
com.schriftgestaltung.Glyphs.lastChange = "2021-03-02 23:46:34 +0000";
};
width = 726;
},
{
layerId = master02;
paths = (
{
closed = 1;
nodes = (
"-115 -187 OFFCURVE",
"-82 -195 OFFCURVE",
"-50 -195 CURVE",
"50 -195 OFFCURVE",
"111 -133 OFFCURVE",
"140 1 CURVE SMOOTH",
"289 690 LINE",
"157 690 LINE",
"11 5 LINE SMOOTH",
"0 -46 OFFCURVE",
"-26 -71 OFFCURVE",
"-60 -71 CURVE",
"-73 -71 OFFCURVE",
"-88 -66 OFFCURVE",
"-101 -59 CURVE",
"-136 -177 LINE"
);
},
{
closed = 1;
nodes = (
"339 0 LINE",
"467 0 LINE",
"338 690 LINE",
"210 690 LINE"
);
},
{
closed = 1;
nodes = (
"508 0 LINE",
"655 690 LINE",
"525 690 LINE",
"378 0 LINE"
);
}
);
userData = {
com.schriftgestaltung.Glyphs.lastChange = "2021-03-03 00:29:32 +0000";
};
width = 638;
},
{
layerId = master03;
paths = (
{
closed = 1;
nodes = (
"-116 -184 OFFCURVE",
"-85 -193 OFFCURVE",
"-56 -193 CURVE",
"21 -193 OFFCURVE",
"75 -147 OFFCURVE",
"96 -48 CURVE",
"253 690 LINE",
"191 690 LINE",
"34 -47 LINE SMOOTH",
"19 -116 OFFCURVE",
"-15 -140 OFFCURVE",
"-59 -140 CURVE",
"-78 -140 OFFCURVE",
"-99 -134 OFFCURVE",
"-114 -127 CURVE",
"-136 -173 LINE"
);
},
{
closed = 1;
nodes = (
"365 0 LINE",
"427 0 LINE",
"271 690 LINE",
"209 690 LINE"
);
},
{
closed = 1;
nodes = (
"445 0 LINE",
"592 690 LINE",
"530 690 LINE",
"383 0 LINE"
);
}
);
userData = {
com.schriftgestaltung.Glyphs.lastChange = "2021-03-04 11:38:59 +0000";
};
width = 590;
},
{
layerId = master04;
paths = (
{
closed = 1;
nodes = (
"-114 -186 OFFCURVE",
"-88 -195 OFFCURVE",
"-59 -195 CURVE SMOOTH",
"21 -195 OFFCURVE",
"74 -155 OFFCURVE",
"100 -34 CURVE SMOOTH",
"253 690 LINE",
"169 690 LINE",
"15 -32 LINE SMOOTH",
"1 -97 OFFCURVE",
"-26 -120 OFFCURVE",
"-62 -120 CURVE SMOOTH",
"-77 -120 OFFCURVE",
"-94 -115 OFFCURVE",
"-106 -107 CURVE",
"-132 -175 LINE"
);
},
{
closed = 1;
nodes = (
"351 0 LINE",
"431 0 LINE",
"280 690 LINE",
"199 690 LINE"
);
},
{
closed = 1;
nodes = (
"457 0 LINE",
"604 690 LINE",
"520 690 LINE",
"373 0 LINE"
);
}
);
userData = {
com.schriftgestaltung.Glyphs.lastChange = "2021-03-02 23:38:03 +0000";
};
width = 594;
},
{
layerId = master05;
paths = (
{
closed = 1;
nodes = (
"-116 -184 OFFCURVE",
"-85 -193 OFFCURVE",
"-56 -193 CURVE",
"21 -193 OFFCURVE",
"75 -147 OFFCURVE",
"96 -48 CURVE",
"253 690 LINE",
"191 690 LINE",
"34 -47 LINE SMOOTH",
"19 -116 OFFCURVE",
"-15 -140 OFFCURVE",
"-59 -140 CURVE",
"-78 -140 OFFCURVE",
"-99 -134 OFFCURVE",
"-114 -127 CURVE",
"-136 -173 LINE"
);
},
{
closed = 1;
nodes = (
"465 0 LINE",
"527 0 LINE",
"271 690 LINE",
"209 690 LINE"
);
},
{
closed = 1;
nodes = (
"545 0 LINE",
"692 690 LINE",
"630 690 LINE",
"483 0 LINE"
);
}
);
userData = {
com.schriftgestaltung.Glyphs.lastChange = "2021-03-03 00:29:23 +0000";
};
width = 709;
},
{
layerId = master06;
paths = (
{
closed = 1;
nodes = (
"-120 -186 OFFCURVE",
"-90 -195 OFFCURVE",
"-57 -195 CURVE",
"33 -195 OFFCURVE",
"93 -153 OFFCURVE",
"119 -32 CURVE SMOOTH",
"273 690 LINE",
"182 690 LINE",
"29 -30 LINE SMOOTH",
"15 -94 OFFCURVE",
"-17 -117 OFFCURVE",
"-61 -117 CURVE",
"-80 -117 OFFCURVE",
"-100 -112 OFFCURVE",
"-115 -104 CURVE",
"-141 -175 LINE"
);
},
{
closed = 1;
nodes = (
"447 0 LINE",
"537 0 LINE",
"304 690 LINE",
"213 690 LINE"
);
},
{
closed = 1;
nodes = (
"565 0 LINE",
"712 690 LINE",
"621 690 LINE",
"474 0 LINE"
);
}
);
userData = {
com.schriftgestaltung.Glyphs.lastChange = "2021-03-02 23:45:59 +0000";
};
width = 720;
}
);
leftKerningGroup = j;
rightKerningGroup = H;
unicode = 019D;
},
{
color = 5;
glyphname = Eng;
layers = (
{
layerId = master01;
paths = (
{
closed = 1;
nodes = (
"156 0 LINE",
"303 690 LINE",
"159 690 LINE",
"12 0 LINE"
);
},
{
closed = 1;
nodes = (
"450 0 LINE",
"592 0 LINE",
"357 690 LINE",
"215 690 LINE"
);
},
{
closed = 1;
nodes = (
"304 -189 OFFCURVE",
"336 -197 OFFCURVE",
"376 -197 CURVE SMOOTH",
"489 -197 OFFCURVE",
"566 -132 OFFCURVE",
"594 0 CURVE SMOOTH",
"741 690 LINE",
"597 690 LINE",
"450 0 LINE SMOOTH",
"438 -57 OFFCURVE",
"403 -75 OFFCURVE",
"365 -75 CURVE SMOOTH",
"347 -75 OFFCURVE",
"330 -71 OFFCURVE",
"314 -63 CURVE",
"279 -179 LINE"
);
}
);
userData = {
com.schriftgestaltung.Glyphs.lastChange = "2021-03-02 23:46:34 +0000";
};
width = 726;
},
{
layerId = master02;
paths = (
{
closed = 1;
nodes = (
"140 0 LINE",
"289 690 LINE",
"157 690 LINE",
"10 0 LINE"
);
},
{
closed = 1;
nodes = (
"378 0 LINE",
"506 0 LINE",
"338 690 LINE",
"210 690 LINE"
);
},
{
closed = 1;
nodes = (
"253 -189 OFFCURVE",
"286 -197 OFFCURVE",
"318 -197 CURVE",
"418 -197 OFFCURVE",
"479 -133 OFFCURVE",
"508 1 CURVE SMOOTH",
"655 690 LINE",
"525 690 LINE",
"379 5 LINE SMOOTH",
"368 -46 OFFCURVE",
"342 -73 OFFCURVE",
"308 -73 CURVE",
"295 -73 OFFCURVE",
"280 -68 OFFCURVE",
"267 -61 CURVE",
"232 -179 LINE"
);
}
);
userData = {
com.schriftgestaltung.Glyphs.lastChange = "2021-03-03 00:29:32 +0000";
};
width = 638;
},
{
layerId = master03;
paths = (
{
closed = 1;
nodes = (
"96 0 LINE",
"243 690 LINE",
"181 690 LINE",
"34 0 LINE"
);
},
{
closed = 1;
nodes = (
"383 0 LINE",
"445 0 LINE",
"261 690 LINE",
"199 690 LINE"
);
},
{
closed = 1;
nodes = (
"223 -184 OFFCURVE",
"254 -193 OFFCURVE",
"283 -193 CURVE",
"360 -193 OFFCURVE",
"414 -147 OFFCURVE",
"435 -48 CURVE SMOOTH",
"592 690 LINE",
"530 690 LINE",
"373 -47 LINE SMOOTH",
"358 -116 OFFCURVE",
"324 -140 OFFCURVE",
"280 -140 CURVE",
"261 -140 OFFCURVE",
"240 -134 OFFCURVE",
"225 -127 CURVE",
"203 -173 LINE"
);
}
);
userData = {
com.schriftgestaltung.Glyphs.lastChange = "2021-03-04 11:51:41 +0000";
};
width = 590;
},
{
layerId = master04;
paths = (
{
closed = 1;
nodes = (
"101 0 LINE",
"248 690 LINE",
"164 690 LINE",
"17 0 LINE"
);
},
{
closed = 1;
nodes = (
"369 0 LINE",
"449 0 LINE",
"275 690 LINE",
"194 690 LINE"
);
},
{
closed = 1;
nodes = (
"232 -186 OFFCURVE",
"258 -195 OFFCURVE",
"287 -195 CURVE SMOOTH",
"367 -195 OFFCURVE",
"420 -155 OFFCURVE",
"446 -34 CURVE SMOOTH",
"599 690 LINE",
"515 690 LINE",
"361 -32 LINE SMOOTH",
"347 -97 OFFCURVE",
"320 -120 OFFCURVE",
"284 -120 CURVE SMOOTH",
"269 -120 OFFCURVE",
"252 -115 OFFCURVE",
"240 -107 CURVE",
"214 -175 LINE"
);
}
);
userData = {
com.schriftgestaltung.Glyphs.lastChange = "2021-03-04 11:38:38 +0000";
};
width = 590;
},
{
layerId = master05;
paths = (
{
closed = 1;
nodes = (
"106 0 LINE",
"253 690 LINE",
"191 690 LINE",
"44 0 LINE"
);
},
{
closed = 1;
nodes = (
"483 0 LINE",
"545 0 LINE",
"271 690 LINE",
"209 690 LINE"
);
},
{
closed = 1;
nodes = (
"323 -184 OFFCURVE",
"354 -193 OFFCURVE",
"383 -193 CURVE",
"460 -193 OFFCURVE",
"514 -147 OFFCURVE",
"535 -48 CURVE SMOOTH",
"692 690 LINE",
"630 690 LINE",
"473 -47 LINE SMOOTH",
"458 -116 OFFCURVE",
"424 -140 OFFCURVE",
"380 -140 CURVE",
"361 -140 OFFCURVE",
"340 -134 OFFCURVE",
"325 -127 CURVE",
"303 -173 LINE"
);
}
);
userData = {
com.schriftgestaltung.Glyphs.lastChange = "2021-03-03 00:29:23 +0000";
};
width = 709;
},
{
layerId = master06;
paths = (
{
closed = 1;
nodes = (
"126 0 LINE",
"273 690 LINE",
"182 690 LINE",
"35 0 LINE"
);
},
{
closed = 1;
nodes = (
"475 0 LINE",
"564 0 LINE",
"304 690 LINE",
"213 690 LINE"
);
},
{
closed = 1;
nodes = (
"319 -186 OFFCURVE",
"349 -195 OFFCURVE",
"382 -195 CURVE",
"472 -195 OFFCURVE",
"532 -153 OFFCURVE",
"558 -32 CURVE SMOOTH",
"712 690 LINE",
"621 690 LINE",
"468 -30 LINE SMOOTH",
"454 -94 OFFCURVE",
"422 -117 OFFCURVE",
"378 -117 CURVE",
"359 -117 OFFCURVE",
"339 -112 OFFCURVE",
"324 -104 CURVE",
"298 -175 LINE"
);
}
);
userData = {
com.schriftgestaltung.Glyphs.lastChange = "2021-03-02 23:45:59 +0000";
};
width = 720;
}
);
leftKerningGroup = H;
rightKerningGroup = H;
unicode = 014A;
},
{
color = 5;
glyphname = O;
layers = (
{
anchors = (
{
name = bottom;
position = "{307, 0}";
},
{
name = horn;
position = "{576, 690}";
},
{
name = ogonek;
position = "{360, 0}";
},
{
name = top;
position = "{454, 690}";
}
);
layerId = master01;
paths = (
{
closed = 1;
nodes = (
"46 85 OFFCURVE",
"152 -12 OFFCURVE",
"305 -12 CURVE",
"527 -12 OFFCURVE",
"714 193 OFFCURVE",
"715 439 CURVE SMOOTH",
"714 605 OFFCURVE",
"608 702 OFFCURVE",
"456 702 CURVE",
"233 702 OFFCURVE",
"46 497 OFFCURVE",
"46 251 CURVE SMOOTH"
);
},
{
closed = 1;
nodes = (
"211 436 OFFCURVE",
"313 559 OFFCURVE",
"425 559 CURVE",
"500 559 OFFCURVE",
"550 513 OFFCURVE",
"550 418 CURVE SMOOTH",
"550 254 OFFCURVE",
"447 131 OFFCURVE",
"336 131 CURVE",
"260 131 OFFCURVE",
"211 177 OFFCURVE",
"211 272 CURVE SMOOTH"
);
}
);
userData = {
com.schriftgestaltung.Glyphs.lastChange = "2021-03-08 22:10:05 +0000";
};
width = 734;
},
{
anchors = (
{
name = bottom;
position = "{255, 0}";
},
{
name = horn;
position = "{488, 690}";
},
{
name = ogonek;
position = "{295, 0}";
},
{
name = top;
position = "{401, 690}";
}
);
layerId = master02;
paths = (
{
closed = 1;
nodes = (
"42 91 OFFCURVE",
"127 -12 OFFCURVE",
"254 -12 CURVE",
"444 -12 OFFCURVE",
"612 187 OFFCURVE",
"612 448 CURVE",
"612 599 OFFCURVE",
"527 702 OFFCURVE",
"401 702 CURVE",
"210 702 OFFCURVE",
"42 503 OFFCURVE",
"42 243 CURVE"
);
},
{
closed = 1;
nodes = (
"193 444 OFFCURVE",
"282 565 OFFCURVE",
"373 565 CURVE",
"428 565 OFFCURVE",
"461 520 OFFCURVE",
"461 433 CURVE",
"461 246 OFFCURVE",
"371 125 OFFCURVE",
"281 125 CURVE",
"225 125 OFFCURVE",
"193 170 OFFCURVE",
"193 258 CURVE"
);
}
);
userData = {
com.schriftgestaltung.Glyphs.lastChange = "2021-03-08 21:43:41 +0000";
};
width = 627;
},
{
anchors = (
{
name = bottom;
position = "{251, 0}";
},
{
name = horn;
position = "{469, 690}";
},
{
name = ogonek;
position = "{276, 0}";
},
{
name = top;
position = "{374, 690}";
}
);
layerId = master03;
paths = (
{
closed = 1;
nodes = (
"57 82 OFFCURVE",
"132 -8 OFFCURVE",
"246 -8 CURVE SMOOTH",
"431 -8 OFFCURVE",
"557 208 OFFCURVE",
"557 451 CURVE SMOOTH",
"557 602 OFFCURVE",
"480 698 OFFCURVE",
"362 698 CURVE SMOOTH",
"187 698 OFFCURVE",
"57 492 OFFCURVE",
"57 239 CURVE SMOOTH"
);
},
{
closed = 1;
nodes = (
"122 462 OFFCURVE",
"219 641 OFFCURVE",
"355 641 CURVE SMOOTH",
"439 641 OFFCURVE",
"492 561 OFFCURVE",
"492 444 CURVE SMOOTH",
"492 238 OFFCURVE",
"399 49 OFFCURVE",
"253 49 CURVE SMOOTH",
"182 49 OFFCURVE",
"122 123 OFFCURVE",
"122 246 CURVE SMOOTH"
);
}
);
userData = {
com.schriftgestaltung.Glyphs.lastChange = "2021-03-08 21:27:51 +0000";
};
width = 585;
},
{
anchors = (
{
name = bottom;
position = "{227, 0}";
},
{
name = horn;
position = "{459, 690}";
},
{
name = ogonek;
position = "{282, 0}";
},
{
name = top;
position = "{378, 690}";
}
);
layerId = master04;
paths = (
{
closed = 1;
nodes = (
"49 79 OFFCURVE",
"120 -10 OFFCURVE",
"237 -10 CURVE SMOOTH",
"415 -10 OFFCURVE",
"563 204 OFFCURVE",
"563 459 CURVE SMOOTH",
"563 611 OFFCURVE",
"491 700 OFFCURVE",
"376 700 CURVE SMOOTH",
"196 700 OFFCURVE",
"49 485 OFFCURVE",
"49 231 CURVE SMOOTH"
);
},
{
closed = 1;
nodes = (
"144 443 OFFCURVE",
"253 615 OFFCURVE",
"365 615 CURVE SMOOTH",
"432 615 OFFCURVE",
"469 555 OFFCURVE",
"469 447 CURVE SMOOTH",
"469 243 OFFCURVE",
"360 75 OFFCURVE",
"247 75 CURVE SMOOTH",
"180 75 OFFCURVE",
"144 135 OFFCURVE",
"144 243 CURVE SMOOTH"
);
}
);
userData = {
com.schriftgestaltung.Glyphs.lastChange = "2021-03-08 21:32:11 +0000";
};
width = 585;
},
{
anchors = (
{
name = bottom;
position = "{286, 0}";
},
{
name = horn;
position = "{553, 690}";
},
{
name = ogonek;
position = "{340, 0}";
},
{
name = top;
position = "{442, 690}";
}
);
layerId = master05;
paths = (
{
closed = 1;
nodes = (
"67 76 OFFCURVE",
"159 -8 OFFCURVE",
"285 -8 CURVE",
"480 -8 OFFCURVE",
"657 208 OFFCURVE",
"657 461 CURVE",
"657 614 OFFCURVE",
"566 698 OFFCURVE",
"439 698 CURVE",
"244 698 OFFCURVE",
"67 482 OFFCURVE",
"67 229 CURVE"
);
},
{
closed = 1;
nodes = (
"132 452 OFFCURVE",
"276 641 OFFCURVE",
"432 641 CURVE",
"529 641 OFFCURVE",
"592 575 OFFCURVE",
"592 454 CURVE",
"592 238 OFFCURVE",
"448 49 OFFCURVE",
"292 49 CURVE",
"195 49 OFFCURVE",
"132 115 OFFCURVE",
"132 236 CURVE"
);
}
);
userData = {
com.schriftgestaltung.Glyphs.lastChange = "2021-03-08 21:45:54 +0000";
};
width = 697;
},
{
anchors = (
{
name = bottom;
position = "{286, 0}";
},
{
name = horn;
position = "{556, 690}";
},
{
name = ogonek;
position = "{360, 0}";
},
{
name = top;
position = "{441, 690}";
}
);
layerId = master06;
paths = (
{
closed = 1;
nodes = (
"60 79 OFFCURVE",
"157 -10 OFFCURVE",
"293 -10 CURVE",
"497 -10 OFFCURVE",
"678 203 OFFCURVE",
"678 453 CURVE",
"678 611 OFFCURVE",
"581 700 OFFCURVE",
"446 700 CURVE",
"241 700 OFFCURVE",
"60 487 OFFCURVE",
"60 237 CURVE"
);
},
{
closed = 1;
nodes = (
"161 446 OFFCURVE",
"290 612 OFFCURVE",
"430 612 CURVE",
"519 612 OFFCURVE",
"577 553 OFFCURVE",
"578 441 CURVE",
"577 244 OFFCURVE",
"448 78 OFFCURVE",
"308 78 CURVE",
"219 78 OFFCURVE",
"161 137 OFFCURVE",
"161 249 CURVE"
);
}
);
userData = {
com.schriftgestaltung.Glyphs.lastChange = "2021-03-08 22:08:12 +0000";
};
width = 711;
}
);
leftKerningGroup = O;
rightKerningGroup = O;
unicode = 004F;
},
{
color = 5;
glyphname = Oslash;
layers = (
{
anchors = (
{
name = top;
position = "{454, 690}";
}
);
layerId = master01;
paths = (
{
closed = 1;
nodes = (
"46 85 OFFCURVE",
"152 -12 OFFCURVE",
"305 -12 CURVE",
"527 -12 OFFCURVE",
"714 193 OFFCURVE",
"715 439 CURVE SMOOTH",
"714 605 OFFCURVE",
"608 702 OFFCURVE",
"456 702 CURVE",
"233 702 OFFCURVE",
"46 497 OFFCURVE",
"46 251 CURVE SMOOTH"
);
},
{
closed = 1;
nodes = (
"211 436 OFFCURVE",
"313 559 OFFCURVE",
"425 559 CURVE",
"500 559 OFFCURVE",
"550 513 OFFCURVE",
"550 418 CURVE SMOOTH",
"550 254 OFFCURVE",
"447 131 OFFCURVE",
"336 131 CURVE",
"260 131 OFFCURVE",
"211 177 OFFCURVE",
"211 272 CURVE SMOOTH"
);
},
{
closed = 1;
nodes = (
"52 -12 LINE",
"781 615 LINE",
"708 702 LINE",
"-20 75 LINE"
);
}
);
userData = {
com.schriftgestaltung.Glyphs.lastChange = "2021-03-02 23:46:34 +0000";
};
width = 734;
},
{
anchors = (
{
name = top;
position = "{398, 690}";
}
);
layerId = master02;
paths = (
{
closed = 1;
nodes = (
"42 91 OFFCURVE",
"127 -12 OFFCURVE",
"254 -12 CURVE",
"444 -12 OFFCURVE",
"612 187 OFFCURVE",
"612 448 CURVE",
"612 599 OFFCURVE",
"527 702 OFFCURVE",
"401 702 CURVE",
"210 702 OFFCURVE",
"42 503 OFFCURVE",
"42 243 CURVE"
);
},
{
closed = 1;
nodes = (
"193 444 OFFCURVE",
"282 565 OFFCURVE",
"373 565 CURVE",
"428 565 OFFCURVE",
"461 520 OFFCURVE",
"461 433 CURVE",
"461 246 OFFCURVE",
"371 125 OFFCURVE",
"281 125 CURVE",
"225 125 OFFCURVE",
"193 170 OFFCURVE",
"193 258 CURVE"
);
},
{
closed = 1;
nodes = (
"41 -10 LINE",
"679 623 LINE",
"612 702 LINE",
"-25 69 LINE"
);
}
);
userData = {
com.schriftgestaltung.Glyphs.lastChange = "2021-03-03 00:29:32 +0000";
};
width = 627;
},
{
anchors = (
{
name = top;
position = "{424, 690}";
}
);
layerId = master03;
paths = (
{
closed = 1;
nodes = (
"68 76 OFFCURVE",
"150 -8 OFFCURVE",
"246 -8 CURVE SMOOTH",
"441 -8 OFFCURVE",
"568 208 OFFCURVE",
"568 461 CURVE SMOOTH",
"568 614 OFFCURVE",
"496 698 OFFCURVE",
"400 698 CURVE SMOOTH",
"205 698 OFFCURVE",
"68 482 OFFCURVE",
"68 229 CURVE SMOOTH"
);
},
{
closed = 1;
nodes = (
"133 452 OFFCURVE",
"237 641 OFFCURVE",
"393 641 CURVE SMOOTH",
"460 641 OFFCURVE",
"503 575 OFFCURVE",
"503 454 CURVE",
"503 238 OFFCURVE",
"409 49 OFFCURVE",
"253 49 CURVE SMOOTH",
"186 49 OFFCURVE",
"133 115 OFFCURVE",
"133 236 CURVE"
);
},
{
closed = 1;
nodes = (
"18 -10 LINE",
"646 662 LINE",
"610 701 LINE",
"-18 29 LINE"
);
}
);
userData = {
com.schriftgestaltung.Glyphs.lastChange = "2021-03-05 00:02:20 +0000";
};
width = 599;
},
{
anchors = (
{
name = top;
position = "{371, 690}";
}
);
layerId = master04;
paths = (
{
closed = 1;
nodes = (
"49 79 OFFCURVE",
"120 -10 OFFCURVE",
"237 -10 CURVE SMOOTH",
"415 -10 OFFCURVE",
"563 204 OFFCURVE",
"563 459 CURVE SMOOTH",
"563 611 OFFCURVE",
"491 700 OFFCURVE",
"376 700 CURVE SMOOTH",
"196 700 OFFCURVE",
"49 485 OFFCURVE",
"49 231 CURVE SMOOTH"
);
},
{
closed = 1;
nodes = (
"144 443 OFFCURVE",
"253 615 OFFCURVE",
"365 615 CURVE SMOOTH",
"432 615 OFFCURVE",
"469 555 OFFCURVE",
"469 447 CURVE",
"469 243 OFFCURVE",
"360 75 OFFCURVE",
"247 75 CURVE SMOOTH",
"180 75 OFFCURVE",
"144 135 OFFCURVE",
"144 243 CURVE"
);
},
{
closed = 1;
nodes = (
"33 -10 LINE",
"627 649 LINE",
"579 700 LINE",
"-15 41 LINE"
);
}
);
userData = {
com.schriftgestaltung.Glyphs.lastChange = "2021-03-05 00:02:19 +0000";
};
width = 585;
},
{
anchors = (
{
name = top;
position = "{433, 690}";
}
);
layerId = master05;
paths = (
{
closed = 1;
nodes = (
"67 76 OFFCURVE",
"159 -8 OFFCURVE",
"285 -8 CURVE",
"480 -8 OFFCURVE",
"657 208 OFFCURVE",
"657 461 CURVE",
"657 614 OFFCURVE",
"565 698 OFFCURVE",
"439 698 CURVE",
"244 698 OFFCURVE",
"67 482 OFFCURVE",
"67 229 CURVE"
);
},
{
closed = 1;
nodes = (
"132 452 OFFCURVE",
"276 641 OFFCURVE",
"432 641 CURVE",
"529 641 OFFCURVE",
"592 575 OFFCURVE",
"592 454 CURVE",
"592 238 OFFCURVE",
"448 49 OFFCURVE",
"292 49 CURVE",
"195 49 OFFCURVE",
"132 115 OFFCURVE",
"132 236 CURVE"
);
},
{
closed = 1;
nodes = (
"17 -10 LINE",
"743 659 LINE",
"707 698 LINE",
"-19 29 LINE"
);
}
);
userData = {
com.schriftgestaltung.Glyphs.lastChange = "2021-03-03 00:29:23 +0000";
};
width = 697;
},
{
anchors = (
{
name = top;
position = "{441, 690}";
}
);
layerId = master06;
paths = (
{
closed = 1;
nodes = (
"60 79 OFFCURVE",
"157 -10 OFFCURVE",
"293 -10 CURVE",
"497 -10 OFFCURVE",
"678 203 OFFCURVE",
"678 453 CURVE",
"678 611 OFFCURVE",
"581 700 OFFCURVE",
"446 700 CURVE",
"241 700 OFFCURVE",
"60 487 OFFCURVE",
"60 237 CURVE"
);
},
{
closed = 1;
nodes = (
"161 446 OFFCURVE",
"290 612 OFFCURVE",
"430 612 CURVE",
"519 612 OFFCURVE",
"577 553 OFFCURVE",
"578 441 CURVE",
"577 244 OFFCURVE",
"448 78 OFFCURVE",
"308 78 CURVE",
"219 78 OFFCURVE",
"161 137 OFFCURVE",
"161 249 CURVE"
);
},
{
closed = 1;
nodes = (
"37 -10 LINE",
"749 647 LINE",
"701 700 LINE",
"-11 43 LINE"
);
}
);
userData = {
com.schriftgestaltung.Glyphs.lastChange = "2021-03-02 23:45:59 +0000";
};
width = 711;
}
);
leftKerningGroup = O;
rightKerningGroup = O;
unicode = 00D8;
},
{
color = 5;
glyphname = OE;
layers = (
{
layerId = master01;
paths = (
{
closed = 1;
nodes = (
"52 98 OFFCURVE",
"187 0 OFFCURVE",
"359 0 CURVE SMOOTH",
"445 0 LINE",
"475 140 LINE",
"385 140 LINE SMOOTH",
"284 140 OFFCURVE",
"217 182 OFFCURVE",
"217 305 CURVE",
"217 432 OFFCURVE",
"322 550 OFFCURVE",
"476 550 CURVE SMOOTH",
"562 550 LINE",
"592 690 LINE",
"502 690 LINE SMOOTH",
"236 690 OFFCURVE",
"52 517 OFFCURVE",
"52 283 CURVE"
);
},
{
closed = 1;
nodes = (
"583 0 LINE",
"730 690 LINE",
"570 690 LINE",
"423 0 LINE"
);
},
{
closed = 1;
nodes = (
"883 0 LINE",
"913 140 LINE",
"527 140 LINE",
"497 0 LINE"
);
},
{
closed = 1;
nodes = (
"891 282 LINE",
"919 414 LINE",
"585 414 LINE",
"557 282 LINE"
);
},
{
closed = 1;
nodes = (
"995 550 LINE",
"1025 690 LINE",
"644 690 LINE",
"614 550 LINE"
);
}
);
userData = {
com.schriftgestaltung.Glyphs.lastChange = "2021-03-02 23:46:34 +0000";
};
width = 988;
},
{
layerId = master02;
paths = (
{
closed = 1;
nodes = (
"47 96 OFFCURVE",
"149 0 OFFCURVE",
"296 0 CURVE SMOOTH",
"368 0 LINE",
"400 134 LINE",
"324 134 LINE SMOOTH",
"243 134 OFFCURVE",
"198 178 OFFCURVE",
"198 301 CURVE SMOOTH",
"198 434 OFFCURVE",
"289 556 OFFCURVE",
"412 556 CURVE SMOOTH",
"484 556 LINE",
"516 690 LINE",
"441 690 LINE SMOOTH",
"215 690 OFFCURVE",
"47 516 OFFCURVE",
"47 281 CURVE SMOOTH"
);
},
{
closed = 1;
nodes = (
"495 0 LINE",
"642 690 LINE",
"496 690 LINE",
"349 0 LINE"
);
},
{
closed = 1;
nodes = (
"751 0 LINE",
"779 134 LINE",
"428 134 LINE",
"396 0 LINE"
);
},
{
closed = 1;
nodes = (
"767 285 LINE",
"793 411 LINE",
"486 411 LINE",
"456 285 LINE"
);
},
{
closed = 1;
nodes = (
"864 556 LINE",
"893 690 LINE",
"544 690 LINE",
"515 556 LINE"
);
}
);
userData = {
com.schriftgestaltung.Glyphs.lastChange = "2021-03-03 00:29:32 +0000";
};
width = 856;
},
{
layerId = master03;
paths = (
{
closed = 1;
nodes = (
"62 97 OFFCURVE",
"148 0 OFFCURVE",
"298 0 CURVE SMOOTH",
"363 0 LINE",
"374 54 LINE",
"309 54 LINE SMOOTH",
"182 54 OFFCURVE",
"127 140 OFFCURVE",
"127 256 CURVE SMOOTH",
"127 437 OFFCURVE",
"222 636 OFFCURVE",
"429 636 CURVE SMOOTH",
"498 636 LINE",
"510 690 LINE",
"441 690 LINE SMOOTH",
"193 690 OFFCURVE",
"62 485 OFFCURVE",
"62 252 CURVE SMOOTH"
);
},
{
closed = 1;
nodes = (
"412 0 LINE",
"559 690 LINE",
"497 690 LINE",
"350 0 LINE"
);
},
{
closed = 1;
nodes = (
"656 0 LINE",
"667 54 LINE",
"391 54 LINE",
"380 0 LINE"
);
},
{
closed = 1;
nodes = (
"673 322 LINE",
"684 374 LINE",
"459 374 LINE",
"448 322 LINE"
);
},
{
closed = 1;
nodes = (
"786 636 LINE",
"798 690 LINE",
"527 690 LINE",
"515 636 LINE"
);
}
);
userData = {
com.schriftgestaltung.Glyphs.lastChange = "2021-03-04 11:53:00 +0000";
};
width = 780;
},
{
layerId = master04;
paths = (
{
closed = 1;
nodes = (
"51 90 OFFCURVE",
"141 0 OFFCURVE",
"271 0 CURVE SMOOTH",
"339 0 LINE",
"359 82 LINE",
"289 82 LINE SMOOTH",
"198 82 OFFCURVE",
"146 147 OFFCURVE",
"146 261 CURVE SMOOTH",
"146 443 OFFCURVE",
"254 608 OFFCURVE",
"400 608 CURVE SMOOTH",
"465 608 LINE",
"485 690 LINE",
"414 690 LINE SMOOTH",
"208 690 OFFCURVE",
"51 501 OFFCURVE",
"51 252 CURVE SMOOTH"
);
},
{
closed = 1;
nodes = (
"414 0 LINE",
"561 690 LINE",
"472 690 LINE",
"325 0 LINE"
);
},
{
closed = 1;
nodes = (
"670 0 LINE",
"687 82 LINE",
"387 82 LINE",
"367 0 LINE"
);
},
{
closed = 1;
nodes = (
"692 309 LINE",
"708 387 LINE",
"450 387 LINE",
"431 309 LINE"
);
},
{
closed = 1;
nodes = (
"791 608 LINE",
"809 690 LINE",
"513 690 LINE",
"493 608 LINE"
);
}
);
userData = {
com.schriftgestaltung.Glyphs.lastChange = "2021-03-02 23:38:03 +0000";
};
width = 785;
},
{
layerId = master05;
paths = (
{
closed = 1;
nodes = (
"72 77 OFFCURVE",
"188 0 OFFCURVE",
"338 0 CURVE SMOOTH",
"423 0 LINE",
"434 54 LINE",
"349 54 LINE SMOOTH",
"222 54 OFFCURVE",
"137 120 OFFCURVE",
"137 256 CURVE SMOOTH",
"137 457 OFFCURVE",
"262 636 OFFCURVE",
"469 636 CURVE SMOOTH",
"558 636 LINE",
"570 690 LINE",
"481 690 LINE SMOOTH",
"233 690 OFFCURVE",
"72 505 OFFCURVE",
"72 252 CURVE SMOOTH"
);
},
{
closed = 1;
nodes = (
"472 0 LINE",
"619 690 LINE",
"557 690 LINE",
"410 0 LINE"
);
},
{
closed = 1;
nodes = (
"806 0 LINE",
"817 54 LINE",
"451 54 LINE",
"440 0 LINE"
);
},
{
closed = 1;
nodes = (
"823 322 LINE",
"834 374 LINE",
"519 374 LINE",
"508 322 LINE"
);
},
{
closed = 1;
nodes = (
"936 636 LINE",
"948 690 LINE",
"587 690 LINE",
"575 636 LINE"
);
}
);
userData = {
com.schriftgestaltung.Glyphs.lastChange = "2021-03-03 00:29:23 +0000";
};
width = 932;
},
{
layerId = master06;
paths = (
{
closed = 1;
nodes = (
"65 84 OFFCURVE",
"188 0 OFFCURVE",
"346 0 CURVE SMOOTH",
"431 0 LINE",
"449 85 LINE",
"362 85 LINE SMOOTH",
"244 85 OFFCURVE",
"166 142 OFFCURVE",
"166 273 CURVE SMOOTH",
"166 448 OFFCURVE",
"284 605 OFFCURVE",
"472 605 CURVE SMOOTH",
"560 605 LINE",
"578 690 LINE",
"489 690 LINE SMOOTH",
"234 690 OFFCURVE",
"65 509 OFFCURVE",
"65 263 CURVE SMOOTH"
);
},
{
closed = 1;
nodes = (
"512 0 LINE",
"659 690 LINE",
"562 690 LINE",
"415 0 LINE"
);
},
{
closed = 1;
nodes = (
"834 0 LINE",
"851 85 LINE",
"478 85 LINE",
"460 0 LINE"
);
},
{
closed = 1;
nodes = (
"847 308 LINE",
"864 388 LINE",
"543 388 LINE",
"526 308 LINE"
);
},
{
closed = 1;
nodes = (
"957 605 LINE",
"976 690 LINE",
"607 690 LINE",
"589 605 LINE"
);
}
);
userData = {
com.schriftgestaltung.Glyphs.lastChange = "2021-03-02 23:45:59 +0000";
};
width = 960;
}
);
leftKerningGroup = O;
rightKerningGroup = E;
unicode = 0152;
},
{
color = 5;
glyphname = P;
layers = (
{
layerId = master01;
paths = (
{
closed = 1;
nodes = (
"172 0 LINE",
"319 690 LINE",
"159 690 LINE",
"12 0 LINE"
);
},
{
closed = 1;
nodes = (
"298 190 LINE SMOOTH",
"497 190 OFFCURVE",
"631 312 OFFCURVE",
"631 476 CURVE",
"631 605 OFFCURVE",
"536 690 OFFCURVE",
"395 690 CURVE SMOOTH",
"233 690 LINE",
"203 552 LINE",
"356 552 LINE SMOOTH",
"431 552 OFFCURVE",
"467 518 OFFCURVE",
"467 461 CURVE",
"467 383 OFFCURVE",
"407 328 OFFCURVE",
"305 328 CURVE SMOOTH",
"156 328 LINE",
"126 190 LINE"
);
}
);
userData = {
com.schriftgestaltung.Glyphs.lastChange = "2021-03-02 23:46:34 +0000";
};
width = 626;
},
{
layerId = master02;
paths = (
{
closed = 1;
nodes = (
"156 0 LINE",
"303 690 LINE",
"157 690 LINE",
"10 0 LINE"
);
},
{
closed = 1;
nodes = (
"262 194 LINE SMOOTH",
"432 194 OFFCURVE",
"555 315 OFFCURVE",
"555 482 CURVE",
"555 609 OFFCURVE",
"477 690 OFFCURVE",
"353 690 CURVE SMOOTH",
"225 690 LINE",
"193 558 LINE",
"321 558 LINE SMOOTH",
"381 558 OFFCURVE",
"406 523 OFFCURVE",
"406 468 CURVE",
"406 383 OFFCURVE",
"354 326 OFFCURVE",
"273 326 CURVE SMOOTH",
"148 326 LINE",
"116 194 LINE"
);
}
);
userData = {
com.schriftgestaltung.Glyphs.lastChange = "2021-03-03 00:29:32 +0000";
};
width = 551;
},
{
layerId = master03;
paths = (
{
closed = 1;
nodes = (
"83 0 LINE",
"230 690 LINE",
"168 690 LINE",
"21 0 LINE"
);
},
{
closed = 1;
nodes = (
"199 250 LINE SMOOTH",
"378 250 OFFCURVE",
"484 360 OFFCURVE",
"484 509 CURVE SMOOTH",
"484 616 OFFCURVE",
"412 690 OFFCURVE",
"293 690 CURVE SMOOTH",
"198 690 LINE",
"186 636 LINE",
"281 636 LINE SMOOTH",
"379 636 OFFCURVE",
"419 587 OFFCURVE",
"419 503 CURVE SMOOTH",
"419 388 OFFCURVE",
"348 304 OFFCURVE",
"206 304 CURVE SMOOTH",
"116 304 LINE",
"104 250 LINE"
);
}
);
userData = {
com.schriftgestaltung.Glyphs.lastChange = "2021-03-04 11:58:56 +0000";
};
width = 487;
},
{
layerId = master04;
paths = (
{
closed = 1;
nodes = (
"106 0 LINE",
"253 690 LINE",
"164 690 LINE",
"17 0 LINE"
);
},
{
closed = 1;
nodes = (
"219 231 LINE",
"401 231 OFFCURVE",
"506 361 OFFCURVE",
"506 512 CURVE",
"506 609 OFFCURVE",
"443 690 OFFCURVE",
"315 690 CURVE",
"206 690 LINE",
"185 608 LINE",
"290 608 LINE",
"379 608 OFFCURVE",
"412 571 OFFCURVE",
"412 502 CURVE",
"412 411 OFFCURVE",
"362 312 OFFCURVE",
"228 312 CURVE",
"127 312 LINE",
"106 231 LINE"
);
}
);
userData = {
com.schriftgestaltung.Glyphs.lastChange = "2021-03-02 23:38:03 +0000";
};
width = 502;
},
{
layerId = master05;
paths = (
{
closed = 1;
nodes = (
"106 0 LINE",
"253 690 LINE",
"191 690 LINE",
"44 0 LINE"
);
},
{
closed = 1;
nodes = (
"286 250 LINE SMOOTH",
"465 250 OFFCURVE",
"591 360 OFFCURVE",
"591 509 CURVE SMOOTH",
"591 616 OFFCURVE",
"499 690 OFFCURVE",
"380 690 CURVE SMOOTH",
"221 690 LINE",
"209 636 LINE",
"368 636 LINE SMOOTH",
"466 636 OFFCURVE",
"526 587 OFFCURVE",
"526 503 CURVE",
"526 388 OFFCURVE",
"435 304 OFFCURVE",
"293 304 CURVE SMOOTH",
"139 304 LINE",
"127 250 LINE"
);
}
);
userData = {
com.schriftgestaltung.Glyphs.lastChange = "2021-03-03 00:29:23 +0000";
};
width = 599;
},
{
layerId = master06;
paths = (
{
closed = 1;
nodes = (
"132 0 LINE",
"279 690 LINE",
"182 690 LINE",
"35 0 LINE"
);
},
{
closed = 1;
nodes = (
"293 229 LINE SMOOTH",
"479 229 OFFCURVE",
"608 343 OFFCURVE",
"608 497 CURVE SMOOTH",
"608 612 OFFCURVE",
"515 690 OFFCURVE",
"388 690 CURVE SMOOTH",
"228 690 LINE",
"209 605 LINE",
"366 605 LINE SMOOTH",
"456 605 OFFCURVE",
"507 563 OFFCURVE",
"507 488 CURVE",
"507 386 OFFCURVE",
"428 313 OFFCURVE",
"300 313 CURVE SMOOTH",
"148 313 LINE",
"129 229 LINE"
);
}
);
userData = {
com.schriftgestaltung.Glyphs.lastChange = "2021-03-02 23:45:59 +0000";
};
width = 613;
}
);
leftKerningGroup = H;
unicode = 0050;
},
{
color = 5;
glyphname = Thorn;
layers = (
{
layerId = master01;
paths = (
{
closed = 1;
nodes = (
"172 0 LINE",
"319 690 LINE",
"159 690 LINE",
"12 0 LINE"
);
},
{
closed = 1;
nodes = (
"295 100 LINE SMOOTH",
"494 100 OFFCURVE",
"621 197 OFFCURVE",
"621 398 CURVE SMOOTH",
"621 515 OFFCURVE",
"534 590 OFFCURVE",
"399 590 CURVE SMOOTH",
"211 590 LINE",
"182 450 LINE",
"363 450 LINE SMOOTH",
"424 450 OFFCURVE",
"454 424 OFFCURVE",
"454 372 CURVE SMOOTH",
"454 295 OFFCURVE",
"403 240 OFFCURVE",
"318 240 CURVE SMOOTH",
"137 240 LINE",
"107 100 LINE"
);
}
);
userData = {
com.schriftgestaltung.Glyphs.lastChange = "2021-03-02 23:46:34 +0000";
};
width = 636;
},
{
layerId = master02;
paths = (
{
closed = 1;
nodes = (
"156 0 LINE",
"303 690 LINE",
"157 690 LINE",
"10 0 LINE"
);
},
{
closed = 1;
nodes = (
"246 104 LINE SMOOTH",
"416 104 OFFCURVE",
"539 221 OFFCURVE",
"539 385 CURVE SMOOTH",
"539 509 OFFCURVE",
"461 586 OFFCURVE",
"337 586 CURVE",
"209 586 LINE",
"177 454 LINE",
"305 454 LINE SMOOTH",
"365 454 OFFCURVE",
"390 423 OFFCURVE",
"390 371 CURVE SMOOTH",
"390 289 OFFCURVE",
"338 236 OFFCURVE",
"257 236 CURVE",
"132 236 LINE",
"100 104 LINE"
);
}
);
userData = {
com.schriftgestaltung.Glyphs.lastChange = "2021-03-03 00:29:32 +0000";
};
width = 555;
},
{
layerId = master03;
paths = (
{
closed = 1;
nodes = (
"106 0 LINE",
"253 690 LINE",
"191 690 LINE",
"44 0 LINE"
);
},
{
closed = 1;
nodes = (
"192 150 LINE SMOOTH",
"352 150 OFFCURVE",
"455 239 OFFCURVE",
"455 389 CURVE SMOOTH",
"455 488 OFFCURVE",
"378 540 OFFCURVE",
"273 540 CURVE SMOOTH",
"189 540 LINE",
"177 486 LINE",
"261 486 LINE SMOOTH",
"344 486 OFFCURVE",
"390 452 OFFCURVE",
"390 380 CURVE SMOOTH",
"390 278 OFFCURVE",
"316 204 OFFCURVE",
"200 204 CURVE SMOOTH",
"117 204 LINE",
"106 150 LINE"
);
}
);
userData = {
com.schriftgestaltung.Glyphs.lastChange = "2021-03-08 22:17:47 +0000";
};
width = 483;
},
{
layerId = master04;
paths = (
{
closed = 1;
nodes = (
"106 0 LINE",
"253 690 LINE",
"164 690 LINE",
"17 0 LINE"
);
},
{
closed = 1;
nodes = (
"237 134 LINE SMOOTH",
"378 134 OFFCURVE",
"490 225 OFFCURVE",
"490 392 CURVE SMOOTH",
"490 488 OFFCURVE",
"426 556 OFFCURVE",
"330 556 CURVE SMOOTH",
"179 556 LINE",
"159 474 LINE",
"307 474 LINE SMOOTH",
"364 474 OFFCURVE",
"397 435 OFFCURVE",
"397 378 CURVE SMOOTH",
"397 277 OFFCURVE",
"330 216 OFFCURVE",
"253 216 CURVE SMOOTH",
"106 216 LINE",
"86 134 LINE"
);
}
);
userData = {
com.schriftgestaltung.Glyphs.lastChange = "2021-03-02 23:38:03 +0000";
};
width = 502;
},
{
layerId = master05;
paths = (
{
closed = 1;
nodes = (
"106 0 LINE",
"253 690 LINE",
"191 690 LINE",
"44 0 LINE"
);
},
{
closed = 1;
nodes = (
"310 150 LINE SMOOTH",
"470 150 OFFCURVE",
"573 239 OFFCURVE",
"573 389 CURVE SMOOTH",
"573 488 OFFCURVE",
"496 540 OFFCURVE",
"391 540 CURVE SMOOTH",
"189 540 LINE",
"177 486 LINE",
"379 486 LINE SMOOTH",
"462 486 OFFCURVE",
"508 452 OFFCURVE",
"508 380 CURVE SMOOTH",
"508 278 OFFCURVE",
"434 204 OFFCURVE",
"318 204 CURVE SMOOTH",
"117 204 LINE",
"106 150 LINE"
);
}
);
userData = {
com.schriftgestaltung.Glyphs.lastChange = "2021-03-03 00:29:23 +0000";
};
width = 607;
},
{
layerId = master06;
paths = (
{
closed = 1;
nodes = (
"131 0 LINE",
"278 690 LINE",
"182 690 LINE",
"35 0 LINE"
);
},
{
closed = 1;
nodes = (
"307 132 LINE SMOOTH",
"481 132 OFFCURVE",
"592 224 OFFCURVE",
"592 392 CURVE SMOOTH",
"592 498 OFFCURVE",
"511 558 OFFCURVE",
"396 558 CURVE SMOOTH",
"199 558 LINE",
"181 473 LINE",
"375 473 LINE SMOOTH",
"451 473 OFFCURVE",
"494 443 OFFCURVE",
"494 378 CURVE SMOOTH",
"494 278 OFFCURVE",
"425 217 OFFCURVE",
"320 217 CURVE SMOOTH",
"126 217 LINE",
"108 132 LINE"
);
}
);
userData = {
com.schriftgestaltung.Glyphs.lastChange = "2021-03-02 23:45:59 +0000";
};
width = 621;
}
);
leftKerningGroup = H;
unicode = 00DE;
},
{
color = 5;
glyphname = Q;
layers = (
{
layerId = master01;
paths = (
{
closed = 1;
nodes = (
"366 -115 OFFCURVE",
"438 -172 OFFCURVE",
"594 -172 CURVE",
"627 -21 LINE",
"535 -21 OFFCURVE",
"492 -4 OFFCURVE",
"476 46 CURVE",
"348 9 LINE"
);
},
{
closed = 1;
nodes = (
"46 85 OFFCURVE",
"152 -12 OFFCURVE",
"305 -12 CURVE",
"527 -12 OFFCURVE",
"714 193 OFFCURVE",
"715 439 CURVE SMOOTH",
"714 605 OFFCURVE",
"608 702 OFFCURVE",
"456 702 CURVE",
"233 702 OFFCURVE",
"46 497 OFFCURVE",
"46 251 CURVE SMOOTH"
);
},
{
closed = 1;
nodes = (
"211 436 OFFCURVE",
"313 559 OFFCURVE",
"425 559 CURVE",
"500 559 OFFCURVE",
"550 513 OFFCURVE",
"550 418 CURVE SMOOTH",
"550 254 OFFCURVE",
"447 131 OFFCURVE",
"336 131 CURVE",
"260 131 OFFCURVE",
"211 177 OFFCURVE",
"211 272 CURVE SMOOTH"
);
}
);
userData = {
com.schriftgestaltung.Glyphs.lastChange = "2021-03-02 23:46:34 +0000";
};
width = 734;
},
{
layerId = master02;
paths = (
{
closed = 1;
nodes = (
"295 -114 OFFCURVE",
"353 -170 OFFCURVE",
"489 -170 CURVE",
"519 -26 LINE",
"441 -26 OFFCURVE",
"414 -8 OFFCURVE",
"404 45 CURVE",
"286 9 LINE"
);
},
{
closed = 1;
nodes = (
"42 91 OFFCURVE",
"127 -12 OFFCURVE",
"254 -12 CURVE",
"444 -12 OFFCURVE",
"612 187 OFFCURVE",
"612 448 CURVE",
"612 599 OFFCURVE",
"527 702 OFFCURVE",
"401 702 CURVE",
"210 702 OFFCURVE",
"42 503 OFFCURVE",
"42 243 CURVE"
);
},
{
closed = 1;
nodes = (
"193 444 OFFCURVE",
"282 565 OFFCURVE",
"373 565 CURVE",
"428 565 OFFCURVE",
"461 520 OFFCURVE",
"461 433 CURVE",
"461 246 OFFCURVE",
"371 125 OFFCURVE",
"281 125 CURVE",
"225 125 OFFCURVE",
"193 170 OFFCURVE",
"193 258 CURVE"
);
}
);
userData = {
com.schriftgestaltung.Glyphs.lastChange = "2021-03-03 00:29:32 +0000";
};
width = 627;
},
{
layerId = master03;
paths = (
{
closed = 1;
nodes = (
"339 -91 OFFCURVE",
"406 -126 OFFCURVE",
"489 -130 CURVE",
"503 -67 LINE",
"444 -67 OFFCURVE",
"389 -52 OFFCURVE",
"363 35 CURVE",
"308 13 LINE"
);
},
{
closed = 1;
nodes = (
"67 96 OFFCURVE",
"124 -8 OFFCURVE",
"250 -8 CURVE SMOOTH",
"435 -8 OFFCURVE",
"577 206 OFFCURVE",
"577 459 CURVE SMOOTH",
"577 612 OFFCURVE",
"512 698 OFFCURVE",
"386 698 CURVE SMOOTH",
"211 698 OFFCURVE",
"67 482 OFFCURVE",
"67 229 CURVE SMOOTH"
);
},
{
closed = 1;
nodes = (
"132 452 OFFCURVE",
"243 641 OFFCURVE",
"379 641 CURVE SMOOTH",
"476 641 OFFCURVE",
"512 573 OFFCURVE",
"512 452 CURVE SMOOTH",
"512 236 OFFCURVE",
"403 49 OFFCURVE",
"257 49 CURVE SMOOTH",
"160 49 OFFCURVE",
"132 135 OFFCURVE",
"132 236 CURVE SMOOTH"
);
}
);
userData = {
com.schriftgestaltung.Glyphs.lastChange = "2021-03-04 12:56:20 +0000";
};
width = 595;
},
{
layerId = master04;
paths = (
{
closed = 1;
nodes = (
"284 -91 OFFCURVE",
"345 -154 OFFCURVE",
"453 -157 CURVE",
"476 -66 LINE",
"404 -66 OFFCURVE",
"360 -41 OFFCURVE",
"346 34 CURVE",
"270 8 LINE"
);
},
{
closed = 1;
nodes = (
"49 79 OFFCURVE",
"121 -10 OFFCURVE",
"237 -10 CURVE SMOOTH",
"415 -10 OFFCURVE",
"563 204 OFFCURVE",
"563 459 CURVE SMOOTH",
"563 611 OFFCURVE",
"491 700 OFFCURVE",
"376 700 CURVE SMOOTH",
"196 700 OFFCURVE",
"49 485 OFFCURVE",
"49 231 CURVE SMOOTH"
);
},
{
closed = 1;
nodes = (
"144 443 OFFCURVE",
"253 615 OFFCURVE",
"365 615 CURVE SMOOTH",
"432 615 OFFCURVE",
"469 555 OFFCURVE",
"469 447 CURVE",
"469 243 OFFCURVE",
"360 75 OFFCURVE",
"247 75 CURVE SMOOTH",
"180 75 OFFCURVE",
"144 135 OFFCURVE",
"144 243 CURVE"
);
}
);
userData = {
com.schriftgestaltung.Glyphs.lastChange = "2021-03-02 23:38:03 +0000";
};
width = 595;
},
{
layerId = master05;
paths = (
{
closed = 1;
nodes = (
"373 -97 OFFCURVE",
"456 -146 OFFCURVE",
"569 -150 CURVE",
"583 -87 LINE",
"494 -87 OFFCURVE",
"423 -58 OFFCURVE",
"397 29 CURVE",
"342 7 LINE"
);
},
{
closed = 1;
nodes = (
"67 76 OFFCURVE",
"159 -8 OFFCURVE",
"285 -8 CURVE",
"480 -8 OFFCURVE",
"657 208 OFFCURVE",
"657 461 CURVE",
"657 614 OFFCURVE",
"565 698 OFFCURVE",
"439 698 CURVE",
"244 698 OFFCURVE",
"67 482 OFFCURVE",
"67 229 CURVE"
);
},
{
closed = 1;
nodes = (
"132 452 OFFCURVE",
"276 641 OFFCURVE",
"432 641 CURVE",
"529 641 OFFCURVE",
"592 575 OFFCURVE",
"592 454 CURVE",
"592 238 OFFCURVE",
"448 49 OFFCURVE",
"292 49 CURVE",
"195 49 OFFCURVE",
"132 115 OFFCURVE",
"132 236 CURVE"
);
}
);
userData = {
com.schriftgestaltung.Glyphs.lastChange = "2021-03-03 00:29:23 +0000";
};
width = 697;
},
{
layerId = master06;
paths = (
{
closed = 1;
nodes = (
"371 -103 OFFCURVE",
"450 -155 OFFCURVE",
"578 -158 CURVE",
"599 -64 LINE",
"509 -64 OFFCURVE",
"448 -39 OFFCURVE",
"425 35 CURVE",
"344 8 LINE"
);
},
{
closed = 1;
nodes = (
"60 79 OFFCURVE",
"157 -10 OFFCURVE",
"293 -10 CURVE",
"497 -10 OFFCURVE",
"678 203 OFFCURVE",
"678 453 CURVE",
"678 611 OFFCURVE",
"581 700 OFFCURVE",
"446 700 CURVE",
"241 700 OFFCURVE",
"60 487 OFFCURVE",
"60 237 CURVE"
);
},
{
closed = 1;
nodes = (
"161 446 OFFCURVE",
"290 612 OFFCURVE",
"430 612 CURVE",
"519 612 OFFCURVE",
"577 553 OFFCURVE",
"578 441 CURVE",
"577 244 OFFCURVE",
"448 78 OFFCURVE",
"308 78 CURVE",
"219 78 OFFCURVE",
"161 137 OFFCURVE",
"161 249 CURVE"
);
}
);
userData = {
com.schriftgestaltung.Glyphs.lastChange = "2021-03-02 23:45:59 +0000";
};
width = 711;
}
);
leftKerningGroup = O;
rightKerningGroup = O;
unicode = 0051;
},
{
color = 5;
glyphname = R;
layers = (
{
anchors = (
{
name = bottom;
position = "{277, 0}";
},
{
name = top;
position = "{380, 690}";
}
);
layerId = master01;
paths = (
{
closed = 1;
nodes = (
"172 0 LINE",
"319 690 LINE",
"159 690 LINE",
"12 0 LINE"
);
},
{
closed = 1;
nodes = (
"298 240 LINE SMOOTH",
"491 240 OFFCURVE",
"621 347 OFFCURVE",
"621 491 CURVE SMOOTH",
"621 615 OFFCURVE",
"531 690 OFFCURVE",
"390 690 CURVE SMOOTH",
"233 690 LINE",
"203 552 LINE",
"346 552 LINE SMOOTH",
"421 552 OFFCURVE",
"457 523 OFFCURVE",
"457 479 CURVE",
"457 413 OFFCURVE",
"401 368 OFFCURVE",
"305 368 CURVE SMOOTH",
"166 368 LINE",
"136 240 LINE"
);
},
{
closed = 1;
nodes = (
"382 0 LINE",
"551 0 LINE",
"436 290 LINE",
"282 290 LINE"
);
}
);
userData = {
com.schriftgestaltung.Glyphs.lastChange = "2021-03-02 23:46:34 +0000";
};
width = 631;
},
{
anchors = (
{
name = bottom;
position = "{237, 0}";
},
{
name = top;
position = "{348, 690}";
}
);
layerId = master02;
paths = (
{
closed = 1;
nodes = (
"156 0 LINE",
"303 690 LINE",
"157 690 LINE",
"10 0 LINE"
);
},
{
closed = 1;
nodes = (
"263 243 LINE SMOOTH",
"428 243 OFFCURVE",
"547 352 OFFCURVE",
"547 498 CURVE",
"547 618 OFFCURVE",
"473 690 OFFCURVE",
"351 690 CURVE SMOOTH",
"225 690 LINE",
"193 558 LINE",
"311 558 LINE SMOOTH",
"372 558 OFFCURVE",
"398 528 OFFCURVE",
"398 483 CURVE",
"398 412 OFFCURVE",
"349 365 OFFCURVE",
"274 365 CURVE SMOOTH",
"159 365 LINE",
"127 243 LINE"
);
},
{
closed = 1;
nodes = (
"318 0 LINE",
"472 0 LINE",
"383 290 LINE",
"247 290 LINE"
);
}
);
userData = {
com.schriftgestaltung.Glyphs.lastChange = "2021-03-03 00:29:32 +0000";
};
width = 559;
},
{
anchors = (
{
name = bottom;
position = "{185, 0}";
},
{
name = top;
position = "{310, 690}";
}
);
layerId = master03;
paths = (
{
closed = 1;
nodes = (
"86 0 LINE",
"233 690 LINE",
"171 690 LINE",
"24 0 LINE"
);
},
{
closed = 1;
nodes = (
"221 275 LINE SMOOTH",
"394 275 OFFCURVE",
"491 376 OFFCURVE",
"491 514 CURVE SMOOTH",
"491 618 OFFCURVE",
"423 690 OFFCURVE",
"310 690 CURVE SMOOTH",
"201 690 LINE",
"189 636 LINE",
"298 636 LINE SMOOTH",
"390 636 OFFCURVE",
"426 589 OFFCURVE",
"426 508 CURVE SMOOTH",
"426 404 OFFCURVE",
"364 329 OFFCURVE",
"228 329 CURVE SMOOTH",
"124 329 LINE",
"112 275 LINE"
);
},
{
closed = 1;
nodes = (
"349 0 LINE",
"415 0 LINE",
"306 290 LINE",
"244 290 LINE"
);
}
);
userData = {
com.schriftgestaltung.Glyphs.lastChange = "2021-03-04 12:56:20 +0000";
};
width = 519;
},
{
anchors = (
{
name = bottom;
position = "{215, 0}";
},
{
name = top;
position = "{328, 690}";
}
);
layerId = master04;
paths = (
{
closed = 1;
nodes = (
"106 0 LINE",
"253 690 LINE",
"164 690 LINE",
"17 0 LINE"
);
},
{
closed = 1;
nodes = (
"219 263 LINE SMOOTH",
"398 263 OFFCURVE",
"499 398 OFFCURVE",
"499 517 CURVE SMOOTH",
"499 611 OFFCURVE",
"447 690 OFFCURVE",
"315 690 CURVE SMOOTH",
"206 690 LINE",
"185 608 LINE",
"290 608 LINE SMOOTH",
"374 608 OFFCURVE",
"405 573 OFFCURVE",
"405 510 CURVE SMOOTH",
"405 428 OFFCURVE",
"351 342 OFFCURVE",
"228 342 CURVE SMOOTH",
"127 342 LINE",
"106 263 LINE"
);
},
{
closed = 1;
nodes = (
"323 0 LINE",
"419 0 LINE",
"334 290 LINE",
"246 290 LINE"
);
}
);
userData = {
com.schriftgestaltung.Glyphs.lastChange = "2021-03-02 23:38:03 +0000";
};
width = 519;
},
{
anchors = (
{
name = bottom;
position = "{265, 0}";
},
{
name = top;
position = "{370, 690}";
}
);
layerId = master05;
paths = (
{
closed = 1;
nodes = (
"106 0 LINE",
"253 690 LINE",
"191 690 LINE",
"44 0 LINE"
);
},
{
closed = 1;
nodes = (
"291 275 LINE SMOOTH",
"464 275 OFFCURVE",
"581 376 OFFCURVE",
"581 514 CURVE SMOOTH",
"581 618 OFFCURVE",
"493 690 OFFCURVE",
"380 690 CURVE SMOOTH",
"221 690 LINE",
"209 636 LINE",
"368 636 LINE SMOOTH",
"460 636 OFFCURVE",
"516 589 OFFCURVE",
"516 508 CURVE SMOOTH",
"516 404 OFFCURVE",
"434 329 OFFCURVE",
"298 329 CURVE SMOOTH",
"144 329 LINE",
"132 275 LINE"
);
},
{
closed = 1;
nodes = (
"439 0 LINE",
"505 0 LINE",
"376 290 LINE",
"314 290 LINE"
);
}
);
userData = {
com.schriftgestaltung.Glyphs.lastChange = "2021-03-03 00:29:23 +0000";
};
width = 617;
},
{
anchors = (
{
name = bottom;
position = "{276, 0}";
},
{
name = top;
position = "{381, 690}";
}
);
layerId = master06;
paths = (
{
closed = 1;
nodes = (
"132 0 LINE",
"279 690 LINE",
"182 690 LINE",
"35 0 LINE"
);
},
{
closed = 1;
nodes = (
"296 263 LINE SMOOTH",
"476 263 OFFCURVE",
"598 366 OFFCURVE",
"598 506 CURVE SMOOTH",
"598 617 OFFCURVE",
"509 690 OFFCURVE",
"386 690 CURVE SMOOTH",
"228 690 LINE",
"209 605 LINE",
"363 605 LINE SMOOTH",
"449 605 OFFCURVE",
"497 566 OFFCURVE",
"497 498 CURVE SMOOTH",
"497 407 OFFCURVE",
"425 344 OFFCURVE",
"303 344 CURVE SMOOTH",
"154 344 LINE",
"136 263 LINE"
);
},
{
closed = 1;
nodes = (
"421 0 LINE",
"524 0 LINE",
"400 290 LINE",
"305 290 LINE"
);
}
);
userData = {
com.schriftgestaltung.Glyphs.lastChange = "2021-03-02 23:45:59 +0000";
};
width = 619;
}
);
leftKerningGroup = H;
rightKerningGroup = R;
unicode = 0052;
},
{
color = 5;
glyphname = S;
layers = (
{
anchors = (
{
name = bottom;
position = "{263, 0}";
},
{
name = top;
position = "{381, 690}";
}
);
layerId = master01;
paths = (
{
closed = 1;
nodes = (
"61 29 OFFCURVE",
"167 -12 OFFCURVE",
"282 -12 CURVE",
"468 -12 OFFCURVE",
"558 91 OFFCURVE",
"558 206 CURVE",
"558 283 OFFCURVE",
"517 344 OFFCURVE",
"371 418 CURVE SMOOTH",
"283 463 OFFCURVE",
"265 488 OFFCURVE",
"265 511 CURVE",
"265 541 OFFCURVE",
"292 563 OFFCURVE",
"347 563 CURVE",
"413 563 OFFCURVE",
"483 529 OFFCURVE",
"540 490 CURVE",
"608 628 LINE",
"546 670 OFFCURVE",
"454 702 OFFCURVE",
"373 702 CURVE",
"202 702 OFFCURVE",
"101 611 OFFCURVE",
"101 499 CURVE",
"101 425 OFFCURVE",
"134 361 OFFCURVE",
"282 285 CURVE SMOOTH",
"370 240 OFFCURVE",
"384 220 OFFCURVE",
"384 192 CURVE",
"384 163 OFFCURVE",
"355 129 OFFCURVE",
"281 129 CURVE",
"204 129 OFFCURVE",
"129 166 OFFCURVE",
"74 214 CURVE",
"-12 83 LINE"
);
}
);
userData = {
com.schriftgestaltung.Glyphs.lastChange = "2021-03-02 23:46:34 +0000";
};
width = 607;
},
{
anchors = (
{
name = bottom;
position = "{218, 0}";
},
{
name = top;
position = "{344, 690}";
}
);
layerId = master02;
paths = (
{
closed = 1;
nodes = (
"48 27 OFFCURVE",
"139 -12 OFFCURVE",
"239 -12 CURVE",
"390 -12 OFFCURVE",
"479 86 OFFCURVE",
"479 196 CURVE",
"479 272 OFFCURVE",
"443 341 OFFCURVE",
"329 415 CURVE SMOOTH",
"258 461 OFFCURVE",
"246 488 OFFCURVE",
"246 512 CURVE",
"246 541 OFFCURVE",
"274 571 OFFCURVE",
"315 571 CURVE",
"364 571 OFFCURVE",
"421 545 OFFCURVE",
"469 506 CURVE",
"535 630 LINE",
"480 672 OFFCURVE",
"401 702 OFFCURVE",
"336 702 CURVE",
"190 702 OFFCURVE",
"96 611 OFFCURVE",
"96 496 CURVE",
"96 433 OFFCURVE",
"119 374 OFFCURVE",
"243 290 CURVE SMOOTH",
"311 244 OFFCURVE",
"321 220 OFFCURVE",
"321 193 CURVE",
"321 157 OFFCURVE",
"296 123 OFFCURVE",
"236 123 CURVE",
"182 123 OFFCURVE",
"117 154 OFFCURVE",
"67 203 CURVE",
"-14 82 LINE"
);
}
);
userData = {
com.schriftgestaltung.Glyphs.lastChange = "2021-03-03 00:29:32 +0000";
};
width = 535;
},
{
anchors = (
{
name = bottom;
position = "{254, 0}";
},
{
name = top;
position = "{359, 690}";
}
);
layerId = master03;
paths = (
{
closed = 1;
nodes = (
"79 34 OFFCURVE",
"143 -8 OFFCURVE",
"218 -8 CURVE SMOOTH",
"358 -8 OFFCURVE",
"440 78 OFFCURVE",
"440 177 CURVE SMOOTH",
"440 254 OFFCURVE",
"406 328 OFFCURVE",
"291 392 CURVE SMOOTH",
"193 447 OFFCURVE",
"183 481 OFFCURVE",
"183 531 CURVE SMOOTH",
"183 584 OFFCURVE",
"231 644 OFFCURVE",
"310 644 CURVE SMOOTH",
"364 644 OFFCURVE",
"404 623 OFFCURVE",
"448 585 CURVE",
"487 625 LINE",
"433 671 OFFCURVE",
"385 698 OFFCURVE",
"315 698 CURVE SMOOTH",
"196 698 OFFCURVE",
"122 615 OFFCURVE",
"122 524 CURVE SMOOTH",
"122 456 OFFCURVE",
"149 403 OFFCURVE",
"262 338 CURVE SMOOTH",
"362 281 OFFCURVE",
"377 229 OFFCURVE",
"377 169 CURVE SMOOTH",
"377 108 OFFCURVE",
"323 46 OFFCURVE",
"225 46 CURVE SMOOTH",
"165 46 OFFCURVE",
"107 89 OFFCURVE",
"63 137 CURVE",
"23 96 LINE"
);
}
);
userData = {
com.schriftgestaltung.Glyphs.lastChange = "2021-03-04 12:56:20 +0000";
};
width = 499;
},
{
anchors = (
{
name = bottom;
position = "{204, 0}";
},
{
name = top;
position = "{318, 690}";
}
);
layerId = master04;
paths = (
{
closed = 1;
nodes = (
"51 32 OFFCURVE",
"124 -10 OFFCURVE",
"214 -10 CURVE SMOOTH",
"339 -10 OFFCURVE",
"432 81 OFFCURVE",
"432 189 CURVE SMOOTH",
"432 264 OFFCURVE",
"404 327 OFFCURVE",
"288 400 CURVE SMOOTH",
"212 449 OFFCURVE",
"198 482 OFFCURVE",
"198 517 CURVE SMOOTH",
"198 571 OFFCURVE",
"238 615 OFFCURVE",
"303 615 CURVE SMOOTH",
"357 615 OFFCURVE",
"405 587 OFFCURVE",
"443 550 CURVE",
"496 628 LINE",
"450 671 OFFCURVE",
"382 700 OFFCURVE",
"316 700 CURVE SMOOTH",
"182 700 OFFCURVE",
"102 609 OFFCURVE",
"102 514 CURVE SMOOTH",
"102 445 OFFCURVE",
"129 388 OFFCURVE",
"236 321 CURVE SMOOTH",
"326 263 OFFCURVE",
"336 221 OFFCURVE",
"336 178 CURVE SMOOTH",
"336 123 OFFCURVE",
"296 73 OFFCURVE",
"219 73 CURVE SMOOTH",
"155 73 OFFCURVE",
"95 112 OFFCURVE",
"56 164 CURVE",
"-4 92 LINE"
);
}
);
userData = {
com.schriftgestaltung.Glyphs.lastChange = "2021-03-02 23:38:03 +0000";
};
width = 499;
},
{
anchors = (
{
name = bottom;
position = "{254, 0}";
},
{
name = top;
position = "{359, 690}";
}
);
layerId = master05;
paths = (
{
closed = 1;
nodes = (
"84 32 OFFCURVE",
"162 -8 OFFCURVE",
"261 -8 CURVE",
"411 -8 OFFCURVE",
"501 78 OFFCURVE",
"501 177 CURVE",
"501 254 OFFCURVE",
"459 318 OFFCURVE",
"314 392 CURVE SMOOTH",
"213 443 OFFCURVE",
"186 481 OFFCURVE",
"186 531 CURVE",
"186 584 OFFCURVE",
"244 644 OFFCURVE",
"353 644 CURVE",
"423 644 OFFCURVE",
"478 618 OFFCURVE",
"519 578 CURVE",
"561 622 LINE",
"508 668 OFFCURVE",
"445 698 OFFCURVE",
"358 698 CURVE",
"209 698 OFFCURVE",
"125 615 OFFCURVE",
"125 524 CURVE",
"125 456 OFFCURVE",
"169 398 OFFCURVE",
"285 338 CURVE SMOOTH",
"415 271 OFFCURVE",
"438 229 OFFCURVE",
"438 169 CURVE",
"438 108 OFFCURVE",
"376 46 OFFCURVE",
"268 46 CURVE",
"179 46 OFFCURVE",
"109 84 OFFCURVE",
"58 139 CURVE",
"16 96 LINE"
);
}
);
userData = {
com.schriftgestaltung.Glyphs.lastChange = "2021-03-03 00:29:23 +0000";
};
width = 583;
},
{
anchors = (
{
name = bottom;
position = "{264, 0}";
},
{
name = top;
position = "{367, 690}";
}
);
layerId = master06;
paths = (
{
closed = 1;
nodes = (
"80 32 OFFCURVE",
"165 -10 OFFCURVE",
"272 -10 CURVE",
"437 -10 OFFCURVE",
"526 79 OFFCURVE",
"526 184 CURVE",
"526 261 OFFCURVE",
"484 326 OFFCURVE",
"339 401 CURVE SMOOTH",
"242 451 OFFCURVE",
"219 483 OFFCURVE",
"219 524 CURVE",
"219 569 OFFCURVE",
"265 615 OFFCURVE",
"355 615 CURVE",
"424 615 OFFCURVE",
"484 586 OFFCURVE",
"531 547 CURVE",
"582 624 LINE",
"526 669 OFFCURVE",
"453 700 OFFCURVE",
"368 700 CURVE",
"211 700 OFFCURVE",
"121 611 OFFCURVE",
"121 518 CURVE",
"121 445 OFFCURVE",
"162 387 OFFCURVE",
"288 319 CURVE SMOOTH",
"403 259 OFFCURVE",
"422 223 OFFCURVE",
"422 175 CURVE",
"422 124 OFFCURVE",
"375 75 OFFCURVE",
"278 75 CURVE",
"196 75 OFFCURVE",
"120 115 OFFCURVE",
"68 167 CURVE",
"10 92 LINE"
);
}
);
userData = {
com.schriftgestaltung.Glyphs.lastChange = "2021-03-02 23:45:59 +0000";
};
width = 601;
}
);
leftKerningGroup = S;
rightKerningGroup = S;
unicode = 0053;
},
{
color = 5;
glyphname = Schwa;
layers = (
{
layerId = master01;
paths = (
{
closed = 1;
nodes = (
"47 112 OFFCURVE",
"137 -12 OFFCURVE",
"320 -12 CURVE",
"567 -12 OFFCURVE",
"696 187 OFFCURVE",
"696 406 CURVE",
"696 598 OFFCURVE",
"581 702 OFFCURVE",
"409 702 CURVE SMOOTH",
"319 702 OFFCURVE",
"231 672 OFFCURVE",
"164 637 CURVE",
"190 502 LINE",
"239 530 OFFCURVE",
"315 552 OFFCURVE",
"384 552 CURVE SMOOTH",
"477 552 OFFCURVE",
"535 508 OFFCURVE",
"535 407 CURVE SMOOTH",
"535 244 OFFCURVE",
"474 131 OFFCURVE",
"331 131 CURVE SMOOTH",
"260 131 OFFCURVE",
"209 176 OFFCURVE",
"209 258 CURVE",
"209 291 OFFCURVE",
"214 316 OFFCURVE",
"220 345 CURVE",
"169 280 LINE",
"555 280 LINE",
"580 400 LINE",
"74 400 LINE",
"57 362 OFFCURVE",
"47 325 OFFCURVE",
"47 259 CURVE"
);
}
);
userData = {
com.schriftgestaltung.Glyphs.lastChange = "2021-03-02 23:46:34 +0000";
};
width = 724;
},
{
layerId = master02;
paths = (
{
closed = 1;
nodes = (
"41 96 OFFCURVE",
"117 -12 OFFCURVE",
"274 -12 CURVE",
"476 -12 OFFCURVE",
"594 189 OFFCURVE",
"594 398 CURVE",
"594 599 OFFCURVE",
"491 702 OFFCURVE",
"340 702 CURVE",
"273 702 OFFCURVE",
"189 674 OFFCURVE",
"138 638 CURVE",
"175 509 LINE",
"216 538 OFFCURVE",
"269 560 OFFCURVE",
"326 560 CURVE SMOOTH",
"401 560 OFFCURVE",
"447 512 OFFCURVE",
"447 399 CURVE",
"447 244 OFFCURVE",
"393 123 OFFCURVE",
"285 123 CURVE",
"226 123 OFFCURVE",
"185 172 OFFCURVE",
"186 257 CURVE SMOOTH",
"187 290 OFFCURVE",
"192 316 OFFCURVE",
"199 344 CURVE",
"150 281 LINE",
"460 281 LINE",
"487 397 LINE",
"62 397 LINE",
"48 355 OFFCURVE",
"41 309 OFFCURVE",
"41 248 CURVE"
);
}
);
userData = {
com.schriftgestaltung.Glyphs.lastChange = "2021-03-03 00:29:32 +0000";
};
width = 615;
},
{
layerId = master03;
paths = (
{
closed = 1;
nodes = (
"56 103 OFFCURVE",
"118 -10 OFFCURVE",
"248 -10 CURVE",
"460 -10 OFFCURVE",
"562 211 OFFCURVE",
"562 440 CURVE SMOOTH",
"562 586 OFFCURVE",
"514 700 OFFCURVE",
"383 700 CURVE SMOOTH",
"300 700 OFFCURVE",
"257 683 OFFCURVE",
"186 642 CURVE",
"207 589 LINE",
"267 625 OFFCURVE",
"306 640 OFFCURVE",
"374 640 CURVE SMOOTH",
"481 640 OFFCURVE",
"498 542 OFFCURVE",
"498 437 CURVE SMOOTH",
"498 246 OFFCURVE",
"428 47 OFFCURVE",
"259 47 CURVE",
"141 47 OFFCURVE",
"117 153 OFFCURVE",
"117 245 CURVE SMOOTH",
"117 282 OFFCURVE",
"127 317 OFFCURVE",
"135 334 CURVE",
"113 300 LINE",
"511 300 LINE",
"524 360 LINE",
"74 360 LINE",
"74 360 OFFCURVE",
"56 311 OFFCURVE",
"56 242 CURVE SMOOTH"
);
}
);
userData = {
com.schriftgestaltung.Glyphs.lastChange = "2021-03-04 13:02:39 +0000";
};
width = 599;
},
{
layerId = master04;
paths = (
{
closed = 1;
nodes = (
"46 97 OFFCURVE",
"118 -10 OFFCURVE",
"243 -10 CURVE SMOOTH",
"435 -10 OFFCURVE",
"551 204 OFFCURVE",
"560 429 CURVE SMOOTH",
"567 603 OFFCURVE",
"485 701 OFFCURVE",
"355 701 CURVE SMOOTH",
"280 701 OFFCURVE",
"204 670 OFFCURVE",
"145 632 CURVE",
"173 551 LINE",
"220 585 OFFCURVE",
"279 612 OFFCURVE",
"338 612 CURVE SMOOTH",
"425 612 OFFCURVE",
"473 545 OFFCURVE",
"468 427 CURVE SMOOTH",
"460 244 OFFCURVE",
"387 72 OFFCURVE",
"255 72 CURVE SMOOTH",
"173 72 OFFCURVE",
"131 138 OFFCURVE",
"131 243 CURVE SMOOTH",
"131 284 OFFCURVE",
"142 320 OFFCURVE",
"151 338 CURVE",
"121 294 LINE",
"476 294 LINE",
"495 373 LINE",
"71 373 LINE",
"62 361 OFFCURVE",
"46 315 OFFCURVE",
"46 237 CURVE SMOOTH"
);
}
);
userData = {
com.schriftgestaltung.Glyphs.lastChange = "2021-03-02 23:38:03 +0000";
};
width = 584;
},
{
layerId = master05;
paths = (
{
closed = 1;
nodes = (
"65 73 OFFCURVE",
"167 -10 OFFCURVE",
"307 -10 CURVE",
"539 -10 OFFCURVE",
"677 211 OFFCURVE",
"677 440 CURVE SMOOTH",
"677 606 OFFCURVE",
"576 700 OFFCURVE",
"425 700 CURVE SMOOTH",
"332 700 OFFCURVE",
"251 668 OFFCURVE",
"180 627 CURVE",
"201 574 LINE",
"261 610 OFFCURVE",
"338 640 OFFCURVE",
"416 640 CURVE SMOOTH",
"543 640 OFFCURVE",
"613 562 OFFCURVE",
"613 437 CURVE SMOOTH",
"613 246 OFFCURVE",
"507 47 OFFCURVE",
"318 47 CURVE",
"190 47 OFFCURVE",
"126 123 OFFCURVE",
"126 245 CURVE SMOOTH",
"126 282 OFFCURVE",
"136 317 OFFCURVE",
"144 334 CURVE",
"122 300 LINE",
"626 300 LINE",
"639 360 LINE",
"83 360 LINE",
"83 360 OFFCURVE",
"65 311 OFFCURVE",
"65 242 CURVE SMOOTH"
);
}
);
userData = {
com.schriftgestaltung.Glyphs.lastChange = "2021-03-03 00:29:23 +0000";
};
width = 722;
},
{
layerId = master06;
paths = (
{
closed = 1;
nodes = (
"60 87 OFFCURVE",
"158 -11 OFFCURVE",
"313 -11 CURVE",
"551 -11 OFFCURVE",
"686 202 OFFCURVE",
"686 428 CURVE SMOOTH",
"686 603 OFFCURVE",
"580 701 OFFCURVE",
"421 701 CURVE SMOOTH",
"329 701 OFFCURVE",
"246 669 OFFCURVE",
"176 631 CURVE",
"199 548 LINE",
"255 582 OFFCURVE",
"332 609 OFFCURVE",
"407 609 CURVE SMOOTH",
"521 609 OFFCURVE",
"587 543 OFFCURVE",
"587 426 CURVE SMOOTH",
"587 245 OFFCURVE",
"497 77 OFFCURVE",
"324 77 CURVE",
"217 77 OFFCURVE",
"157 142 OFFCURVE",
"157 250 CURVE SMOOTH",
"157 285 OFFCURVE",
"166 317 OFFCURVE",
"173 338 CURVE",
"141 293 LINE",
"603 293 LINE",
"620 374 LINE",
"82 374 LINE",
"76 361 OFFCURVE",
"60 316 OFFCURVE",
"60 248 CURVE SMOOTH"
);
}
);
userData = {
com.schriftgestaltung.Glyphs.lastChange = "2021-03-02 23:45:59 +0000";
};
width = 726;
}
);
leftKerningGroup = O;
rightKerningGroup = O;
unicode = 018F;
},
{
color = 5;
glyphname = T;
layers = (
{
anchors = (
{
name = bottom;
position = "{232, 0}";
},
{
name = top;
position = "{376, 690}";
}
);
layerId = master01;
paths = (
{
closed = 1;
nodes = (
"614 550 LINE",
"644 690 LINE",
"108 690 LINE",
"78 550 LINE"
);
},
{
closed = 1;
nodes = (
"309 0 LINE",
"456 690 LINE",
"296 690 LINE",
"149 0 LINE"
);
}
);
userData = {
com.schriftgestaltung.Glyphs.lastChange = "2021-03-02 23:46:34 +0000";
};
width = 577;
},
{
anchors = (
{
name = bottom;
position = "{192, 0}";
},
{
name = top;
position = "{337, 690}";
}
);
layerId = master02;
paths = (
{
closed = 1;
nodes = (
"536 556 LINE",
"565 690 LINE",
"107 690 LINE",
"78 556 LINE"
);
},
{
closed = 1;
nodes = (
"262 0 LINE",
"409 690 LINE",
"263 690 LINE",
"116 0 LINE"
);
}
);
userData = {
com.schriftgestaltung.Glyphs.lastChange = "2021-03-03 00:29:32 +0000";
};
width = 498;
},
{
anchors = (
{
name = bottom;
position = "{180, 0}";
},
{
name = top;
position = "{327, 690}";
}
);
layerId = master03;
paths = (
{
closed = 1;
nodes = (
"502 636 LINE",
"514 690 LINE",
"140 690 LINE",
"128 636 LINE"
);
},
{
closed = 1;
nodes = (
"211 0 LINE",
"358 690 LINE",
"296 690 LINE",
"149 0 LINE"
);
}
);
userData = {
com.schriftgestaltung.Glyphs.lastChange = "2021-03-04 13:06:44 +0000";
};
width = 462;
},
{
anchors = (
{
name = bottom;
position = "{175, 0}";
},
{
name = top;
position = "{319, 690}";
}
);
layerId = master04;
paths = (
{
closed = 1;
nodes = (
"507 608 LINE",
"525 690 LINE",
"112 690 LINE",
"94 608 LINE"
);
},
{
closed = 1;
nodes = (
"217 0 LINE",
"364 690 LINE",
"275 690 LINE",
"128 0 LINE"
);
}
);
userData = {
com.schriftgestaltung.Glyphs.lastChange = "2021-03-02 23:38:03 +0000";
};
width = 462;
},
{
anchors = (
{
name = bottom;
position = "{220, 0}";
},
{
name = top;
position = "{367, 690}";
}
);
layerId = master05;
paths = (
{
closed = 1;
nodes = (
"602 636 LINE",
"614 690 LINE",
"120 690 LINE",
"108 636 LINE"
);
},
{
closed = 1;
nodes = (
"251 0 LINE",
"398 690 LINE",
"336 690 LINE",
"189 0 LINE"
);
}
);
userData = {
com.schriftgestaltung.Glyphs.lastChange = "2021-03-03 00:29:23 +0000";
};
width = 560;
},
{
anchors = (
{
name = bottom;
position = "{227, 0}";
},
{
name = top;
position = "{372, 690}";
}
);
layerId = master06;
paths = (
{
closed = 1;
nodes = (
"608 605 LINE",
"626 690 LINE",
"117 690 LINE",
"99 605 LINE"
);
},
{
closed = 1;
nodes = (
"273 0 LINE",
"420 690 LINE",
"323 690 LINE",
"177 0 LINE"
);
}
);
userData = {
com.schriftgestaltung.Glyphs.lastChange = "2021-03-02 23:45:59 +0000";
};
width = 569;
}
);
leftKerningGroup = T;
rightKerningGroup = T;
unicode = 0054;
},
{
color = 5;
glyphname = Tbar;
layers = (
{
layerId = master01;
paths = (
{
closed = 1;
nodes = (
"501 246 LINE",
"530 380 LINE",
"100 380 LINE",
"71 246 LINE"
);
},
{
closed = 1;
nodes = (
"619 550 LINE",
"649 690 LINE",
"113 690 LINE",
"83 550 LINE"
);
},
{
closed = 1;
nodes = (
"314 0 LINE",
"461 690 LINE",
"301 690 LINE",
"154 0 LINE"
);
}
);
userData = {
com.schriftgestaltung.Glyphs.lastChange = "2021-03-02 23:46:34 +0000";
};
width = 587;
},
{
layerId = master02;
paths = (
{
closed = 1;
nodes = (
"426 251 LINE",
"454 379 LINE",
"86 379 LINE",
"58 251 LINE"
);
},
{
closed = 1;
nodes = (
"536 556 LINE",
"565 690 LINE",
"107 690 LINE",
"78 556 LINE"
);
},
{
closed = 1;
nodes = (
"262 0 LINE",
"409 690 LINE",
"263 690 LINE",
"116 0 LINE"
);
}
);
userData = {
com.schriftgestaltung.Glyphs.lastChange = "2021-03-03 00:29:32 +0000";
};
width = 498;
},
{
layerId = master03;
paths = (
{
closed = 1;
nodes = (
"358 308 LINE",
"369 358 LINE",
"110 358 LINE",
"99 308 LINE"
);
},
{
closed = 1;
nodes = (
"495 636 LINE",
"507 690 LINE",
"113 690 LINE",
"101 636 LINE"
);
},
{
closed = 1;
nodes = (
"194 0 LINE",
"341 690 LINE",
"279 690 LINE",
"132 0 LINE"
);
}
);
userData = {
com.schriftgestaltung.Glyphs.lastChange = "2021-03-04 13:06:44 +0000";
};
width = 445;
},
{
layerId = master04;
paths = (
{
closed = 1;
nodes = (
"396 296 LINE",
"411 369 LINE",
"89 369 LINE",
"74 296 LINE"
);
},
{
closed = 1;
nodes = (
"507 608 LINE",
"525 690 LINE",
"112 690 LINE",
"94 608 LINE"
);
},
{
closed = 1;
nodes = (
"217 0 LINE",
"364 690 LINE",
"275 690 LINE",
"128 0 LINE"
);
}
);
userData = {
com.schriftgestaltung.Glyphs.lastChange = "2021-03-02 23:38:03 +0000";
};
width = 462;
},
{
layerId = master05;
paths = (
{
closed = 1;
nodes = (
"470 308 LINE",
"481 358 LINE",
"122 358 LINE",
"111 308 LINE"
);
},
{
closed = 1;
nodes = (
"607 636 LINE",
"619 690 LINE",
"125 690 LINE",
"113 636 LINE"
);
},
{
closed = 1;
nodes = (
"256 0 LINE",
"403 690 LINE",
"341 690 LINE",
"194 0 LINE"
);
}
);
userData = {
com.schriftgestaltung.Glyphs.lastChange = "2021-03-03 00:29:23 +0000";
};
width = 571;
},
{
layerId = master06;
paths = (
{
closed = 1;
nodes = (
"489 293 LINE",
"506 370 LINE",
"113 370 LINE",
"96 293 LINE"
);
},
{
closed = 1;
nodes = (
"613 605 LINE",
"631 690 LINE",
"122 690 LINE",
"104 605 LINE"
);
},
{
closed = 1;
nodes = (
"278 0 LINE",
"425 690 LINE",
"328 690 LINE",
"182 0 LINE"
);
}
);
userData = {
com.schriftgestaltung.Glyphs.lastChange = "2021-03-02 23:45:59 +0000";
};
width = 579;
}
);
leftKerningGroup = T;
rightKerningGroup = T;
unicode = 0166;
},
{
color = 5;
glyphname = U;
layers = (
{
anchors = (
{
name = bottom;
position = "{296, 0}";
},
{
name = horn;
position = "{662, 716}";
},
{
name = ogonek;
position = "{350, 0}";
},
{
name = top;
position = "{438, 690}";
}
);
layerId = master01;
paths = (
{
closed = 1;
nodes = (
"58 89 OFFCURVE",
"153 -12 OFFCURVE",
"302 -12 CURVE",
"457 -12 OFFCURVE",
"591 72 OFFCURVE",
"632 265 CURVE SMOOTH",
"723 690 LINE",
"567 690 LINE",
"483 295 LINE SMOOTH",
"459 181 OFFCURVE",
"393 131 OFFCURVE",
"325 131 CURVE",
"260 131 OFFCURVE",
"218 164 OFFCURVE",
"218 238 CURVE SMOOTH",
"218 255 OFFCURVE",
"221 274 OFFCURVE",
"225 295 CURVE SMOOTH",
"309 690 LINE",
"149 690 LINE",
"67 304 LINE SMOOTH",
"60 271 OFFCURVE",
"58 249 OFFCURVE",
"58 227 CURVE SMOOTH"
);
}
);
userData = {
com.schriftgestaltung.Glyphs.lastChange = "2021-03-08 22:50:57 +0000";
};
width = 698;
},
{
anchors = (
{
name = bottom;
position = "{252, 0}";
},
{
name = horn;
position = "{592, 715}";
},
{
name = ogonek;
position = "{295, 0}";
},
{
name = top;
position = "{396, 690}";
}
);
layerId = master02;
paths = (
{
closed = 1;
nodes = (
"54 82 OFFCURVE",
"138 -12 OFFCURVE",
"266 -12 CURVE",
"403 -12 OFFCURVE",
"507 68 OFFCURVE",
"548 259 CURVE SMOOTH",
"640 690 LINE",
"498 690 LINE",
"412 288 LINE SMOOTH",
"386 165 OFFCURVE",
"339 125 OFFCURVE",
"284 125 CURVE",
"235 125 OFFCURVE",
"200 159 OFFCURVE",
"200 220 CURVE SMOOTH",
"200 242 OFFCURVE",
"203 267 OFFCURVE",
"207 288 CURVE SMOOTH",
"293 690 LINE",
"147 690 LINE",
"65 307 LINE SMOOTH",
"57 269 OFFCURVE",
"54 237 OFFCURVE",
"54 206 CURVE SMOOTH"
);
}
);
userData = {
com.schriftgestaltung.Glyphs.lastChange = "2021-03-08 22:47:43 +0000";
};
width = 613;
},
{
anchors = (
{
name = bottom;
position = "{228, 0}";
},
{
name = horn;
position = "{561, 724}";
},
{
name = ogonek;
position = "{287, 0}";
},
{
name = top;
position = "{362, 690}";
}
);
layerId = master03;
paths = (
{
closed = 1;
nodes = (
"70 68 OFFCURVE",
"132 -8 OFFCURVE",
"236 -8 CURVE",
"358 -8 OFFCURVE",
"451 73 OFFCURVE",
"487 240 CURVE SMOOTH",
"583 690 LINE",
"521 690 LINE",
"427 250 LINE SMOOTH",
"398 116 OFFCURVE",
"332 49 OFFCURVE",
"248 49 CURVE",
"172 49 OFFCURVE",
"132 96 OFFCURVE",
"132 191 CURVE SMOOTH",
"132 209 OFFCURVE",
"135 232 OFFCURVE",
"140 254 CURVE SMOOTH",
"233 690 LINE",
"171 690 LINE",
"78 254 LINE SMOOTH",
"73 232 OFFCURVE",
"70 206 OFFCURVE",
"70 187 CURVE SMOOTH"
);
}
);
userData = {
com.schriftgestaltung.Glyphs.lastChange = "2021-03-08 22:43:18 +0000";
};
width = 567;
},
{
anchors = (
{
name = bottom;
position = "{227, 0}";
},
{
name = horn;
position = "{547, 716}";
},
{
name = ogonek;
position = "{277, 0}";
},
{
name = top;
position = "{370, 690}";
}
);
layerId = master04;
paths = (
{
closed = 1;
nodes = (
"57 74 OFFCURVE",
"110 -10 OFFCURVE",
"231 -10 CURVE SMOOTH",
"350 -10 OFFCURVE",
"454 73 OFFCURVE",
"491 248 CURVE SMOOTH",
"585 690 LINE",
"497 690 LINE",
"406 264 LINE SMOOTH",
"377 129 OFFCURVE",
"321 75 OFFCURVE",
"249 75 CURVE SMOOTH",
"174 75 OFFCURVE",
"148 118 OFFCURVE",
"148 196 CURVE SMOOTH",
"148 234 OFFCURVE",
"164 307 OFFCURVE",
"169 329 CURVE SMOOTH",
"246 690 LINE",
"156 690 LINE",
"79 331 LINE SMOOTH",
"74 306 OFFCURVE",
"57 229 OFFCURVE",
"57 180 CURVE"
);
}
);
userData = {
com.schriftgestaltung.Glyphs.lastChange = "2021-03-08 22:44:52 +0000";
};
width = 567;
},
{
anchors = (
{
name = bottom;
position = "{288, 0}";
},
{
name = horn;
position = "{657, 716}";
},
{
name = ogonek;
position = "{347, 0}";
},
{
name = top;
position = "{422, 690}";
}
);
layerId = master05;
paths = (
{
closed = 1;
nodes = (
"80 68 OFFCURVE",
"162 -8 OFFCURVE",
"286 -8 CURVE",
"428 -8 OFFCURVE",
"541 73 OFFCURVE",
"577 240 CURVE SMOOTH",
"673 690 LINE",
"611 690 LINE",
"517 250 LINE SMOOTH",
"488 116 OFFCURVE",
"402 49 OFFCURVE",
"298 49 CURVE",
"202 49 OFFCURVE",
"142 96 OFFCURVE",
"142 191 CURVE SMOOTH",
"142 209 OFFCURVE",
"145 232 OFFCURVE",
"150 254 CURVE SMOOTH",
"243 690 LINE",
"181 690 LINE",
"88 254 LINE SMOOTH",
"83 232 OFFCURVE",
"80 206 OFFCURVE",
"80 187 CURVE SMOOTH"
);
}
);
userData = {
com.schriftgestaltung.Glyphs.lastChange = "2021-03-08 22:48:32 +0000";
};
width = 680;
},
{
anchors = (
{
name = bottom;
position = "{294, 0}";
},
{
name = horn;
position = "{664, 715}";
},
{
name = ogonek;
position = "{360, 0}";
},
{
name = top;
position = "{438, 690}";
}
);
layerId = master06;
paths = (
{
closed = 1;
nodes = (
"80 75 OFFCURVE",
"166 -10 OFFCURVE",
"299 -10 CURVE",
"446 -10 OFFCURVE",
"567 73 OFFCURVE",
"604 249 CURVE SMOOTH",
"698 690 LINE",
"603 690 LINE",
"512 266 LINE SMOOTH",
"485 139 OFFCURVE",
"406 78 OFFCURVE",
"315 78 CURVE",
"230 78 OFFCURVE",
"176 120 OFFCURVE",
"176 208 CURVE SMOOTH",
"176 225 OFFCURVE",
"179 247 OFFCURVE",
"184 269 CURVE SMOOTH",
"274 690 LINE",
"177 690 LINE",
"88 272 LINE SMOOTH",
"82 246 OFFCURVE",
"80 221 OFFCURVE",
"80 201 CURVE SMOOTH"
);
}
);
userData = {
com.schriftgestaltung.Glyphs.lastChange = "2021-03-08 22:50:13 +0000";
};
width = 701;
}
);
leftKerningGroup = U;
rightKerningGroup = U;
unicode = 0055;
},
{
color = 5;
glyphname = V;
layers = (
{
layerId = master01;
paths = (
{
closed = 1;
nodes = (
"198 0 LINE",
"270 0 LINE",
"307 157 LINE",
"247 690 LINE",
"87 690 LINE"
);
},
{
closed = 1;
nodes = (
"322 0 LINE",
"729 690 LINE",
"559 690 LINE",
"271 157 LINE",
"248 0 LINE"
);
}
);
userData = {
com.schriftgestaltung.Glyphs.lastChange = "2021-03-02 23:46:34 +0000";
};
width = 642;
},
{
layerId = master02;
paths = (
{
closed = 1;
nodes = (
"155 0 LINE",
"219 0 LINE",
"259 152 LINE",
"231 690 LINE",
"85 690 LINE"
);
},
{
closed = 1;
nodes = (
"268 0 LINE",
"636 690 LINE",
"481 690 LINE",
"229 152 LINE",
"202 0 LINE"
);
}
);
userData = {
com.schriftgestaltung.Glyphs.lastChange = "2021-03-03 00:29:32 +0000";
};
width = 546;
},
{
layerId = master03;
paths = (
{
closed = 1;
nodes = (
"171 0 LINE",
"212 0 LINE",
"220 45 LINE",
"175 690 LINE",
"113 690 LINE"
);
},
{
closed = 1;
nodes = (
"220 0 LINE",
"562 690 LINE",
"496 690 LINE",
"185 45 LINE",
"180 0 LINE"
);
}
);
userData = {
com.schriftgestaltung.Glyphs.lastChange = "2021-03-04 13:06:44 +0000";
};
width = 497;
},
{
layerId = master04;
paths = (
{
closed = 1;
nodes = (
"155 0 LINE",
"200 0 LINE",
"227 76 LINE",
"187 690 LINE",
"99 690 LINE"
);
},
{
closed = 1;
nodes = (
"225 0 LINE",
"573 690 LINE",
"478 690 LINE",
"185 76 LINE",
"179 0 LINE"
);
}
);
userData = {
com.schriftgestaltung.Glyphs.lastChange = "2021-03-02 23:38:03 +0000";
};
width = 497;
},
{
layerId = master05;
paths = (
{
closed = 1;
nodes = (
"203 0 LINE",
"244 0 LINE",
"252 45 LINE",
"167 690 LINE",
"105 690 LINE"
);
},
{
closed = 1;
nodes = (
"252 0 LINE",
"644 690 LINE",
"578 690 LINE",
"217 45 LINE",
"212 0 LINE"
);
}
);
userData = {
com.schriftgestaltung.Glyphs.lastChange = "2021-03-03 00:29:23 +0000";
};
width = 575;
},
{
layerId = master06;
paths = (
{
closed = 1;
nodes = (
"200 0 LINE",
"252 0 LINE",
"270 85 LINE",
"194 690 LINE",
"97 690 LINE"
);
},
{
closed = 1;
nodes = (
"275 0 LINE",
"672 690 LINE",
"570 690 LINE",
"234 85 LINE",
"223 0 LINE"
);
}
);
userData = {
com.schriftgestaltung.Glyphs.lastChange = "2021-03-02 23:45:59 +0000";
};
width = 595;
}
);
leftKerningGroup = V;
rightKerningGroup = V;
unicode = 0056;
},
{
color = 5;
glyphname = W;
layers = (
{
anchors = (
{
name = top;
position = "{561, 690}";
}
);
layerId = master01;
paths = (
{
closed = 1;
nodes = (
"155 0 LINE",
"231 0 LINE",
"271 161 LINE",
"248 690 LINE",
"87 690 LINE"
);
},
{
closed = 1;
nodes = (
"283 0 LINE",
"566 543 LINE",
"596 690 LINE",
"494 690 LINE",
"237 161 LINE",
"209 0 LINE"
);
},
{
closed = 1;
nodes = (
"549 0 LINE",
"625 0 LINE",
"665 161 LINE",
"629 690 LINE",
"526 690 LINE",
"502 543 LINE"
);
},
{
closed = 1;
nodes = (
"677 0 LINE",
"1039 690 LINE",
"872 690 LINE",
"631 161 LINE",
"603 0 LINE"
);
}
);
userData = {
com.schriftgestaltung.Glyphs.lastChange = "2021-03-02 23:46:34 +0000";
};
width = 952;
},
{
anchors = (
{
name = top;
position = "{495, 690}";
}
);
layerId = master02;
paths = (
{
closed = 1;
nodes = (
"124 0 LINE",
"192 0 LINE",
"233 157 LINE",
"237 690 LINE",
"90 690 LINE"
);
},
{
closed = 1;
nodes = (
"241 0 LINE",
"494 548 LINE",
"527 690 LINE",
"433 690 LINE",
"205 157 LINE",
"174 0 LINE"
);
},
{
closed = 1;
nodes = (
"456 0 LINE",
"524 0 LINE",
"565 157 LINE",
"557 690 LINE",
"462 690 LINE",
"436 548 LINE"
);
},
{
closed = 1;
nodes = (
"573 0 LINE",
"903 690 LINE",
"751 690 LINE",
"537 157 LINE",
"506 0 LINE"
);
}
);
userData = {
com.schriftgestaltung.Glyphs.lastChange = "2021-03-03 00:29:32 +0000";
};
width = 818;
},
{
anchors = (
{
name = top;
position = "{461, 690}";
}
);
layerId = master03;
paths = (
{
closed = 1;
nodes = (
"128 0 LINE",
"169 0 LINE",
"178 51 LINE",
"166 690 LINE",
"105 690 LINE"
);
},
{
closed = 1;
nodes = (
"177 0 LINE",
"460 614 LINE",
"472 690 LINE",
"437 690 LINE",
"142 51 LINE",
"137 0 LINE"
);
},
{
closed = 1;
nodes = (
"453 0 LINE",
"494 0 LINE",
"503 51 LINE",
"487 690 LINE",
"449 690 LINE",
"436 614 LINE"
);
},
{
closed = 1;
nodes = (
"502 0 LINE",
"819 690 LINE",
"755 690 LINE",
"468 51 LINE",
"462 0 LINE"
);
}
);
userData = {
com.schriftgestaltung.Glyphs.lastChange = "2021-03-04 13:06:44 +0000";
};
width = 740;
},
{
anchors = (
{
name = top;
position = "{455, 690}";
}
);
layerId = master04;
paths = (
{
closed = 1;
nodes = (
"118 0 LINE",
"166 0 LINE",
"190 86 LINE",
"184 690 LINE",
"99 690 LINE"
);
},
{
closed = 1;
nodes = (
"192 0 LINE",
"454 592 LINE",
"475 690 LINE",
"415 690 LINE",
"158 86 LINE",
"144 0 LINE"
);
},
{
closed = 1;
nodes = (
"430 0 LINE",
"478 0 LINE",
"508 86 LINE",
"495 690 LINE",
"436 690 LINE",
"417 592 LINE"
);
},
{
closed = 1;
nodes = (
"504 0 LINE",
"815 690 LINE",
"726 690 LINE",
"474 86 LINE",
"456 0 LINE"
);
}
);
userData = {
com.schriftgestaltung.Glyphs.lastChange = "2021-03-02 23:38:03 +0000";
};
width = 740;
},
{
anchors = (
{
name = top;
position = "{510, 690}";
}
);
layerId = master05;
paths = (
{
closed = 1;
nodes = (
"158 0 LINE",
"199 0 LINE",
"208 51 LINE",
"166 690 LINE",
"105 690 LINE"
);
},
{
closed = 1;
nodes = (
"207 0 LINE",
"520 614 LINE",
"532 690 LINE",
"497 690 LINE",
"172 51 LINE",
"167 0 LINE"
);
},
{
closed = 1;
nodes = (
"543 0 LINE",
"584 0 LINE",
"593 51 LINE",
"547 690 LINE",
"509 690 LINE",
"496 614 LINE"
);
},
{
closed = 1;
nodes = (
"592 0 LINE",
"939 690 LINE",
"875 690 LINE",
"558 51 LINE",
"552 0 LINE"
);
}
);
userData = {
com.schriftgestaltung.Glyphs.lastChange = "2021-03-03 00:29:23 +0000";
};
width = 870;
},
{
anchors = (
{
name = top;
position = "{535, 690}";
}
);
layerId = master06;
paths = (
{
closed = 1;
nodes = (
"157 0 LINE",
"211 0 LINE",
"231 90 LINE",
"195 690 LINE",
"99 690 LINE"
);
},
{
closed = 1;
nodes = (
"234 0 LINE",
"537 589 LINE",
"555 690 LINE",
"496 690 LINE",
"195 90 LINE",
"182 0 LINE"
);
},
{
closed = 1;
nodes = (
"545 0 LINE",
"599 0 LINE",
"619 90 LINE",
"576 690 LINE",
"515 690 LINE",
"498 589 LINE"
);
},
{
closed = 1;
nodes = (
"622 0 LINE",
"975 690 LINE",
"874 690 LINE",
"584 90 LINE",
"570 0 LINE"
);
}
);
userData = {
com.schriftgestaltung.Glyphs.lastChange = "2021-03-02 23:45:59 +0000";
};
width = 900;
}
);
leftKerningGroup = V;
rightKerningGroup = V;
unicode = 0057;
},
{
color = 5;
glyphname = X;
layers = (
{
layerId = master01;
paths = (
{
closed = 1;
nodes = (
"127 0 LINE",
"306 248 LINE",
"377 318 LINE",
"672 690 LINE",
"488 690 LINE",
"323 460 LINE",
"253 389 LINE",
"-57 0 LINE"
);
},
{
closed = 1;
nodes = (
"258 290 LINE",
"362 0 LINE",
"535 0 LINE",
"371 415 LINE",
"273 690 LINE",
"100 690 LINE"
);
}
);
userData = {
com.schriftgestaltung.Glyphs.lastChange = "2021-03-02 23:46:34 +0000";
};
width = 598;
},
{
layerId = master02;
paths = (
{
closed = 1;
nodes = (
"115 0 LINE",
"268 250 LINE",
"333 319 LINE",
"594 690 LINE",
"426 690 LINE",
"289 455 LINE",
"222 387 LINE",
"-53 0 LINE"
);
},
{
closed = 1;
nodes = (
"223 293 LINE",
"296 0 LINE",
"454 0 LINE",
"330 412 LINE",
"262 690 LINE",
"104 690 LINE"
);
}
);
userData = {
com.schriftgestaltung.Glyphs.lastChange = "2021-03-03 00:29:32 +0000";
};
width = 514;
},
{
layerId = master03;
paths = (
{
closed = 1;
nodes = (
"38 0 LINE",
"255 314 LINE",
"276 338 LINE",
"530 690 LINE",
"456 690 LINE",
"251 390 LINE",
"231 367 LINE",
"-36 0 LINE"
);
},
{
closed = 1;
nodes = (
"233 328 LINE",
"328 0 LINE",
"393 0 LINE",
"275 376 LINE",
"186 690 LINE",
"121 690 LINE"
);
}
);
userData = {
com.schriftgestaltung.Glyphs.lastChange = "2021-03-04 13:06:44 +0000";
};
width = 477;
},
{
layerId = master04;
paths = (
{
closed = 1;
nodes = (
"59 0 LINE",
"249 293 LINE",
"288 332 LINE",
"539 690 LINE",
"439 690 LINE",
"260 413 LINE",
"221 374 LINE",
"-42 0 LINE"
);
},
{
closed = 1;
nodes = (
"221 316 LINE",
"308 0 LINE",
"400 0 LINE",
"288 389 LINE",
"205 690 LINE",
"113 690 LINE"
);
}
);
userData = {
com.schriftgestaltung.Glyphs.lastChange = "2021-03-02 23:38:03 +0000";
};
width = 477;
},
{
layerId = master05;
paths = (
{
closed = 1;
nodes = (
"56 0 LINE",
"313 314 LINE",
"334 338 LINE",
"628 690 LINE",
"554 690 LINE",
"309 390 LINE",
"289 367 LINE",
"-18 0 LINE"
);
},
{
closed = 1;
nodes = (
"291 328 LINE",
"426 0 LINE",
"491 0 LINE",
"333 376 LINE",
"204 690 LINE",
"139 690 LINE"
);
}
);
userData = {
com.schriftgestaltung.Glyphs.lastChange = "2021-03-03 00:29:23 +0000";
};
width = 593;
},
{
layerId = master06;
paths = (
{
closed = 1;
nodes = (
"73 0 LINE",
"302 291 LINE",
"341 331 LINE",
"635 690 LINE",
"522 690 LINE",
"306 415 LINE",
"268 375 LINE",
"-40 0 LINE"
);
},
{
closed = 1;
nodes = (
"271 315 LINE",
"395 0 LINE",
"498 0 LINE",
"338 390 LINE",
"220 690 LINE",
"117 690 LINE"
);
}
);
userData = {
com.schriftgestaltung.Glyphs.lastChange = "2021-03-02 23:45:59 +0000";
};
width = 578;
}
);
unicode = 0058;
},
{
color = 5;
glyphname = Y;
layers = (
{
anchors = (
{
name = bottom;
position = "{268, 0}";
},
{
name = top;
position = "{401, 690}";
}
);
layerId = master01;
paths = (
{
closed = 1;
nodes = (
"251 260 LINE",
"333 260 LINE",
"358 397 LINE",
"255 690 LINE",
"82 690 LINE"
);
},
{
closed = 1;
nodes = (
"343 0 LINE",
"405 290 LINE",
"245 290 LINE",
"183 0 LINE"
);
},
{
closed = 1;
nodes = (
"385 260 LINE",
"738 690 LINE",
"547 690 LINE",
"324 397 LINE",
"311 260 LINE"
);
}
);
userData = {
com.schriftgestaltung.Glyphs.lastChange = "2021-03-08 23:14:26 +0000";
};
width = 646;
},
{
anchors = (
{
name = bottom;
position = "{233, 0}";
},
{
name = top;
position = "{364, 690}";
}
);
layerId = master02;
paths = (
{
closed = 1;
nodes = (
"217 261 LINE",
"291 261 LINE",
"319 392 LINE",
"247 690 LINE",
"89 690 LINE"
);
},
{
closed = 1;
nodes = (
"296 0 LINE",
"358 291 LINE",
"212 291 LINE",
"150 0 LINE"
);
},
{
closed = 1;
nodes = (
"339 261 LINE",
"653 690 LINE",
"479 690 LINE",
"289 392 LINE",
"272 261 LINE"
);
}
);
userData = {
com.schriftgestaltung.Glyphs.lastChange = "2021-03-08 23:03:58 +0000";
};
width = 568;
},
{
anchors = (
{
name = bottom;
position = "{193, 0}";
},
{
name = top;
position = "{335, 690}";
}
);
layerId = master03;
paths = (
{
closed = 1;
nodes = (
"224 280 LINE",
"262 280 LINE",
"268 321 LINE",
"172 690 LINE",
"106 690 LINE"
);
},
{
closed = 1;
nodes = (
"221 0 LINE",
"287 310 LINE",
"225 310 LINE",
"159 0 LINE"
);
},
{
closed = 1;
nodes = (
"276 280 LINE",
"568 690 LINE",
"498 690 LINE",
"245 321 LINE",
"239 280 LINE"
);
}
);
userData = {
com.schriftgestaltung.Glyphs.lastChange = "2021-03-08 22:58:01 +0000";
};
width = 499;
},
{
anchors = (
{
name = bottom;
position = "{196, 0}";
},
{
name = top;
position = "{329, 690}";
}
);
layerId = master04;
paths = (
{
closed = 1;
nodes = (
"210 274 LINE",
"259 274 LINE",
"274 345 LINE",
"189 690 LINE",
"96 690 LINE"
);
},
{
closed = 1;
nodes = (
"235 0 LINE",
"305 329 LINE",
"215 329 LINE",
"145 0 LINE"
);
},
{
closed = 1;
nodes = (
"286 274 LINE",
"578 690 LINE",
"479 690 LINE",
"253 345 LINE",
"238 274 LINE"
);
}
);
userData = {
com.schriftgestaltung.Glyphs.lastChange = "2021-03-08 23:03:27 +0000";
};
width = 499;
},
{
anchors = (
{
name = bottom;
position = "{226, 0}";
},
{
name = top;
position = "{363, 690}";
}
);
layerId = master05;
paths = (
{
closed = 1;
nodes = (
"255 280 LINE",
"293 280 LINE",
"299 321 LINE",
"163 690 LINE",
"97 690 LINE"
);
},
{
closed = 1;
nodes = (
"252 0 LINE",
"318 310 LINE",
"256 310 LINE",
"190 0 LINE"
);
},
{
closed = 1;
nodes = (
"307 280 LINE",
"639 690 LINE",
"569 690 LINE",
"276 321 LINE",
"270 280 LINE"
);
}
);
userData = {
com.schriftgestaltung.Glyphs.lastChange = "2021-03-08 23:04:35 +0000";
};
width = 562;
},
{
anchors = (
{
name = bottom;
position = "{241, 0}";
},
{
name = top;
position = "{373, 690}";
}
);
layerId = master06;
paths = (
{
closed = 1;
nodes = (
"254 273 LINE",
"307 273 LINE",
"320 348 LINE",
"196 690 LINE",
"92 690 LINE"
);
},
{
closed = 1;
nodes = (
"284 0 LINE",
"349 303 LINE",
"252 303 LINE",
"188 0 LINE"
);
},
{
closed = 1;
nodes = (
"335 273 LINE",
"674 690 LINE",
"561 690 LINE",
"293 348 LINE",
"285 273 LINE"
);
}
);
userData = {
com.schriftgestaltung.Glyphs.lastChange = "2021-03-08 23:05:02 +0000";
};
width = 592;
}
);
leftKerningGroup = Y;
rightKerningGroup = Y;
unicode = 0059;
},
{
color = 5;
glyphname = Z;
layers = (
{
anchors = (
{
name = top;
position = "{380, 690}";
}
);
layerId = master01;
paths = (
{
closed = 1;
nodes = (
"511 0 LINE",
"541 140 LINE",
"74 140 LINE",
"7 105 LINE",
"-15 0 LINE"
);
},
{
closed = 1;
nodes = (
"113 0 LINE",
"625 585 LINE",
"520 690 LINE",
"7 105 LINE"
);
},
{
closed = 1;
nodes = (
"560 550 LINE",
"625 585 LINE",
"648 690 LINE",
"142 690 LINE",
"112 550 LINE"
);
}
);
userData = {
com.schriftgestaltung.Glyphs.lastChange = "2021-03-02 23:46:34 +0000";
};
width = 616;
},
{
anchors = (
{
name = top;
position = "{345, 690}";
}
);
layerId = master02;
paths = (
{
closed = 1;
nodes = (
"436 0 LINE",
"464 134 LINE",
"73 134 LINE",
"10 100 LINE",
"-11 0 LINE"
);
},
{
closed = 1;
nodes = (
"103 0 LINE",
"550 590 LINE",
"458 690 LINE",
"10 100 LINE"
);
},
{
closed = 1;
nodes = (
"489 556 LINE",
"550 590 LINE",
"572 690 LINE",
"143 690 LINE",
"114 556 LINE"
);
}
);
userData = {
com.schriftgestaltung.Glyphs.lastChange = "2021-03-03 00:29:32 +0000";
};
width = 544;
},
{
anchors = (
{
name = top;
position = "{341, 690}";
}
);
layerId = master03;
paths = (
{
closed = 1;
nodes = (
"386 0 LINE",
"397 54 LINE",
"25 54 LINE",
"8 42 LINE",
"-1 0 LINE"
);
},
{
closed = 1;
nodes = (
"50 0 LINE",
"516 648 LINE",
"473 690 LINE",
"8 42 LINE"
);
},
{
closed = 1;
nodes = (
"496 636 LINE",
"516 648 LINE",
"525 690 LINE",
"154 690 LINE",
"142 636 LINE"
);
}
);
userData = {
com.schriftgestaltung.Glyphs.lastChange = "2021-03-04 13:06:44 +0000";
};
width = 495;
},
{
anchors = (
{
name = top;
position = "{324, 690}";
}
);
layerId = master04;
paths = (
{
closed = 1;
nodes = (
"387 0 LINE",
"404 82 LINE",
"37 82 LINE",
"2 62 LINE",
"-11 0 LINE"
);
},
{
closed = 1;
nodes = (
"56 0 LINE",
"510 628 LINE",
"455 690 LINE",
"2 62 LINE"
);
},
{
closed = 1;
nodes = (
"473 608 LINE",
"510 628 LINE",
"524 690 LINE",
"139 690 LINE",
"121 608 LINE"
);
}
);
userData = {
com.schriftgestaltung.Glyphs.lastChange = "2021-03-02 23:38:03 +0000";
};
width = 495;
},
{
anchors = (
{
name = top;
position = "{381, 690}";
}
);
layerId = master05;
paths = (
{
closed = 1;
nodes = (
"468 0 LINE",
"479 54 LINE",
"27 54 LINE",
"10 42 LINE",
"1 0 LINE"
);
},
{
closed = 1;
nodes = (
"52 0 LINE",
"598 648 LINE",
"555 690 LINE",
"10 42 LINE"
);
},
{
closed = 1;
nodes = (
"578 636 LINE",
"598 648 LINE",
"607 690 LINE",
"156 690 LINE",
"144 636 LINE"
);
}
);
userData = {
com.schriftgestaltung.Glyphs.lastChange = "2021-03-02 23:45:43 +0000";
};
width = 589;
},
{
anchors = (
{
name = top;
position = "{384, 690}";
}
);
layerId = master06;
paths = (
{
closed = 1;
nodes = (
"489 0 LINE",
"507 85 LINE",
"50 85 LINE",
"15 64 LINE",
"1 0 LINE"
);
},
{
closed = 1;
nodes = (
"82 0 LINE",
"614 626 LINE",
"547 690 LINE",
"15 64 LINE"
);
},
{
closed = 1;
nodes = (
"578 605 LINE",
"614 626 LINE",
"627 690 LINE",
"157 690 LINE",
"139 605 LINE"
);
}
);
userData = {
com.schriftgestaltung.Glyphs.lastChange = "2021-03-02 23:45:59 +0000";
};
width = 611;
}
);
leftKerningGroup = Z;
rightKerningGroup = Z;
unicode = 005A;
},
{
color = 5;
glyphname = a;
layers = (
{
anchors = (
{
name = bottom;
position = "{254, 0}";
},
{
name = ogonek;
position = "{492, 0}";
},
{
name = top;
position = "{356, 525}";
}
);
layerId = master01;
paths = (
{
closed = 1;
nodes = (
"22 70 OFFCURVE",
"86 -12 OFFCURVE",
"184 -12 CURVE",
"259 -12 OFFCURVE",
"326 31 OFFCURVE",
"367 101 CURVE",
"348 111 LINE",
"348 0 LINE",
"492 0 LINE",
"492 49 LINE SMOOTH",
"492 78 OFFCURVE",
"493 97 OFFCURVE",
"499 125 CURVE SMOOTH",
"584 525 LINE",
"447 525 LINE",
"425 480 LINE",
"385 294 LINE SMOOTH",
"361 184 OFFCURVE",
"292 120 OFFCURVE",
"233 120 CURVE",
"197 120 OFFCURVE",
"176 146 OFFCURVE",
"176 207 CURVE SMOOTH",
"176 302 OFFCURVE",
"231 414 OFFCURVE",
"322 414 CURVE",
"363 414 OFFCURVE",
"399 393 OFFCURVE",
"428 356 CURVE",
"449 481 LINE",
"413 516 OFFCURVE",
"361 537 OFFCURVE",
"306 537 CURVE",
"154 537 OFFCURVE",
"22 371 OFFCURVE",
"22 189 CURVE SMOOTH"
);
}
);
userData = {
com.schriftgestaltung.Glyphs.lastChange = "2021-03-07 22:28:18 +0000";
};
width = 598;
},
{
anchors = (
{
name = bottom;
position = "{218, 0}";
},
{
name = ogonek;
position = "{414, 0}";
},
{
name = top;
position = "{309, 525}";
}
);
layerId = master02;
paths = (
{
closed = 1;
nodes = (
"16 63 OFFCURVE",
"65 -12 OFFCURVE",
"149 -12 CURVE",
"208 -12 OFFCURVE",
"265 31 OFFCURVE",
"302 101 CURVE",
"286 111 LINE",
"283 0 LINE",
"414 0 LINE",
"416 50 LINE SMOOTH",
"417 79 OFFCURVE",
"418 96 OFFCURVE",
"424 125 CURVE SMOOTH",
"509 525 LINE",
"383 525 LINE",
"364 483 LINE",
"324 298 LINE SMOOTH",
"299 184 OFFCURVE",
"243 123 OFFCURVE",
"203 123 CURVE",
"177 123 OFFCURVE",
"158 144 OFFCURVE",
"158 199 CURVE",
"158 300 OFFCURVE",
"205 412 OFFCURVE",
"278 412 CURVE",
"309 412 OFFCURVE",
"338 400 OFFCURVE",
"362 363 CURVE",
"385 485 LINE",
"356 519 OFFCURVE",
"313 537 OFFCURVE",
"269 537 CURVE",
"136 537 OFFCURVE",
"16 356 OFFCURVE",
"16 178 CURVE"
);
}
);
userData = {
com.schriftgestaltung.Glyphs.lastChange = "2021-03-08 23:43:59 +0000";
};
width = 522;
},
{
anchors = (
{
name = bottom;
position = "{202, 0}";
},
{
name = ogonek;
position = "{375, 0}";
},
{
name = top;
position = "{308, 510}";
}
);
layerId = master03;
paths = (
{
closed = 1;
nodes = (
"49 62 OFFCURVE",
"95 -8 OFFCURVE",
"176 -8 CURVE SMOOTH",
"251 -8 OFFCURVE",
"290 37 OFFCURVE",
"332 108 CURVE",
"323 113 LINE",
"319 0 LINE",
"375 0 LINE",
"375 25 LINE SMOOTH",
"375 58 OFFCURVE",
"379 89 OFFCURVE",
"386 122 CURVE SMOOTH",
"468 510 LINE",
"416 510 LINE",
"393 439 LINE",
"349 232 LINE SMOOTH",
"324 112 OFFCURVE",
"262 45 OFFCURVE",
"192 45 CURVE SMOOTH",
"131 45 OFFCURVE",
"110 98 OFFCURVE",
"110 176 CURVE SMOOTH",
"110 337 OFFCURVE",
"192 466 OFFCURVE",
"291 466 CURVE SMOOTH",
"338 466 OFFCURVE",
"368 450 OFFCURVE",
"402 405 CURVE",
"414 455 LINE",
"382 494 OFFCURVE",
"348 518 OFFCURVE",
"296 518 CURVE SMOOTH",
"161 518 OFFCURVE",
"49 368 OFFCURVE",
"49 170 CURVE SMOOTH"
);
}
);
userData = {
com.schriftgestaltung.Glyphs.lastChange = "2021-03-07 21:07:25 +0000";
};
width = 500;
},
{
anchors = (
{
name = bottom;
position = "{201, 0}";
},
{
name = ogonek;
position = "{380, 0}";
},
{
name = top;
position = "{308, 514}";
}
);
layerId = master04;
paths = (
{
closed = 1;
nodes = (
"29 46 OFFCURVE",
"87 -10 OFFCURVE",
"155 -10 CURVE",
"214 -10 OFFCURVE",
"274 30 OFFCURVE",
"312 100 CURVE",
"301 113 LINE",
"296 0 LINE",
"380 0 LINE",
"380 33 LINE SMOOTH",
"380 65 OFFCURVE",
"383 92 OFFCURVE",
"390 124 CURVE",
"473 515 LINE",
"394 515 LINE",
"373 452 LINE",
"331 252 LINE",
"305 130 OFFCURVE",
"242 67 OFFCURVE",
"185 67 CURVE SMOOTH",
"141 67 OFFCURVE",
"118 105 OFFCURVE",
"117 178 CURVE SMOOTH",
"116 319 OFFCURVE",
"196 450 OFFCURVE",
"278 450 CURVE SMOOTH",
"310 450 OFFCURVE",
"345 437 OFFCURVE",
"374 397 CURVE",
"389 460 LINE",
"361 501 OFFCURVE",
"319 525 OFFCURVE",
"274 525 CURVE",
"150 525 OFFCURVE",
"29 363 OFFCURVE",
"29 170 CURVE SMOOTH"
);
}
);
userData = {
com.schriftgestaltung.Glyphs.lastChange = "2021-03-07 21:19:30 +0000";
};
width = 501;
},
{
anchors = (
{
name = bottom;
position = "{222, 0}";
},
{
name = ogonek;
position = "{418, 0}";
},
{
name = top;
position = "{339, 510}";
}
);
layerId = master05;
paths = (
{
closed = 1;
nodes = (
"42 52 OFFCURVE",
"110 -8 OFFCURVE",
"189 -8 CURVE SMOOTH",
"261 -8 OFFCURVE",
"333 37 OFFCURVE",
"375 108 CURVE",
"366 113 LINE",
"362 0 LINE",
"418 0 LINE",
"418 25 LINE SMOOTH",
"418 58 OFFCURVE",
"422 89 OFFCURVE",
"429 122 CURVE SMOOTH",
"511 510 LINE",
"459 510 LINE",
"436 439 LINE",
"392 232 LINE SMOOTH",
"367 112 OFFCURVE",
"277 45 OFFCURVE",
"205 45 CURVE SMOOTH",
"146 45 OFFCURVE",
"103 88 OFFCURVE",
"103 176 CURVE SMOOTH",
"103 337 OFFCURVE",
"205 466 OFFCURVE",
"304 466 CURVE SMOOTH",
"353 466 OFFCURVE",
"396 448 OFFCURVE",
"437 403 CURVE",
"447 455 LINE",
"407 499 OFFCURVE",
"357 518 OFFCURVE",
"309 518 CURVE SMOOTH",
"175 518 OFFCURVE",
"42 368 OFFCURVE",
"42 170 CURVE SMOOTH"
);
}
);
userData = {
com.schriftgestaltung.Glyphs.lastChange = "2021-03-07 21:36:34 +0000";
};
width = 551;
},
{
anchors = (
{
name = bottom;
position = "{244, 0}";
},
{
name = ogonek;
position = "{449, 0}";
},
{
name = top;
position = "{353, 515}";
}
);
layerId = master06;
paths = (
{
closed = 1;
nodes = (
"39 58 OFFCURVE",
"109 -10 OFFCURVE",
"195 -10 CURVE",
"268 -10 OFFCURVE",
"335 29 OFFCURVE",
"377 100 CURVE",
"364 112 LINE",
"361 0 LINE",
"449 0 LINE",
"449 34 LINE SMOOTH",
"449 65 OFFCURVE",
"451 92 OFFCURVE",
"458 123 CURVE SMOOTH",
"541 515 LINE",
"459 515 LINE",
"436 454 LINE",
"394 254 LINE SMOOTH",
"370 138 OFFCURVE",
"287 72 OFFCURVE",
"219 72 CURVE",
"168 72 OFFCURVE",
"133 109 OFFCURVE",
"133 187 CURVE",
"133 325 OFFCURVE",
"219 448 OFFCURVE",
"315 448 CURVE",
"361 448 OFFCURVE",
"401 428 OFFCURVE",
"438 386 CURVE",
"452 464 LINE",
"413 505 OFFCURVE",
"363 525 OFFCURVE",
"312 525 CURVE",
"172 525 OFFCURVE",
"39 369 OFFCURVE",
"39 177 CURVE"
);
}
);
userData = {
com.schriftgestaltung.Glyphs.lastChange = "2021-03-07 21:55:43 +0000";
};
width = 580;
}
);
leftKerningGroup = a;
rightKerningGroup = a;
unicode = 0061;
},
{
color = 5;
glyphname = ae;
layers = (
{
anchors = (
{
name = top;
position = "{477, 525}";
}
);
layerId = master01;
paths = (
{
closed = 1;
nodes = (
"4 53 OFFCURVE",
"57 -12 OFFCURVE",
"151 -12 CURVE",
"248 -12 OFFCURVE",
"316 28 OFFCURVE",
"382 93 CURVE",
"346 160 LINE",
"301 127 OFFCURVE",
"271 104 OFFCURVE",
"217 104 CURVE",
"169 104 OFFCURVE",
"155 128 OFFCURVE",
"155 148 CURVE SMOOTH",
"155 207 OFFCURVE",
"253 221 OFFCURVE",
"324 221 CURVE SMOOTH",
"339 221 OFFCURVE",
"352 221 OFFCURVE",
"364 220 CURVE",
"382 310 LINE",
"358 311 OFFCURVE",
"316 312 OFFCURVE",
"281 312 CURVE",
"123 312 OFFCURVE",
"4 254 OFFCURVE",
"4 124 CURVE SMOOTH"
);
},
{
closed = 1;
nodes = (
"116 372 LINE",
"159 391 OFFCURVE",
"211 405 OFFCURVE",
"266 405 CURVE SMOOTH",
"324 405 OFFCURVE",
"353 385 OFFCURVE",
"353 344 CURVE SMOOTH",
"353 336 OFFCURVE",
"352 328 OFFCURVE",
"342 280 CURVE",
"481 280 LINE",
"494 347 OFFCURVE",
"497 367 OFFCURVE",
"497 386 CURVE SMOOTH",
"497 485 OFFCURVE",
"421 537 OFFCURVE",
"317 537 CURVE SMOOTH",
"226 537 OFFCURVE",
"157 516 OFFCURVE",
"101 493 CURVE"
);
},
{
closed = 1;
nodes = (
"332 65 OFFCURVE",
"413 -12 OFFCURVE",
"545 -12 CURVE",
"627 -12 OFFCURVE",
"688 10 OFFCURVE",
"767 61 CURVE",
"707 158 LINE",
"665 128 OFFCURVE",
"627 111 OFFCURVE",
"579 111 CURVE",
"517 111 OFFCURVE",
"486 146 OFFCURVE",
"486 205 CURVE SMOOTH",
"486 368 OFFCURVE",
"562 416 OFFCURVE",
"619 416 CURVE",
"660 416 OFFCURVE",
"679 400 OFFCURVE",
"679 374 CURVE",
"679 314 OFFCURVE",
"583 306 OFFCURVE",
"459 306 CURVE SMOOTH",
"458 306 OFFCURVE",
"456 306 OFFCURVE",
"455 306 CURVE",
"434 215 LINE",
"448 215 OFFCURVE",
"458 214 OFFCURVE",
"472 214 CURVE SMOOTH",
"665 214 OFFCURVE",
"823 248 OFFCURVE",
"823 390 CURVE",
"823 473 OFFCURVE",
"755 537 OFFCURVE",
"650 537 CURVE SMOOTH",
"455 537 OFFCURVE",
"332 371 OFFCURVE",
"332 182 CURVE"
);
}
);
userData = {
com.schriftgestaltung.Glyphs.lastChange = "2021-03-02 23:46:34 +0000";
};
width = 847;
},
{
anchors = (
{
name = top;
position = "{406, 526}";
}
);
layerId = master02;
paths = (
{
closed = 1;
nodes = (
"-9 54 OFFCURVE",
"37 -12 OFFCURVE",
"123 -12 CURVE",
"202 -12 OFFCURVE",
"263 29 OFFCURVE",
"312 93 CURVE",
"281 161 LINE",
"243 124 OFFCURVE",
"212 106 OFFCURVE",
"178 106 CURVE",
"146 106 OFFCURVE",
"130 124 OFFCURVE",
"130 148 CURVE",
"130 187 OFFCURVE",
"175 219 OFFCURVE",
"270 219 CURVE SMOOTH",
"281 219 OFFCURVE",
"292 219 OFFCURVE",
"299 218 CURVE",
"318 311 LINE",
"297 312 OFFCURVE",
"261 313 OFFCURVE",
"231 313 CURVE SMOOTH",
"97 313 OFFCURVE",
"-9 255 OFFCURVE",
"-9 128 CURVE"
);
},
{
closed = 1;
nodes = (
"94 371 LINE",
"130 389 OFFCURVE",
"174 403 OFFCURVE",
"221 403 CURVE SMOOTH",
"269 403 OFFCURVE",
"291 382 OFFCURVE",
"291 347 CURVE",
"291 335 OFFCURVE",
"289 311 OFFCURVE",
"280 279 CURVE",
"406 280 LINE",
"420 349 OFFCURVE",
"409 367 OFFCURVE",
"409 386 CURVE SMOOTH",
"409 486 OFFCURVE",
"352 537 OFFCURVE",
"268 537 CURVE",
"192 537 OFFCURVE",
"134 519 OFFCURVE",
"86 496 CURVE"
);
},
{
closed = 1;
nodes = (
"265 66 OFFCURVE",
"332 -12 OFFCURVE",
"447 -12 CURVE SMOOTH",
"516 -12 OFFCURVE",
"567 7 OFFCURVE",
"639 57 CURVE",
"589 158 LINE",
"552 129 OFFCURVE",
"522 115 OFFCURVE",
"483 115 CURVE SMOOTH",
"432 115 OFFCURVE",
"409 150 OFFCURVE",
"411 207 CURVE SMOOTH",
"416 371 OFFCURVE",
"478 415 OFFCURVE",
"523 415 CURVE SMOOTH",
"550 415 OFFCURVE",
"564 398 OFFCURVE",
"564 373 CURVE SMOOTH",
"564 333 OFFCURVE",
"528 307 OFFCURVE",
"388 307 CURVE SMOOTH",
"387 307 OFFCURVE",
"385 307 OFFCURVE",
"384 307 CURVE",
"362 213 LINE",
"369 213 OFFCURVE",
"377 213 OFFCURVE",
"384 213 CURVE SMOOTH",
"576 213 OFFCURVE",
"696 266 OFFCURVE",
"696 390 CURVE SMOOTH",
"696 474 OFFCURVE",
"641 537 OFFCURVE",
"551 537 CURVE SMOOTH",
"383 537 OFFCURVE",
"275 372 OFFCURVE",
"269 183 CURVE"
);
}
);
userData = {
com.schriftgestaltung.Glyphs.lastChange = "2021-03-02 23:44:54 +0000";
};
width = 719;
},
{
anchors = (
{
name = top;
position = "{396, 510}";
}
);
layerId = master03;
paths = (
{
closed = 1;
nodes = (
"49 49 OFFCURVE",
"88 -8 OFFCURVE",
"167 -8 CURVE SMOOTH",
"218 -8 OFFCURVE",
"258 22 OFFCURVE",
"317 102 CURVE",
"304 149 LINE",
"262 83 OFFCURVE",
"218 46 OFFCURVE",
"174 46 CURVE SMOOTH",
"122 46 OFFCURVE",
"110 86 OFFCURVE",
"110 132 CURVE SMOOTH",
"110 211 OFFCURVE",
"183 259 OFFCURVE",
"237 259 CURVE SMOOTH",
"261 259 OFFCURVE",
"287 258 OFFCURVE",
"311 257 CURVE",
"320 299 LINE",
"301 301 OFFCURVE",
"268 303 OFFCURVE",
"242 303 CURVE SMOOTH",
"150 303 OFFCURVE",
"49 245 OFFCURVE",
"49 130 CURVE SMOOTH"
);
},
{
closed = 1;
nodes = (
"106 434 LINE",
"157 460 OFFCURVE",
"185 463 OFFCURVE",
"233 463 CURVE SMOOTH",
"297 463 OFFCURVE",
"324 436 OFFCURVE",
"324 370 CURVE SMOOTH",
"324 353 OFFCURVE",
"323 343 OFFCURVE",
"312 292 CURVE",
"369 276 LINE",
"378 321 OFFCURVE",
"386 361 OFFCURVE",
"386 381 CURVE SMOOTH",
"386 472 OFFCURVE",
"335 518 OFFCURVE",
"245 518 CURVE SMOOTH",
"191 518 OFFCURVE",
"142 508 OFFCURVE",
"88 481 CURVE"
);
},
{
closed = 1;
nodes = (
"294 55 OFFCURVE",
"339 -8 OFFCURVE",
"425 -8 CURVE SMOOTH",
"486 -8 OFFCURVE",
"534 23 OFFCURVE",
"582 81 CURVE",
"545 116 LINE",
"505 68 OFFCURVE",
"472 47 OFFCURVE",
"430 47 CURVE SMOOTH",
"372 47 OFFCURVE",
"354 87 OFFCURVE",
"354 176 CURVE SMOOTH",
"354 318 OFFCURVE",
"406 463 OFFCURVE",
"508 463 CURVE SMOOTH",
"565 463 OFFCURVE",
"585 430 OFFCURVE",
"585 390 CURVE SMOOTH",
"585 335 OFFCURVE",
"557 286 OFFCURVE",
"445 286 CURVE SMOOTH",
"413 286 OFFCURVE",
"396 289 OFFCURVE",
"354 295 CURVE",
"345 246 LINE",
"390 239 OFFCURVE",
"411 236 OFFCURVE",
"447 236 CURVE SMOOTH",
"596 236 OFFCURVE",
"644 313 OFFCURVE",
"644 393 CURVE SMOOTH",
"644 460 OFFCURVE",
"606 518 OFFCURVE",
"514 518 CURVE SMOOTH",
"377 518 OFFCURVE",
"294 349 OFFCURVE",
"294 165 CURVE SMOOTH"
);
}
);
userData = {
com.schriftgestaltung.Glyphs.lastChange = "2021-03-04 23:04:20 +0000";
};
width = 669;
},
{
anchors = (
{
name = top;
position = "{413, 514}";
}
);
layerId = master04;
paths = (
{
closed = 1;
nodes = (
"16 43 OFFCURVE",
"69 -10 OFFCURVE",
"147 -10 CURVE SMOOTH",
"205 -10 OFFCURVE",
"267 18 OFFCURVE",
"321 89 CURVE",
"306 148 LINE",
"268 95 OFFCURVE",
"217 64 OFFCURVE",
"172 64 CURVE SMOOTH",
"129 64 OFFCURVE",
"105 91 OFFCURVE",
"105 130 CURVE SMOOTH",
"105 203 OFFCURVE",
"190 248 OFFCURVE",
"268 248 CURVE SMOOTH",
"285 248 OFFCURVE",
"301 247 OFFCURVE",
"316 246 CURVE",
"329 302 LINE",
"311 305 OFFCURVE",
"280 306 OFFCURVE",
"254 306 CURVE SMOOTH",
"124 306 OFFCURVE",
"16 240 OFFCURVE",
"16 124 CURVE SMOOTH"
);
},
{
closed = 1;
nodes = (
"122 404 LINE",
"163 431 OFFCURVE",
"214 445 OFFCURVE",
"251 445 CURVE SMOOTH",
"299 445 OFFCURVE",
"321 421 OFFCURVE",
"321 362 CURVE SMOOTH",
"321 345 OFFCURVE",
"319 339 OFFCURVE",
"309 289 CURVE",
"391 277 LINE",
"399 329 OFFCURVE",
"403 363 OFFCURVE",
"403 383 CURVE SMOOTH",
"406 476 OFFCURVE",
"347 525 OFFCURVE",
"262 525 CURVE SMOOTH",
"204 525 OFFCURVE",
"136 504 OFFCURVE",
"89 480 CURVE"
);
},
{
closed = 1;
nodes = (
"297 57 OFFCURVE",
"361 -10 OFFCURVE",
"449 -10 CURVE SMOOTH",
"518 -10 OFFCURVE",
"578 26 OFFCURVE",
"628 81 CURVE",
"579 135 LINE",
"546 94 OFFCURVE",
"510 67 OFFCURVE",
"468 67 CURVE SMOOTH",
"412 67 OFFCURVE",
"381 105 OFFCURVE",
"381 185 CURVE SMOOTH",
"381 333 OFFCURVE",
"466 448 OFFCURVE",
"547 448 CURVE SMOOTH",
"588 448 OFFCURVE",
"606 420 OFFCURVE",
"605 385 CURVE SMOOTH",
"603 329 OFFCURVE",
"543 291 OFFCURVE",
"428 291 CURVE SMOOTH",
"413 291 OFFCURVE",
"394 292 OFFCURVE",
"374 296 CURVE",
"360 240 LINE",
"385 234 OFFCURVE",
"409 233 OFFCURVE",
"427 233 CURVE SMOOTH",
"588 233 OFFCURVE",
"685 293 OFFCURVE",
"688 392 CURVE",
"691 466 OFFCURVE",
"644 525 OFFCURVE",
"561 525 CURVE SMOOTH",
"415 525 OFFCURVE",
"297 355 OFFCURVE",
"297 170 CURVE SMOOTH"
);
}
);
userData = {
com.schriftgestaltung.Glyphs.lastChange = "2021-03-02 23:38:03 +0000";
};
width = 714;
},
{
anchors = (
{
name = top;
position = "{486, 510}";
}
);
layerId = master05;
paths = (
{
closed = 1;
nodes = (
"19 39 OFFCURVE",
"78 -8 OFFCURVE",
"157 -8 CURVE",
"228 -8 OFFCURVE",
"288 22 OFFCURVE",
"367 102 CURVE",
"354 149 LINE",
"292 83 OFFCURVE",
"228 46 OFFCURVE",
"164 46 CURVE",
"112 46 OFFCURVE",
"80 76 OFFCURVE",
"80 122 CURVE",
"80 201 OFFCURVE",
"173 259 OFFCURVE",
"287 259 CURVE SMOOTH",
"311 259 OFFCURVE",
"337 258 OFFCURVE",
"361 257 CURVE",
"370 299 LINE",
"351 301 OFFCURVE",
"318 303 OFFCURVE",
"292 303 CURVE SMOOTH",
"140 303 OFFCURVE",
"19 235 OFFCURVE",
"19 120 CURVE"
);
},
{
closed = 1;
nodes = (
"126 425 LINE",
"177 451 OFFCURVE",
"225 463 OFFCURVE",
"273 463 CURVE SMOOTH",
"337 463 OFFCURVE",
"374 436 OFFCURVE",
"374 370 CURVE SMOOTH",
"374 353 OFFCURVE",
"373 343 OFFCURVE",
"362 292 CURVE",
"419 276 LINE",
"428 321 OFFCURVE",
"436 361 OFFCURVE",
"436 381 CURVE SMOOTH",
"436 472 OFFCURVE",
"375 518 OFFCURVE",
"285 518 CURVE SMOOTH",
"231 518 OFFCURVE",
"162 499 OFFCURVE",
"108 472 CURVE"
);
},
{
closed = 1;
nodes = (
"344 55 OFFCURVE",
"419 -8 OFFCURVE",
"515 -8 CURVE SMOOTH",
"597 -8 OFFCURVE",
"664 33 OFFCURVE",
"712 91 CURVE",
"675 126 LINE",
"635 78 OFFCURVE",
"583 47 OFFCURVE",
"520 47 CURVE SMOOTH",
"452 47 OFFCURVE",
"404 87 OFFCURVE",
"404 176 CURVE SMOOTH",
"404 318 OFFCURVE",
"506 463 OFFCURVE",
"628 463 CURVE",
"685 463 OFFCURVE",
"715 430 OFFCURVE",
"715 390 CURVE SMOOTH",
"715 335 OFFCURVE",
"667 286 OFFCURVE",
"515 286 CURVE SMOOTH",
"483 286 OFFCURVE",
"446 289 OFFCURVE",
"404 295 CURVE",
"395 246 LINE",
"440 239 OFFCURVE",
"481 236 OFFCURVE",
"517 236 CURVE SMOOTH",
"706 236 OFFCURVE",
"774 313 OFFCURVE",
"774 393 CURVE",
"774 460 OFFCURVE",
"726 518 OFFCURVE",
"634 518 CURVE",
"477 518 OFFCURVE",
"344 349 OFFCURVE",
"344 165 CURVE SMOOTH"
);
}
);
userData = {
com.schriftgestaltung.Glyphs.lastChange = "2021-03-02 23:45:43 +0000";
};
width = 804;
},
{
anchors = (
{
name = top;
position = "{464, 515}";
}
);
layerId = master06;
paths = (
{
closed = 1;
nodes = (
"14 44 OFFCURVE",
"71 -10 OFFCURVE",
"156 -10 CURVE",
"230 -10 OFFCURVE",
"299 16 OFFCURVE",
"373 91 CURVE",
"352 153 LINE",
"296 99 OFFCURVE",
"244 67 OFFCURVE",
"183 67 CURVE",
"133 67 OFFCURVE",
"107 94 OFFCURVE",
"107 131 CURVE",
"107 203 OFFCURVE",
"202 246 OFFCURVE",
"301 246 CURVE SMOOTH",
"322 246 OFFCURVE",
"343 245 OFFCURVE",
"363 244 CURVE",
"375 303 LINE",
"354 305 OFFCURVE",
"318 306 OFFCURVE",
"289 306 CURVE SMOOTH",
"135 306 OFFCURVE",
"14 242 OFFCURVE",
"14 121 CURVE"
);
},
{
closed = 1;
nodes = (
"123 406 LINE",
"171 430 OFFCURVE",
"221 442 OFFCURVE",
"271 442 CURVE SMOOTH",
"333 442 OFFCURVE",
"367 418 OFFCURVE",
"367 361 CURVE SMOOTH",
"367 347 OFFCURVE",
"366 338 OFFCURVE",
"356 288 CURVE",
"442 277 LINE",
"452 330 OFFCURVE",
"458 363 OFFCURVE",
"458 383 CURVE SMOOTH",
"458 477 OFFCURVE",
"392 525 OFFCURVE",
"297 525 CURVE SMOOTH",
"230 525 OFFCURVE",
"161 505 OFFCURVE",
"106 479 CURVE"
);
},
{
closed = 1;
nodes = (
"340 59 OFFCURVE",
"418 -10 OFFCURVE",
"526 -10 CURVE SMOOTH",
"608 -10 OFFCURVE",
"673 25 OFFCURVE",
"732 80 CURVE",
"687 137 LINE",
"646 96 OFFCURVE",
"599 70 OFFCURVE",
"542 70 CURVE SMOOTH",
"476 70 OFFCURVE",
"434 108 OFFCURVE",
"434 186 CURVE SMOOTH",
"434 336 OFFCURVE",
"527 446 OFFCURVE",
"625 446 CURVE",
"677 446 OFFCURVE",
"703 419 OFFCURVE",
"703 384 CURVE SMOOTH",
"703 328 OFFCURVE",
"638 293 OFFCURVE",
"496 293 CURVE SMOOTH",
"475 293 OFFCURVE",
"450 295 OFFCURVE",
"423 299 CURVE",
"410 235 LINE",
"444 230 OFFCURVE",
"474 228 OFFCURVE",
"502 228 CURVE SMOOTH",
"692 228 OFFCURVE",
"792 290 OFFCURVE",
"792 392 CURVE",
"792 465 OFFCURVE",
"737 525 OFFCURVE",
"640 525 CURVE",
"470 525 OFFCURVE",
"340 357 OFFCURVE",
"340 171 CURVE SMOOTH"
);
}
);
userData = {
com.schriftgestaltung.Glyphs.lastChange = "2021-03-02 23:45:59 +0000";
};
width = 827;
}
);
leftKerningGroup = a;
rightKerningGroup = e;
unicode = 00E6;
},
{
color = 5;
glyphname = b;
layers = (
{
layerId = master01;
paths = (
{
closed = 1;
nodes = (
"142 0 LINE",
"164 45 LINE",
"204 231 LINE SMOOTH",
"228 341 OFFCURVE",
"297 405 OFFCURVE",
"356 405 CURVE",
"392 405 OFFCURVE",
"413 379 OFFCURVE",
"413 318 CURVE",
"413 223 OFFCURVE",
"358 111 OFFCURVE",
"267 111 CURVE",
"226 111 OFFCURVE",
"190 132 OFFCURVE",
"161 169 CURVE",
"140 44 LINE",
"176 9 OFFCURVE",
"228 -12 OFFCURVE",
"283 -12 CURVE",
"435 -12 OFFCURVE",
"567 154 OFFCURVE",
"567 336 CURVE",
"567 455 OFFCURVE",
"503 537 OFFCURVE",
"405 537 CURVE",
"330 537 OFFCURVE",
"265 494 OFFCURVE",
"224 424 CURVE",
"243 414 LINE",
"311 735 LINE",
"157 715 LINE",
"5 0 LINE"
);
}
);
userData = {
com.schriftgestaltung.Glyphs.lastChange = "2021-03-02 23:46:34 +0000";
};
width = 597;
},
{
layerId = master02;
paths = (
{
closed = 1;
nodes = (
"126 0 LINE",
"145 42 LINE",
"185 227 LINE SMOOTH",
"210 341 OFFCURVE",
"266 402 OFFCURVE",
"306 402 CURVE",
"332 402 OFFCURVE",
"351 381 OFFCURVE",
"351 326 CURVE",
"351 225 OFFCURVE",
"304 113 OFFCURVE",
"231 113 CURVE",
"200 113 OFFCURVE",
"171 125 OFFCURVE",
"147 162 CURVE",
"124 40 LINE",
"153 6 OFFCURVE",
"196 -12 OFFCURVE",
"240 -12 CURVE",
"373 -12 OFFCURVE",
"493 169 OFFCURVE",
"493 347 CURVE",
"493 462 OFFCURVE",
"444 537 OFFCURVE",
"360 537 CURVE",
"301 537 OFFCURVE",
"244 494 OFFCURVE",
"207 424 CURVE",
"224 414 LINE",
"293 735 LINE",
"152 715 LINE",
"0 0 LINE"
);
}
);
userData = {
com.schriftgestaltung.Glyphs.lastChange = "2021-03-02 23:44:54 +0000";
};
width = 517;
},
{
layerId = master03;
paths = (
{
closed = 1;
nodes = (
"83 0 LINE",
"106 71 LINE",
"150 278 LINE SMOOTH",
"175 398 OFFCURVE",
"238 465 OFFCURVE",
"297 465 CURVE SMOOTH",
"344 465 OFFCURVE",
"383 410 OFFCURVE",
"383 324 CURVE SMOOTH",
"383 183 OFFCURVE",
"327 44 OFFCURVE",
"218 44 CURVE SMOOTH",
"184 44 OFFCURVE",
"141 58 OFFCURVE",
"105 107 CURVE",
"95 55 LINE",
"135 11 OFFCURVE",
"170 -8 OFFCURVE",
"213 -8 CURVE SMOOTH",
"357 -8 OFFCURVE",
"444 152 OFFCURVE",
"444 330 CURVE SMOOTH",
"444 447 OFFCURVE",
"392 518 OFFCURVE",
"323 518 CURVE SMOOTH",
"261 518 OFFCURVE",
"206 482 OFFCURVE",
"164 411 CURVE",
"175 397 LINE",
"247 731 LINE",
"184 717 LINE",
"31 0 LINE"
);
}
);
userData = {
com.schriftgestaltung.Glyphs.lastChange = "2021-03-04 23:04:20 +0000";
};
width = 497;
},
{
layerId = master04;
paths = (
{
closed = 1;
nodes = (
"92 0 LINE",
"113 63 LINE",
"156 263 LINE SMOOTH",
"182 385 OFFCURVE",
"245 448 OFFCURVE",
"302 448 CURVE SMOOTH",
"343 448 OFFCURVE",
"370 419 OFFCURVE",
"370 340 CURVE SMOOTH",
"370 191 OFFCURVE",
"291 65 OFFCURVE",
"209 65 CURVE SMOOTH",
"177 65 OFFCURVE",
"142 78 OFFCURVE",
"113 118 CURVE",
"98 55 LINE",
"126 14 OFFCURVE",
"168 -10 OFFCURVE",
"213 -10 CURVE SMOOTH",
"337 -10 OFFCURVE",
"458 154 OFFCURVE",
"458 350 CURVE SMOOTH",
"458 471 OFFCURVE",
"400 525 OFFCURVE",
"332 525 CURVE SMOOTH",
"273 525 OFFCURVE",
"213 485 OFFCURVE",
"175 415 CURVE",
"186 402 LINE",
"257 732 LINE",
"165 716 LINE",
"13 0 LINE"
);
}
);
userData = {
com.schriftgestaltung.Glyphs.lastChange = "2021-03-02 23:38:03 +0000";
};
width = 497;
},
{
layerId = master05;
paths = (
{
closed = 1;
nodes = (
"83 0 LINE",
"106 71 LINE",
"150 278 LINE SMOOTH",
"175 398 OFFCURVE",
"265 465 OFFCURVE",
"337 465 CURVE",
"396 465 OFFCURVE",
"439 422 OFFCURVE",
"439 334 CURVE",
"439 173 OFFCURVE",
"337 44 OFFCURVE",
"238 44 CURVE",
"189 44 OFFCURVE",
"146 62 OFFCURVE",
"105 107 CURVE",
"95 55 LINE",
"135 11 OFFCURVE",
"185 -8 OFFCURVE",
"233 -8 CURVE",
"367 -8 OFFCURVE",
"500 142 OFFCURVE",
"500 340 CURVE",
"500 458 OFFCURVE",
"432 518 OFFCURVE",
"353 518 CURVE",
"281 518 OFFCURVE",
"209 473 OFFCURVE",
"167 402 CURVE",
"175 397 LINE",
"247 731 LINE",
"184 717 LINE",
"31 0 LINE"
);
}
);
userData = {
com.schriftgestaltung.Glyphs.lastChange = "2021-03-04 00:13:29 +0000";
};
width = 553;
},
{
layerId = master06;
paths = (
{
closed = 1;
nodes = (
"109 0 LINE",
"132 62 LINE",
"174 261 LINE SMOOTH",
"199 378 OFFCURVE",
"281 444 OFFCURVE",
"349 444 CURVE",
"400 444 OFFCURVE",
"435 407 OFFCURVE",
"435 328 CURVE",
"435 191 OFFCURVE",
"350 68 OFFCURVE",
"253 68 CURVE",
"207 68 OFFCURVE",
"167 87 OFFCURVE",
"130 129 CURVE",
"116 51 LINE",
"155 10 OFFCURVE",
"205 -10 OFFCURVE",
"256 -10 CURVE",
"396 -10 OFFCURVE",
"529 146 OFFCURVE",
"529 339 CURVE",
"529 457 OFFCURVE",
"459 525 OFFCURVE",
"374 525 CURVE",
"301 525 OFFCURVE",
"234 486 OFFCURVE",
"192 416 CURVE",
"204 403 LINE",
"274 732 LINE",
"179 716 LINE",
"27 0 LINE"
);
}
);
userData = {
com.schriftgestaltung.Glyphs.lastChange = "2021-03-02 23:45:59 +0000";
};
width = 578;
}
);
leftKerningGroup = l;
rightKerningGroup = o;
unicode = 0062;
},
{
color = 5;
glyphname = c;
layers = (
{
anchors = (
{
name = bottom;
position = "{224, 0}";
},
{
name = top;
position = "{320, 525}";
}
);
layerId = master01;
paths = (
{
closed = 1;
nodes = (
"22 71 OFFCURVE",
"102 -12 OFFCURVE",
"223 -12 CURVE SMOOTH",
"293 -12 OFFCURVE",
"358 8 OFFCURVE",
"432 56 CURVE",
"371 165 LINE",
"332 138 OFFCURVE",
"294 119 OFFCURVE",
"256 119 CURVE SMOOTH",
"205 119 OFFCURVE",
"176 150 OFFCURVE",
"176 207 CURVE SMOOTH",
"176 300 OFFCURVE",
"230 406 OFFCURVE",
"310 406 CURVE SMOOTH",
"339 406 OFFCURVE",
"371 394 OFFCURVE",
"392 372 CURVE",
"483 474 LINE",
"451 509 OFFCURVE",
"391 537 OFFCURVE",
"330 537 CURVE SMOOTH",
"149 537 OFFCURVE",
"22 371 OFFCURVE",
"22 188 CURVE SMOOTH"
);
}
);
userData = {
com.schriftgestaltung.Glyphs.lastChange = "2021-03-04 00:17:26 +0000";
};
width = 483;
},
{
anchors = (
{
name = bottom;
position = "{183, 0}";
},
{
name = top;
position = "{308, 526}";
}
);
layerId = master02;
paths = (
{
closed = 1;
nodes = (
"15 71 OFFCURVE",
"85 -12 OFFCURVE",
"203 -12 CURVE SMOOTH",
"255 -12 OFFCURVE",
"300 4 OFFCURVE",
"343 28 CURVE",
"312 141 LINE",
"291 128 OFFCURVE",
"264 119 OFFCURVE",
"240 119 CURVE SMOOTH",
"193 119 OFFCURVE",
"160 153 OFFCURVE",
"160 215 CURVE SMOOTH",
"160 303 OFFCURVE",
"210 406 OFFCURVE",
"301 406 CURVE SMOOTH",
"325 406 OFFCURVE",
"348 397 OFFCURVE",
"364 384 CURVE",
"443 497 LINE",
"410 521 OFFCURVE",
"372 537 OFFCURVE",
"320 537 CURVE SMOOTH",
"138 537 OFFCURVE",
"15 370 OFFCURVE",
"15 190 CURVE SMOOTH"
);
}
);
userData = {
com.schriftgestaltung.Glyphs.lastChange = "2021-03-04 00:25:17 +0000";
};
width = 410;
},
{
anchors = (
{
name = bottom;
position = "{195, 0}";
},
{
name = top;
position = "{303, 510}";
}
);
layerId = master03;
paths = (
{
closed = 1;
nodes = (
"37 55 OFFCURVE",
"88 -8 OFFCURVE",
"186 -8 CURVE SMOOTH",
"261 -8 OFFCURVE",
"307 32 OFFCURVE",
"352 87 CURVE",
"314 122 LINE",
"278 78 OFFCURVE",
"240 47 OFFCURVE",
"191 47 CURVE SMOOTH",
"125 47 OFFCURVE",
"97 89 OFFCURVE",
"97 176 CURVE SMOOTH",
"97 319 OFFCURVE",
"176 463 OFFCURVE",
"295 463 CURVE SMOOTH",
"317 463 OFFCURVE",
"348 449 OFFCURVE",
"366 411 CURVE",
"414 437 LINE",
"392 492 OFFCURVE",
"341 518 OFFCURVE",
"300 518 CURVE SMOOTH",
"144 518 OFFCURVE",
"37 351 OFFCURVE",
"37 166 CURVE SMOOTH"
);
}
);
userData = {
com.schriftgestaltung.Glyphs.lastChange = "2021-03-04 23:04:20 +0000";
};
width = 425;
},
{
anchors = (
{
name = bottom;
position = "{178, 0}";
},
{
name = top;
position = "{283, 514}";
}
);
layerId = master04;
paths = (
{
closed = 1;
nodes = (
"30 61 OFFCURVE",
"84 -10 OFFCURVE",
"179 -10 CURVE SMOOTH",
"241 -10 OFFCURVE",
"304 26 OFFCURVE",
"352 83 CURVE",
"300 138 LINE",
"267 96 OFFCURVE",
"231 67 OFFCURVE",
"192 67 CURVE SMOOTH",
"143 67 OFFCURVE",
"118 109 OFFCURVE",
"118 190 CURVE SMOOTH",
"118 322 OFFCURVE",
"196 446 OFFCURVE",
"286 446 CURVE SMOOTH",
"317 446 OFFCURVE",
"340 428 OFFCURVE",
"358 392 CURVE",
"420 447 LINE",
"396 494 OFFCURVE",
"351 525 OFFCURVE",
"292 525 CURVE SMOOTH",
"139 525 OFFCURVE",
"30 357 OFFCURVE",
"30 170 CURVE SMOOTH"
);
}
);
userData = {
com.schriftgestaltung.Glyphs.lastChange = "2021-03-04 00:16:33 +0000";
};
width = 425;
},
{
anchors = (
{
name = bottom;
position = "{205, 0}";
},
{
name = top;
position = "{313, 510}";
}
);
layerId = master05;
paths = (
{
closed = 1;
nodes = (
"41 55 OFFCURVE",
"105 -8 OFFCURVE",
"200 -8 CURVE SMOOTH",
"282 -8 OFFCURVE",
"347 33 OFFCURVE",
"394 91 CURVE",
"356 126 LINE",
"317 78 OFFCURVE",
"263 47 OFFCURVE",
"205 47 CURVE SMOOTH",
"141 47 OFFCURVE",
"101 89 OFFCURVE",
"101 176 CURVE SMOOTH",
"101 319 OFFCURVE",
"194 463 OFFCURVE",
"313 463 CURVE SMOOTH",
"359 463 OFFCURVE",
"388 444 OFFCURVE",
"409 403 CURVE",
"458 434 LINE",
"432 488 OFFCURVE",
"378 518 OFFCURVE",
"318 518 CURVE SMOOTH",
"162 518 OFFCURVE",
"41 351 OFFCURVE",
"41 166 CURVE SMOOTH"
);
}
);
userData = {
com.schriftgestaltung.Glyphs.lastChange = "2021-03-04 00:14:43 +0000";
};
width = 481;
},
{
anchors = (
{
name = bottom;
position = "{215, 0}";
},
{
name = top;
position = "{321, 515}";
}
);
layerId = master06;
paths = (
{
closed = 1;
nodes = (
"38 61 OFFCURVE",
"107 -10 OFFCURVE",
"212 -10 CURVE SMOOTH",
"289 -10 OFFCURVE",
"354 24 OFFCURVE",
"411 79 CURVE",
"365 140 LINE",
"326 99 OFFCURVE",
"277 72 OFFCURVE",
"226 72 CURVE SMOOTH",
"167 72 OFFCURVE",
"131 111 OFFCURVE",
"131 187 CURVE SMOOTH",
"131 312 OFFCURVE",
"210 443 OFFCURVE",
"315 443 CURVE SMOOTH",
"355 443 OFFCURVE",
"385 426 OFFCURVE",
"406 392 CURVE",
"470 448 LINE",
"442 495 OFFCURVE",
"386 525 OFFCURVE",
"326 525 CURVE SMOOTH",
"161 525 OFFCURVE",
"38 358 OFFCURVE",
"38 174 CURVE SMOOTH"
);
}
);
userData = {
com.schriftgestaltung.Glyphs.lastChange = "2021-03-04 00:14:57 +0000";
};
width = 495;
}
);
leftKerningGroup = o;
rightKerningGroup = c;
unicode = 0063;
},
{
color = 5;
glyphname = d;
layers = (
{
anchors = (
{
name = caron.alt;
position = "{691, 720}";
}
);
layerId = master01;
paths = (
{
closed = 1;
nodes = (
"22 70 OFFCURVE",
"86 -12 OFFCURVE",
"184 -12 CURVE",
"259 -12 OFFCURVE",
"326 31 OFFCURVE",
"367 101 CURVE",
"348 111 LINE",
"348 0 LINE",
"492 0 LINE",
"492 49 LINE SMOOTH",
"492 78 OFFCURVE",
"493 97 OFFCURVE",
"499 125 CURVE SMOOTH",
"628 735 LINE",
"475 715 LINE",
"385 294 LINE SMOOTH",
"361 184 OFFCURVE",
"292 120 OFFCURVE",
"233 120 CURVE",
"197 120 OFFCURVE",
"176 146 OFFCURVE",
"176 207 CURVE SMOOTH",
"176 302 OFFCURVE",
"231 417 OFFCURVE",
"322 417 CURVE",
"363 417 OFFCURVE",
"399 398 OFFCURVE",
"428 356 CURVE",
"457 491 LINE",
"417 521 OFFCURVE",
"368 537 OFFCURVE",
"318 537 CURVE",
"146 537 OFFCURVE",
"22 371 OFFCURVE",
"22 189 CURVE SMOOTH"
);
}
);
userData = {
com.schriftgestaltung.Glyphs.lastChange = "2021-03-02 23:46:34 +0000";
};
width = 598;
},
{
anchors = (
{
name = caron.alt;
position = "{602, 720}";
}
);
layerId = master02;
paths = (
{
closed = 1;
nodes = (
"16 63 OFFCURVE",
"65 -12 OFFCURVE",
"149 -12 CURVE",
"208 -12 OFFCURVE",
"265 31 OFFCURVE",
"302 101 CURVE",
"286 111 LINE",
"283 0 LINE",
"414 0 LINE",
"416 50 LINE SMOOTH",
"417 79 OFFCURVE",
"418 96 OFFCURVE",
"424 125 CURVE SMOOTH",
"553 735 LINE",
"413 715 LINE",
"324 298 LINE SMOOTH",
"300 184 OFFCURVE",
"243 123 OFFCURVE",
"203 123 CURVE",
"177 123 OFFCURVE",
"158 144 OFFCURVE",
"158 199 CURVE",
"158 300 OFFCURVE",
"205 412 OFFCURVE",
"278 412 CURVE",
"309 412 OFFCURVE",
"338 400 OFFCURVE",
"362 363 CURVE",
"385 485 LINE",
"356 519 OFFCURVE",
"313 537 OFFCURVE",
"269 537 CURVE",
"136 537 OFFCURVE",
"16 356 OFFCURVE",
"16 178 CURVE"
);
}
);
userData = {
com.schriftgestaltung.Glyphs.lastChange = "2021-03-02 23:44:54 +0000";
};
width = 522;
},
{
anchors = (
{
name = caron.alt;
position = "{564, 720}";
}
);
layerId = master03;
paths = (
{
closed = 1;
nodes = (
"39 52 OFFCURVE",
"87 -8 OFFCURVE",
"166 -8 CURVE SMOOTH",
"238 -8 OFFCURVE",
"295 37 OFFCURVE",
"332 108 CURVE",
"323 113 LINE",
"319 0 LINE",
"375 0 LINE",
"375 25 LINE SMOOTH",
"375 58 OFFCURVE",
"379 89 OFFCURVE",
"386 122 CURVE SMOOTH",
"515 731 LINE",
"452 717 LINE",
"349 232 LINE SMOOTH",
"324 112 OFFCURVE",
"254 45 OFFCURVE",
"182 45 CURVE SMOOTH",
"123 45 OFFCURVE",
"100 88 OFFCURVE",
"100 176 CURVE SMOOTH",
"100 337 OFFCURVE",
"182 466 OFFCURVE",
"281 466 CURVE SMOOTH",
"330 466 OFFCURVE",
"363 448 OFFCURVE",
"394 403 CURVE",
"404 455 LINE",
"374 499 OFFCURVE",
"334 518 OFFCURVE",
"286 518 CURVE SMOOTH",
"152 518 OFFCURVE",
"39 368 OFFCURVE",
"39 170 CURVE SMOOTH"
);
}
);
userData = {
com.schriftgestaltung.Glyphs.lastChange = "2021-03-04 23:04:20 +0000";
};
width = 499;
},
{
anchors = (
{
name = caron.alt;
position = "{587, 720}";
}
);
layerId = master04;
paths = (
{
closed = 1;
nodes = (
"28 46 OFFCURVE",
"86 -10 OFFCURVE",
"154 -10 CURVE",
"213 -10 OFFCURVE",
"273 30 OFFCURVE",
"311 100 CURVE",
"300 113 LINE",
"294 0 LINE",
"378 0 LINE",
"379 33 LINE SMOOTH",
"380 65 OFFCURVE",
"383 92 OFFCURVE",
"390 124 CURVE SMOOTH",
"520 732 LINE",
"428 716 LINE",
"330 252 LINE SMOOTH",
"304 130 OFFCURVE",
"241 67 OFFCURVE",
"184 67 CURVE",
"141 67 OFFCURVE",
"118 97 OFFCURVE",
"118 180 CURVE",
"118 326 OFFCURVE",
"196 450 OFFCURVE",
"277 450 CURVE",
"309 450 OFFCURVE",
"344 437 OFFCURVE",
"373 397 CURVE",
"388 460 LINE",
"360 501 OFFCURVE",
"318 525 OFFCURVE",
"273 525 CURVE",
"149 525 OFFCURVE",
"28 363 OFFCURVE",
"28 170 CURVE"
);
}
);
userData = {
com.schriftgestaltung.Glyphs.lastChange = "2021-03-02 23:38:03 +0000";
};
width = 499;
},
{
anchors = (
{
name = caron.alt;
position = "{644, 720}";
}
);
layerId = master05;
paths = (
{
closed = 1;
nodes = (
"42 52 OFFCURVE",
"110 -8 OFFCURVE",
"189 -8 CURVE SMOOTH",
"261 -8 OFFCURVE",
"333 37 OFFCURVE",
"375 108 CURVE",
"366 113 LINE",
"362 0 LINE",
"418 0 LINE",
"418 25 LINE SMOOTH",
"418 58 OFFCURVE",
"422 89 OFFCURVE",
"429 122 CURVE SMOOTH",
"558 731 LINE",
"495 717 LINE",
"392 232 LINE SMOOTH",
"367 112 OFFCURVE",
"277 45 OFFCURVE",
"205 45 CURVE SMOOTH",
"146 45 OFFCURVE",
"103 88 OFFCURVE",
"103 176 CURVE SMOOTH",
"103 337 OFFCURVE",
"205 466 OFFCURVE",
"304 466 CURVE SMOOTH",
"353 466 OFFCURVE",
"396 448 OFFCURVE",
"437 403 CURVE",
"447 455 LINE",
"407 499 OFFCURVE",
"357 518 OFFCURVE",
"309 518 CURVE SMOOTH",
"175 518 OFFCURVE",
"42 368 OFFCURVE",
"42 170 CURVE SMOOTH"
);
}
);
userData = {
com.schriftgestaltung.Glyphs.lastChange = "2021-03-02 23:45:43 +0000";
};
width = 551;
},
{
anchors = (
{
name = caron.alt;
position = "{673, 720}";
}
);
layerId = master06;
paths = (
{
closed = 1;
nodes = (
"39 58 OFFCURVE",
"108 -10 OFFCURVE",
"194 -10 CURVE",
"267 -10 OFFCURVE",
"335 29 OFFCURVE",
"376 100 CURVE",
"364 112 LINE",
"361 0 LINE",
"448 0 LINE",
"448 34 LINE SMOOTH",
"448 65 OFFCURVE",
"451 92 OFFCURVE",
"458 123 CURVE SMOOTH",
"587 732 LINE",
"492 716 LINE",
"394 254 LINE SMOOTH",
"369 138 OFFCURVE",
"286 72 OFFCURVE",
"219 72 CURVE",
"168 72 OFFCURVE",
"133 109 OFFCURVE",
"133 187 CURVE",
"133 325 OFFCURVE",
"218 449 OFFCURVE",
"314 449 CURVE",
"361 449 OFFCURVE",
"401 430 OFFCURVE",
"438 386 CURVE",
"455 468 LINE",
"415 507 OFFCURVE",
"365 525 OFFCURVE",
"316 525 CURVE",
"169 525 OFFCURVE",
"39 369 OFFCURVE",
"39 177 CURVE"
);
}
);
userData = {
com.schriftgestaltung.Glyphs.lastChange = "2021-03-02 23:45:59 +0000";
};
width = 580;
}
);
leftKerningGroup = o;
rightKerningGroup = l;
unicode = 0064;
},
{
color = 5;
glyphname = eth;
layers = (
{
layerId = master01;
paths = (
{
closed = 1;
nodes = (
"22 62 OFFCURVE",
"109 -12 OFFCURVE",
"225 -12 CURVE",
"414 -12 OFFCURVE",
"515 150 OFFCURVE",
"515 332 CURVE",
"515 478 OFFCURVE",
"440 630 OFFCURVE",
"337 720 CURVE",
"179 720 LINE",
"302 609 OFFCURVE",
"387 487 OFFCURVE",
"387 331 CURVE SMOOTH",
"387 203 OFFCURVE",
"330 110 OFFCURVE",
"241 110 CURVE",
"194 110 OFFCURVE",
"164 140 OFFCURVE",
"164 205 CURVE",
"164 292 OFFCURVE",
"211 365 OFFCURVE",
"289 365 CURVE SMOOTH",
"337 365 OFFCURVE",
"371 348 OFFCURVE",
"396 314 CURVE",
"427 380 LINE",
"406 430 OFFCURVE",
"354 480 OFFCURVE",
"272 480 CURVE",
"124 480 OFFCURVE",
"22 342 OFFCURVE",
"22 198 CURVE"
);
},
{
closed = 1;
nodes = (
"205 514 LINE",
"532 641 LINE",
"512 732 LINE",
"185 605 LINE"
);
}
);
userData = {
com.schriftgestaltung.Glyphs.lastChange = "2021-03-02 23:46:34 +0000";
};
width = 550;
},
{
layerId = master02;
paths = (
{
closed = 1;
nodes = (
"24 71 OFFCURVE",
"102 -12 OFFCURVE",
"201 -12 CURVE",
"346 -12 OFFCURVE",
"447 125 OFFCURVE",
"447 334 CURVE",
"447 476 OFFCURVE",
"387 629 OFFCURVE",
"307 720 CURVE",
"165 720 LINE",
"268 608 OFFCURVE",
"331 485 OFFCURVE",
"331 329 CURVE SMOOTH",
"331 203 OFFCURVE",
"287 112 OFFCURVE",
"217 112 CURVE",
"176 112 OFFCURVE",
"154 140 OFFCURVE",
"154 206 CURVE SMOOTH",
"154 292 OFFCURVE",
"195 361 OFFCURVE",
"255 361 CURVE SMOOTH",
"294 361 OFFCURVE",
"320 345 OFFCURVE",
"339 314 CURVE",
"360 380 LINE",
"344 430 OFFCURVE",
"307 480 OFFCURVE",
"237 480 CURVE",
"117 480 OFFCURVE",
"24 342 OFFCURVE",
"24 203 CURVE"
);
},
{
closed = 1;
nodes = (
"184 519 LINE",
"468 645 LINE",
"438 732 LINE",
"153 606 LINE"
);
}
);
userData = {
com.schriftgestaltung.Glyphs.lastChange = "2021-03-02 23:44:54 +0000";
};
width = 486;
},
{
layerId = master03;
paths = (
{
closed = 1;
nodes = (
"33 73 OFFCURVE",
"89 -8 OFFCURVE",
"178 -8 CURVE SMOOTH",
"339 -8 OFFCURVE",
"422 199 OFFCURVE",
"422 345 CURVE",
"422 503 OFFCURVE",
"340 647 OFFCURVE",
"268 720 CURVE",
"189 720 LINE",
"295 632 OFFCURVE",
"368 503 OFFCURVE",
"368 344 CURVE SMOOTH",
"368 229 OFFCURVE",
"305 48 OFFCURVE",
"194 48 CURVE SMOOTH",
"131 48 OFFCURVE",
"95 101 OFFCURVE",
"95 184 CURVE SMOOTH",
"95 290 OFFCURVE",
"176 423 OFFCURVE",
"266 423 CURVE SMOOTH",
"304 423 OFFCURVE",
"352 394 OFFCURVE",
"372 323 CURVE",
"378 386 LINE",
"359 447 OFFCURVE",
"315 478 OFFCURVE",
"270 478 CURVE SMOOTH",
"144 478 OFFCURVE",
"33 330 OFFCURVE",
"33 180 CURVE SMOOTH"
);
},
{
closed = 1;
nodes = (
"173 544 LINE",
"452 684 LINE",
"438 728 LINE",
"158 588 LINE"
);
}
);
userData = {
com.schriftgestaltung.Glyphs.lastChange = "2021-03-04 23:04:20 +0000";
};
width = 470;
},
{
layerId = master04;
paths = (
{
closed = 1;
nodes = (
"33 73 OFFCURVE",
"93 -10 OFFCURVE",
"184 -10 CURVE SMOOTH",
"321 -10 OFFCURVE",
"435 152 OFFCURVE",
"435 362 CURVE SMOOTH",
"435 508 OFFCURVE",
"376 643 OFFCURVE",
"307 720 CURVE",
"206 720 LINE",
"299 625 OFFCURVE",
"359 507 OFFCURVE",
"359 358 CURVE SMOOTH",
"359 174 OFFCURVE",
"272 66 OFFCURVE",
"195 66 CURVE SMOOTH",
"144 66 OFFCURVE",
"115 116 OFFCURVE",
"115 195 CURVE SMOOTH",
"115 291 OFFCURVE",
"174 404 OFFCURVE",
"259 404 CURVE SMOOTH",
"302 404 OFFCURVE",
"338 381 OFFCURVE",
"361 329 CURVE",
"382 390 LINE",
"365 431 OFFCURVE",
"323 479 OFFCURVE",
"251 479 CURVE SMOOTH",
"132 479 OFFCURVE",
"33 339 OFFCURVE",
"33 191 CURVE SMOOTH"
);
},
{
closed = 1;
nodes = (
"213 537 LINE",
"472 674 LINE",
"445 729 LINE",
"185 593 LINE"
);
}
);
userData = {
com.schriftgestaltung.Glyphs.lastChange = "2021-03-02 23:38:03 +0000";
};
width = 478;
},
{
layerId = master05;
paths = (
{
closed = 1;
nodes = (
"48 73 OFFCURVE",
"121 -8 OFFCURVE",
"229 -8 CURVE",
"394 -8 OFFCURVE",
"497 149 OFFCURVE",
"497 345 CURVE",
"497 503 OFFCURVE",
"415 647 OFFCURVE",
"343 720 CURVE",
"264 720 LINE",
"370 632 OFFCURVE",
"443 503 OFFCURVE",
"443 344 CURVE",
"443 179 OFFCURVE",
"356 47 OFFCURVE",
"235 47 CURVE",
"161 47 OFFCURVE",
"110 101 OFFCURVE",
"110 194 CURVE",
"110 300 OFFCURVE",
"188 423 OFFCURVE",
"298 423 CURVE",
"364 423 OFFCURVE",
"411 392 OFFCURVE",
"447 324 CURVE",
"450 385 LINE",
"417 442 OFFCURVE",
"360 478 OFFCURVE",
"299 478 CURVE",
"154 478 OFFCURVE",
"48 340 OFFCURVE",
"48 190 CURVE"
);
},
{
closed = 1;
nodes = (
"248 544 LINE",
"527 684 LINE",
"513 728 LINE",
"233 588 LINE"
);
}
);
userData = {
com.schriftgestaltung.Glyphs.lastChange = "2021-03-02 23:45:43 +0000";
};
width = 565;
},
{
layerId = master06;
paths = (
{
closed = 1;
nodes = (
"40 73 OFFCURVE",
"119 -10 OFFCURVE",
"227 -10 CURVE",
"382 -10 OFFCURVE",
"508 135 OFFCURVE",
"508 360 CURVE SMOOTH",
"508 501 OFFCURVE",
"426 642 OFFCURVE",
"346 720 CURVE",
"237 720 LINE",
"346 624 OFFCURVE",
"426 505 OFFCURVE",
"426 356 CURVE SMOOTH",
"426 170 OFFCURVE",
"326 69 OFFCURVE",
"236 69 CURVE",
"171 69 OFFCURVE",
"130 118 OFFCURVE",
"130 196 CURVE",
"130 292 OFFCURVE",
"195 401 OFFCURVE",
"303 401 CURVE SMOOTH",
"354 401 OFFCURVE",
"401 376 OFFCURVE",
"432 319 CURVE",
"451 380 LINE",
"430 426 OFFCURVE",
"378 479 OFFCURVE",
"292 479 CURVE",
"152 479 OFFCURVE",
"40 340 OFFCURVE",
"40 193 CURVE"
);
},
{
closed = 1;
nodes = (
"231 533 LINE",
"527 669 LINE",
"506 729 LINE",
"209 594 LINE"
);
}
);
userData = {
com.schriftgestaltung.Glyphs.lastChange = "2021-03-02 23:45:59 +0000";
};
width = 559;
}
);
unicode = 00F0;
},
{
color = 5;
glyphname = dcroat;
layers = (
{
layerId = master01;
paths = (
{
closed = 1;
nodes = (
"648 565 LINE",
"670 670 LINE",
"340 670 LINE",
"318 565 LINE"
);
},
{
closed = 1;
nodes = (
"22 70 OFFCURVE",
"86 -12 OFFCURVE",
"184 -12 CURVE",
"259 -12 OFFCURVE",
"326 31 OFFCURVE",
"367 101 CURVE",
"348 111 LINE",
"348 0 LINE",
"492 0 LINE",
"492 49 LINE SMOOTH",
"492 78 OFFCURVE",
"493 97 OFFCURVE",
"499 125 CURVE SMOOTH",
"628 735 LINE",
"475 715 LINE",
"385 294 LINE SMOOTH",
"361 184 OFFCURVE",
"292 120 OFFCURVE",
"233 120 CURVE",
"197 120 OFFCURVE",
"176 146 OFFCURVE",
"176 207 CURVE SMOOTH",
"176 295.214 OFFCURVE",
"231 402 OFFCURVE",
"322 402 CURVE SMOOTH",
"363 402 OFFCURVE",
"399 383 OFFCURVE",
"428 341 CURVE",
"457 476 LINE",
"417 506 OFFCURVE",
"368 522 OFFCURVE",
"318 522 CURVE SMOOTH",
"146 522 OFFCURVE",
"22 363.155 OFFCURVE",
"22 189 CURVE SMOOTH"
);
}
);
userData = {
com.schriftgestaltung.Glyphs.lastChange = "2021-03-02 23:46:34 +0000";
};
width = 603;
},
{
layerId = master02;
paths = (
{
closed = 1;
nodes = (
"561 563 LINE",
"584 673 LINE",
"305 673 LINE",
"282 563 LINE"
);
},
{
closed = 1;
nodes = (
"16 63 OFFCURVE",
"65 -12 OFFCURVE",
"149 -12 CURVE",
"208 -12 OFFCURVE",
"265 31 OFFCURVE",
"302 101 CURVE",
"286 111 LINE",
"283 0 LINE",
"414 0 LINE",
"416 50 LINE SMOOTH",
"417 79 OFFCURVE",
"418 96 OFFCURVE",
"424 125 CURVE SMOOTH",
"553 735 LINE",
"413 715 LINE",
"324 298 LINE SMOOTH",
"300 184 OFFCURVE",
"243 123 OFFCURVE",
"203 123 CURVE",
"177 123 OFFCURVE",
"158 144 OFFCURVE",
"158 199 CURVE SMOOTH",
"158 292.82 OFFCURVE",
"205 395 OFFCURVE",
"278 395 CURVE SMOOTH",
"309 395 OFFCURVE",
"338 383 OFFCURVE",
"362 346 CURVE",
"385 468 LINE",
"356 502 OFFCURVE",
"313 520 OFFCURVE",
"269 520 CURVE SMOOTH",
"136 520 OFFCURVE",
"16 348.521 OFFCURVE",
"16 178 CURVE SMOOTH"
);
}
);
userData = {
com.schriftgestaltung.Glyphs.lastChange = "2021-03-02 23:44:54 +0000";
};
width = 522;
},
{
layerId = master03;
paths = (
{
closed = 1;
nodes = (
"505 586 LINE",
"515 636 LINE",
"294 636 LINE",
"284 586 LINE"
);
},
{
closed = 1;
nodes = (
"36 40 OFFCURVE",
"72 -8 OFFCURVE",
"153 -8 CURVE SMOOTH",
"211 -8 OFFCURVE",
"267 37 OFFCURVE",
"309 108 CURVE",
"300 113 LINE",
"296 0 LINE",
"352 0 LINE",
"352 25 LINE SMOOTH",
"352 58 OFFCURVE",
"356 89 OFFCURVE",
"363 122 CURVE SMOOTH",
"492 731 LINE",
"429 717 LINE",
"326 232 LINE SMOOTH",
"301 112 OFFCURVE",
"231 45 OFFCURVE",
"169 45 CURVE SMOOTH",
"114 45 OFFCURVE",
"97 93 OFFCURVE",
"97 184 CURVE SMOOTH",
"97 342 OFFCURVE",
"169 466 OFFCURVE",
"268 466 CURVE SMOOTH",
"317 466 OFFCURVE",
"342 449 OFFCURVE",
"371 403 CURVE",
"381 455 LINE",
"347 501 OFFCURVE",
"321 518 OFFCURVE",
"273 518 CURVE SMOOTH",
"139 518 OFFCURVE",
"36 356 OFFCURVE",
"36 170 CURVE SMOOTH"
);
}
);
userData = {
com.schriftgestaltung.Glyphs.lastChange = "2021-03-04 23:04:20 +0000";
};
width = 461;
},
{
layerId = master04;
paths = (
{
closed = 1;
nodes = (
"550 588 LINE",
"561 642 LINE",
"291 642 LINE",
"280 588 LINE"
);
},
{
closed = 1;
nodes = (
"28 46 OFFCURVE",
"86 -10 OFFCURVE",
"154 -10 CURVE",
"213 -10 OFFCURVE",
"273 30 OFFCURVE",
"311 100 CURVE",
"300 113 LINE",
"294 0 LINE",
"378 0 LINE",
"379 33 LINE SMOOTH",
"380 65 OFFCURVE",
"383 92 OFFCURVE",
"390 124 CURVE SMOOTH",
"520 732 LINE",
"428 716 LINE",
"330 252 LINE SMOOTH",
"304 130 OFFCURVE",
"241 67 OFFCURVE",
"184 67 CURVE",
"141 67 OFFCURVE",
"118 97 OFFCURVE",
"118 180 CURVE",
"118 326 OFFCURVE",
"196 450 OFFCURVE",
"277 450 CURVE",
"309 450 OFFCURVE",
"344 437 OFFCURVE",
"373 397 CURVE",
"388 460 LINE",
"360 501 OFFCURVE",
"318 525 OFFCURVE",
"273 525 CURVE",
"149 525 OFFCURVE",
"28 363 OFFCURVE",
"28 170 CURVE"
);
}
);
userData = {
com.schriftgestaltung.Glyphs.lastChange = "2021-03-02 23:38:03 +0000";
};
width = 501;
},
{
layerId = master05;
paths = (
{
closed = 1;
nodes = (
"601 586 LINE",
"611 636 LINE",
"330 636 LINE",
"320 586 LINE"
);
},
{
closed = 1;
nodes = (
"42 52 OFFCURVE",
"110 -8 OFFCURVE",
"189 -8 CURVE SMOOTH",
"261 -8 OFFCURVE",
"333 37 OFFCURVE",
"375 108 CURVE",
"366 113 LINE",
"362 0 LINE",
"418 0 LINE",
"418 25 LINE SMOOTH",
"418 58 OFFCURVE",
"422 89 OFFCURVE",
"429 122 CURVE SMOOTH",
"558 731 LINE",
"495 717 LINE",
"392 232 LINE SMOOTH",
"367 112 OFFCURVE",
"277 45 OFFCURVE",
"205 45 CURVE SMOOTH",
"146 45 OFFCURVE",
"103 88 OFFCURVE",
"103 176 CURVE SMOOTH",
"103 337 OFFCURVE",
"205 466 OFFCURVE",
"304 466 CURVE SMOOTH",
"353 466 OFFCURVE",
"396 448 OFFCURVE",
"437 403 CURVE",
"447 455 LINE",
"407 499 OFFCURVE",
"357 518 OFFCURVE",
"309 518 CURVE SMOOTH",
"175 518 OFFCURVE",
"42 368 OFFCURVE",
"42 170 CURVE SMOOTH"
);
}
);
userData = {
com.schriftgestaltung.Glyphs.lastChange = "2021-03-02 23:45:43 +0000";
};
width = 556;
},
{
layerId = master06;
paths = (
{
closed = 1;
nodes = (
"631 586 LINE",
"643 644 LINE",
"327 644 LINE",
"315 586 LINE"
);
},
{
closed = 1;
nodes = (
"39 58 OFFCURVE",
"108 -10 OFFCURVE",
"194 -10 CURVE",
"267 -10 OFFCURVE",
"335 29 OFFCURVE",
"376 100 CURVE",
"364 112 LINE",
"361 0 LINE",
"448 0 LINE",
"448 34 LINE SMOOTH",
"448 65 OFFCURVE",
"451 92 OFFCURVE",
"458 123 CURVE SMOOTH",
"587 732 LINE",
"492 716 LINE",
"394 254 LINE SMOOTH",
"369 138 OFFCURVE",
"286 72 OFFCURVE",
"219 72 CURVE",
"168 72 OFFCURVE",
"133 109 OFFCURVE",
"133 187 CURVE",
"133 325 OFFCURVE",
"218 449 OFFCURVE",
"314 449 CURVE",
"361 449 OFFCURVE",
"401 430 OFFCURVE",
"438 386 CURVE",
"455 468 LINE",
"415 507 OFFCURVE",
"365 525 OFFCURVE",
"316 525 CURVE",
"169 525 OFFCURVE",
"39 369 OFFCURVE",
"39 177 CURVE"
);
}
);
userData = {
com.schriftgestaltung.Glyphs.lastChange = "2021-03-02 23:45:59 +0000";
};
width = 585;
}
);
leftKerningGroup = o;
unicode = 0111;
},
